<svg id="Layer_1" data-name="Layer 1" xmlns="http://www.w3.org/2000/svg" viewBox="0 0 81 81"><title>emulsion</title><g id="gsFtj6.tif"><path d="M36.28,80.18c-3.2-.47-6.43-.79-9.58-1.47a25.64,25.64,0,0,1-6.12-2.17C18.2,75.34,18.16,73.9,20,72a2.21,2.21,0,0,0,.43-1.65C19,60.67,17.58,51,16.17,41.33a9.44,9.44,0,0,1,0-1.41l6.69,1.91c0,3.29,0,6.69,0,10.1,0,1.26-.33,3,1.55,3S26,53.24,26,52c0-.65,0-1.3,0-1.85h3c0,1.79,0,3.66,0,5.54,0,1.11.09,2.29,1.55,2.31s1.57-1.12,1.57-2.26c0-4.18,0-8.36,0-12.42H44.43c0,1.74,0,3.26,0,4.77,0,2.17.83,2.67,3.09,1.71,0,2.1,0,4.13,0,6.15,0,1,.19,2,1.42,2s1.69-.88,1.72-2c0-1.47,0-2.93,0-4.43,2.5.54,3,.14,3-2.29,0-2.18,0-4.35,0-6.48l11.53-2.71c-.69,4.79-1.4,9.67-2.12,14.55C62.3,59.75,61.49,64.87,60.8,70a2.8,2.8,0,0,0,.7,2.07c1.7,1.71,1.72,3.29-.54,4.33a43.89,43.89,0,0,1-8.17,2.68c-2.5.6-5.1.75-7.66,1.1Z"/><path d="M53.71,39.44V35.59c1.9-.45,3.81-.82,5.65-1.39,1.42-.43,3.48-.68,3.48-2.45s-2-2.07-3.45-2.51c-5.29-1.66-10.78-2-16.25-2.09-7.08-.17-14.15.09-21,2.05a10.61,10.61,0,0,0-2.74,1.18c-1.38.86-1.32,1.79,0,2.73a7.59,7.59,0,0,0,.93.51c2.81,1.32,2.81,1.31,2.36,4.86-3.42-.7-6.76-1.57-9.6-3.68-3.2-2.37-3.14-5.67.29-7.74a6,6,0,0,0,2.88-4.21C17.94,16.1,20.77,9.92,26.32,5.41c9.9-8,25.18-6,32.93,4.21A38.65,38.65,0,0,1,65.74,24.2a3.46,3.46,0,0,0,1.7,2.45c4.18,2.5,4.19,6.1.08,8.67C64,37.51,60,38.38,56,39.1,55.32,39.22,54.62,39.31,53.71,39.44ZM64.4,24.9a35.06,35.06,0,0,0-7-15.27C50.31,1,36.75-.62,27.9,6.07c-5.46,4.13-8.26,10-10,16.4-.21.75-.32,1.53-.47,2.26A89.11,89.11,0,0,1,64.4,24.9Z"/><path d="M32.21,40V36.2H44.32V40Z"/></g></svg>