<?xml version="1.0" encoding="iso-8859-1"?>
<!-- Generator: Adobe Illustrator 16.0.0, SVG Export Plug-In . SVG Version: 6.00 Build 0)  -->
<!DOCTYPE svg PUBLIC "-//W3C//DTD SVG 1.1//EN" "http://www.w3.org/Graphics/SVG/1.1/DTD/svg11.dtd">
<svg version="1.1" id="Capa_1" xmlns="http://www.w3.org/2000/svg" xmlns:xlink="http://www.w3.org/1999/xlink" x="0px" y="0px"
	 width="352.299px" height="352.299px" viewBox="0 0 352.299 352.299" style="enable-background:new 0 0 352.299 352.299;"
	 xml:space="preserve">
<g>
	<g>
		<g>
			<path d="M238.184,91.822V58.936c11.454-4.382,19.59-15.47,19.59-28.464C257.773,13.643,244.13,0,227.301,0H124.999
				c-16.829,0-30.473,13.643-30.473,30.472c0,12.995,8.136,24.082,19.59,28.464v32.886c-41.158,5.307-72.966,40.457-72.966,83.06
				v93.64c0,46.27,37.509,83.777,83.779,83.777H227.37c46.271,0,83.779-37.509,83.779-83.777v-93.64
				C311.149,132.279,279.342,97.129,238.184,91.822z M224.568,260.73h-96.839c-25.725,0-46.58-20.855-46.58-46.582
				s20.855-46.582,46.581-46.582h96.839c25.725,0,46.58,20.855,46.58,46.582S250.294,260.73,224.568,260.73z"/>
			<g>
				<path d="M118.235,183.511h-0.306c-3.739,0-6.78,3.041-6.78,6.779v46.548c0,3.738,3.042,6.779,6.78,6.779h0.306
					c3.738,0,6.779-3.041,6.779-6.779V190.29C125.015,186.552,121.974,183.511,118.235,183.511z"/>
				<path d="M177.649,183.511h-0.309c-3.737,0-6.777,3.041-6.777,6.779v26.463l-22.108-30.446c-1.273-1.75-3.324-2.796-5.484-2.796
					h-1.246c-3.739,0-6.781,3.041-6.781,6.779v46.548c0,3.738,3.042,6.779,6.781,6.779h0.304c3.739,0,6.781-3.041,6.781-6.779
					v-26.463l22.105,30.445c1.272,1.75,3.324,2.795,5.487,2.795h1.246c3.737,0,6.776-3.041,6.776-6.778v-46.548
					C184.427,186.552,181.386,183.511,177.649,183.511z"/>
				<path d="M239.631,232.562l-17.192-21.146l15.306-16.516c1.831-1.979,2.318-4.853,1.241-7.324
					c-1.08-2.469-3.519-4.064-6.214-4.064h-0.466c-1.888,0-3.702,0.795-4.983,2.183l-19.098,20.696v-16.1
					c0-3.738-3.041-6.779-6.779-6.779h-0.307c-3.738,0-6.779,3.041-6.779,6.779v46.548c0,3.738,3.041,6.779,6.779,6.779h0.307
					c3.738,0,6.779-3.041,6.779-6.779v-10.037l4.684-5.081l15.718,19.388c1.293,1.596,3.214,2.511,5.269,2.511h0.477
					c2.604,0,5.005-1.518,6.124-3.866C241.609,237.4,241.271,234.578,239.631,232.562z"/>
			</g>
		</g>
	</g>
</g>
<g>
</g>
<g>
</g>
<g>
</g>
<g>
</g>
<g>
</g>
<g>
</g>
<g>
</g>
<g>
</g>
<g>
</g>
<g>
</g>
<g>
</g>
<g>
</g>
<g>
</g>
<g>
</g>
<g>
</g>
</svg>
