<svg id="Layer_1" data-name="Layer 1" xmlns="http://www.w3.org/2000/svg" xmlns:xlink="http://www.w3.org/1999/xlink" viewBox="0 0 489.22 280.43"><defs><style>.cls-1{fill:#fff;}</style></defs><title>spatula</title><g id="Ksil74"><path d="M171.78,104.57c0,10.5,0,21,0,31.5a8.29,8.29,0,0,1-.58,2.91,2.78,2.78,0,0,1-2.69,1.83l-1.44,0H119.72c-3.21,0-4.54-1.28-4.55-4.52q0-31.95,0-63.88c0-3,1.35-4.35,4.39-4.35h47.76c3.22,0,4.46,1.25,4.46,4.55Q171.8,88.61,171.78,104.57Zm-2.13-.16q0-15.9,0-31.81c0-1.29-.41-1.93-1.83-1.93q-24.32,0-48.65,0c-1.38,0-1.86.55-1.86,1.88q0,31.88,0,63.76c0,1.65.28,1.91,2,1.92q24.26,0,48.5,0c1.36,0,1.87-.54,1.87-1.89C169.63,125.71,169.65,115.06,169.65,104.41Z" transform="translate(225.79 139.59)"/><path class="cls-1" d="M169.65,104.41c0,10.65,0,21.3,0,32,0,1.35-.51,1.89-1.87,1.89q-24.26,0-48.5,0c-1.68,0-2-.27-2-1.92q0-31.87,0-63.76c0-1.33.48-1.89,1.86-1.88q24.33,0,48.65,0c1.42,0,1.84.64,1.83,1.93Q169.63,88.51,169.65,104.41Zm-50.69,0v29.5c0,2.06.17,2.22,2.22,2.22h44.6c2,0,2.21-.2,2.21-2.22q0-29.43,0-58.85c0-2.09-.23-2.31-2.29-2.31q-22.17,0-44.32,0c-2.28,0-2.42.13-2.43,2.45Z" transform="translate(225.79 139.59)"/><path d="M119,104.41V75.2c0-2.32.15-2.45,2.43-2.45q22.15,0,44.32,0c2.06,0,2.29.22,2.29,2.31q0,29.41,0,58.85c0,2-.21,2.22-2.21,2.22h-44.6c-2.05,0-2.22-.16-2.22-2.22Zm2.16-29a13.25,13.25,0,0,0,0,1.43c.14,1.3-.49,2.74.81,3.87.22.19,0,1.13-.23,1.53a6,6,0,0,0,0,5.26,2,2,0,0,1,.06,1.78,5.92,5.92,0,0,0,0,5.49,1.93,1.93,0,0,1,0,1.69,6.17,6.17,0,0,0-.11,5.54,2.06,2.06,0,0,1-.06,1.7,6.43,6.43,0,0,0,.12,5.39,2,2,0,0,1,0,1.78,6.2,6.2,0,0,0,0,5.37,1.88,1.88,0,0,1,.12,1.66,5.52,5.52,0,0,0,0,5.57c.22.35.35,1.14.15,1.3-1.29,1.09-.83,2.52-.86,3.84a2.65,2.65,0,0,0,.4,1.68c.79.86.81,1.54,0,2.32-.17.16-.37.51-.31.65s.42.31.67.37a4.1,4.1,0,0,0,.86,0l41.58-.09c.48,0,1-.06,1.79-.11-.44-.5-.75-.71-.81-1-.13-.6-.39-1.37-.15-1.81a6.12,6.12,0,0,0,0-5.5,2.1,2.1,0,0,1,.1-1.81,6.73,6.73,0,0,0,0-5.3,2.08,2.08,0,0,1,0-1.79,6.33,6.33,0,0,0,0-5.41,2.09,2.09,0,0,1,0-1.81,6.34,6.34,0,0,0,0-5.4,2,2,0,0,1,0-1.69,5.53,5.53,0,0,0,0-5.55,2.07,2.07,0,0,1,0-1.6,5.49,5.49,0,0,0-.08-5.55,2,2,0,0,1,.1-1.68,6.23,6.23,0,0,0-.06-5.43c-.24-.37-.37-1.18-.14-1.43,1.48-1.65.48-3.51.77-5.31Z" transform="translate(225.79 139.59)"/><path class="cls-1" d="M121.12,75.39H165.8c-.29,1.8.71,3.66-.77,5.31-.23.25-.1,1.06.14,1.43a6.23,6.23,0,0,1,.06,5.43,2,2,0,0,0-.1,1.68,5.49,5.49,0,0,1,.08,5.55,2.07,2.07,0,0,0,0,1.6,5.53,5.53,0,0,1,0,5.55,2,2,0,0,0,0,1.69,6.34,6.34,0,0,1,0,5.4,2.09,2.09,0,0,0,0,1.81,6.33,6.33,0,0,1,0,5.41,2.08,2.08,0,0,0,0,1.79,6.73,6.73,0,0,1,0,5.3,2.1,2.1,0,0,0-.1,1.81,6.12,6.12,0,0,1,0,5.5c-.24.44,0,1.21.15,1.81.06.25.37.46.81,1-.82.05-1.31.11-1.79.11l-41.58.09a4.1,4.1,0,0,1-.86,0c-.25-.06-.58-.18-.67-.37s.14-.49.31-.65c.84-.78.82-1.46,0-2.32a2.65,2.65,0,0,1-.4-1.68c0-1.32-.43-2.75.86-3.84.2-.16.07-1-.15-1.3a5.52,5.52,0,0,1,0-5.57,1.88,1.88,0,0,0-.12-1.66,6.2,6.2,0,0,1,0-5.37,2,2,0,0,0,0-1.78,6.43,6.43,0,0,1-.12-5.39,2.06,2.06,0,0,0,.06-1.7,6.17,6.17,0,0,1,.11-5.54,1.93,1.93,0,0,0,0-1.69,5.92,5.92,0,0,1,0-5.49,2,2,0,0,0-.06-1.78,6,6,0,0,1,0-5.26c.28-.4.45-1.34.23-1.53-1.3-1.13-.67-2.57-.81-3.87A13.25,13.25,0,0,1,121.12,75.39Zm38.33,52.38-1.58-1.17c-.32.47-.86.94-.88,1.42s.74,1.11,1,1C158.46,129,158.82,128.38,159.45,127.77Zm1.41-39.29-1.49-1.32c-.35.44-.93.87-1,1.34s.63,1.15.94,1.13S160.21,89,160.86,88.48Zm-1.38,8.9c.46-.86,1-1.36.92-1.84s-.62-.79-1-1.18c-.37.46-.94.89-1,1.41C158.34,96.13,158.93,96.61,159.48,97.38Zm.07,3.6c-.58.83-1.14,1.28-1.11,1.67s.6.92.93,1.38c.37-.37,1-.7,1-1.1S160,101.93,159.55,101Zm-.19-18c.52-.78,1.08-1.24,1-1.63s-.62-.91-1-1.36c-.37.43-1,.83-1,1.31S158.87,82.21,159.36,83Zm.09,30.49c-.68-.54-1.1-1.12-1.55-1.15s-1,.79-.92,1.15a1.76,1.76,0,0,0,1.09,1.18C158.32,114.77,158.82,114.07,159.45,113.51Zm-1.57,5.4c-.46.92-.94,1.44-.89,1.91s.66.76,1,1.13c.34-.45.9-.87,1-1.35S158.45,119.74,157.88,118.91ZM130.6,127.8c-.69-.53-1.12-1.11-1.56-1.12s-.94.78-.9,1.16.64.88,1,1.31Zm3.14.07-1.45-1.27c-.33.4-.95.82-.93,1.2s.6.9.93,1.35ZM137,128l-1.42-1.36c-.35.38-1,.77-1,1.15s.54.93.84,1.4Zm-.27-38.09.55,0c.24-.5.72-1,.65-1.47s-.69-.81-1.07-1.22c-.3.43-.84.85-.85,1.29S136.46,89.39,136.72,89.87Zm24.19,20.18-1.47-1.33c-.36.43-1,.82-1,1.28s.58,1.14.9,1.14S160.22,110.57,160.91,110.05Zm0,19.23.54,0c.27-.48.75-1,.74-1.44s-.56-.85-.88-1.27c-.37.4-1,.77-1.06,1.22S160.63,128.79,160.87,129.28ZM132,95.61l-1.51-1.25c-.35.44-.93.86-1,1.33s.64,1.14.94,1.11C131,96.76,131.37,96.18,132,95.61Zm6.37,0-1.49-1.25c-.33.41-1,.85-.91,1.22s.65.87,1,1.3Zm-9-19.29h-.6c-.25.49-.73,1-.68,1.45s.64.79,1,1.18c.34-.4.93-.78,1-1.2S129.67,76.8,129.42,76.32Zm25.64,50.14h-.54c-.26.48-.75,1-.73,1.43s.57.85.88,1.27c.38-.4,1-.77,1.07-1.23S155.31,127,155.06,126.46Zm-11.42-17.89h-.53c-.24.49-.7,1-.66,1.47s.62.8,1,1.2c.34-.45.89-.87,1-1.36S143.91,109,143.64,108.57ZM159.47,77.7c-.68-.54-1.09-1.11-1.54-1.14s-1,.75-.94,1.09.66.87,1,1.3Zm-25.39,23.71h-.55c-.26.48-.74,1-.71,1.44s.61.8.94,1.19c.35-.38.94-.74,1-1.16S134.32,101.9,134.08,101.41Zm-2,1.35c-.69-.53-1.12-1.11-1.57-1.12s-1,.79-.9,1.16a1.73,1.73,0,0,0,1.1,1.15C131,104,131.43,103.33,132.06,102.76Zm-7.64-1.36h-.56c-.24.5-.7,1-.65,1.47s.63.77,1,1.15c.33-.4.91-.78.93-1.19S124.68,101.88,124.42,101.4Zm21,25-.56,0c-.23.5-.66,1-.62,1.49s.6.79.93,1.19c.36-.43,1-.83,1-1.29S145.65,126.92,145.38,126.44Zm11-32.25-.53,0c-.23.5-.69,1-.63,1.51s.67.76,1,1.14c.32-.47.84-.91.89-1.41S156.67,94.62,156.39,94.19Zm-5.15,1.4-1.42-1.23c-.35.43-.95.84-1,1.3s.59.81.93,1.22Zm-6.1.11,1.45,1.19c.35-.45.92-.88,1-1.36s-.62-.78-1-1.17Zm-1.47-1.49h-.53c-.27.44-.78.92-.73,1.31s.62.91,1,1.36c.35-.4.95-.77,1-1.2S143.92,94.7,143.67,94.21ZM124.18,128l-1.44-1.37c-.35.43-.93.84-1,1.3s.56.82.87,1.24Zm11-32.33-1.44-1.28c-.34.4-1,.83-.95,1.2s.63.88,1,1.32Zm-9.56,33.65h.56c.26-.47.74-1,.72-1.42s-.55-.85-.86-1.27c-.38.4-1,.75-1.08,1.2S125.37,128.79,125.61,129.29Zm2.07-35.07-.52,0c-.28.44-.82.9-.77,1.29s.59.93.93,1.39c.35-.38,1-.74,1-1.16S127.91,94.72,127.68,94.22Zm-3.45,3.23c.45-1,.91-1.47.87-2s-.64-.76-1-1.14c-.32.46-.86.89-.91,1.38S123.68,96.6,124.23,97.45ZM159.47,92c-.67-.54-1.19-1.2-1.46-1.11a1.77,1.77,0,0,0-1,1.21c0,.34.65,1.1,1,1.07S158.81,92.53,159.47,92ZM164,88.56l-1.35-1.39c-.36.42-1,.85-1,1.28s.59,1,1,1.18C162.88,89.72,163.4,89.05,164,88.56ZM143.4,128,142,126.6c-.36.43-.94.83-1,1.29s.55.83.86,1.25Zm-13.92-8.62-.5,0c-.3.42-.87.86-.83,1.25s.58.93.9,1.39c.37-.36,1-.7,1-1.1S129.71,119.85,129.48,119.35Zm20.34,8.43-1.55-1.17c-.32.42-.91.86-.88,1.25s.64.86,1,1.29ZM137,113.54l-1.48-1.27c-.32.42-.92.87-.88,1.25s.64.84,1,1.26Zm-3.24.16-1.36-1.42c-.36.38-1,.77-1,1.14s.57.92.89,1.37Zm-3.14-.22-1.45-1.21c-.36.44-.94.85-1,1.32s.66,1.13.95,1.1C129.56,114.63,129.94,114,130.59,113.48Zm1.5,8.62h.52c.23-.44.71-.92.64-1.31s-.62-.87-1-1.3c-.33.4-.92.78-.94,1.2S131.82,121.63,132.09,122.1Zm16-12.17-1.42-1.21c-.35.43-.93.84-1,1.3s.59.81.92,1.22ZM153,127.8l-1.37-1.2c-.35.43-1,.85-1,1.28s.64.84,1,1.26Zm-18.82-7.07,1.35,1.22c.37-.42,1-.81,1-1.26s-.57-.81-.9-1.22Zm4.27-10.81-1.4-1.2c-.33.44-.9.85-.93,1.31s.58.8.91,1.2Zm27.45-3.6-1.61-1.2c-.29.44-.8.87-.79,1.3s.57.78.89,1.17Zm-40.19,1.43h.52c.25-.43.76-.91.69-1.29s-.63-.9-1-1.34c-.34.44-.88.86-1,1.34S125.41,107.32,125.67,107.75Zm20.94,13-1.49-1.28c-.33.4-1,.83-.91,1.2s.63.86,1,1.28Zm11.06-18-1.52-1.2c-.32.42-.94.88-.89,1.24s.68.83,1.06,1.24Zm-10.76-1.34h-.56c-.26.49-.73,1-.7,1.45s.61.8.95,1.2c.34-.39.94-.76,1-1.17S147.15,101.9,146.91,101.41Zm-2,1.37-1.54-1.22c-.32.41-.94.85-.89,1.22s.65.84,1,1.25Zm-7.73-1.39-.53,0c-.2.5-.61,1-.54,1.49s.65.74,1,1.11c.31-.47.83-.92.86-1.4S137.44,101.81,137.15,101.39Zm7.7-20.08L143.44,80c-.36.42-.95.81-1,1.27s.59,1.14.88,1.12C143.76,82.4,144.17,81.84,144.85,81.31Zm-3.21-.06L140.1,80c-.33.41-.95.87-.9,1.23s.68.84,1.06,1.25Zm-16,7.29-1.46-1.38c-.34.43-.91.84-1,1.3s.55,1.16.86,1.16S124.91,89.06,125.61,88.54ZM127.55,87,127,87c-.23.51-.66,1-.62,1.5s.62.79,1,1.19c.34-.44.92-.85,1-1.31S127.82,87.48,127.55,87Zm3.12-.41c-.58.83-1.15,1.29-1.09,1.66s.63,1,1,1.45c.34-.39.93-.76,1-1.17S131.11,87.54,130.67,86.6Zm4.43,1.8-1.32-1.23c-.36.43-1,.87-1,1.3s.68.82,1.07,1.24Zm5,1.87c.56-.83,1.09-1.28,1.06-1.67s-.56-1-.87-1.43c-.38.4-1,.76-1.08,1.2S139.62,89.35,140.09,90.27Zm-5-9L133.84,80c-.38.41-1,.81-1.05,1.23s.64.82,1,1.24Zm16.11,7.19-1.45-1.35c-.34.44-.91.86-.95,1.32s.57.82.89,1.23ZM156.46,87h-.54c-.25.49-.72,1-.7,1.45s.57.83.88,1.25c.38-.41,1-.78,1.05-1.23S156.72,87.51,156.46,87Zm-29.07-9.28c-.67-.57-1-1.15-1.49-1.19s-1,.73-.94,1.08.63.87,1,1.31Zm6.78,0,1.31,1.25c.37-.42,1-.84,1-1.26s-.67-.8-1-1.2Zm4.51,1.76c.53-.78,1.08-1.24,1-1.63s-.6-.9-.93-1.34c-.36.41-.94.79-1,1.25S138.22,78.62,138.68,79.45Zm10-3.13h-.6c-.25.47-.72,1-.69,1.42s.6.82.94,1.22c.35-.38.94-.74,1-1.17S148.92,76.81,148.68,76.32ZM148,81.39,146.59,80c-.34.39-1,.8-1,1.17s.6.88.94,1.32Zm3.2-.09L149.75,80c-.33.4-.95.83-.92,1.2s.63.86,1,1.28Zm-25.24,34c.47-.86,1-1.35.89-1.75s-.64-.87-1-1.3c-.33.45-.87.89-.92,1.38S125.45,114.5,126,115.32Zm-1.81-1.81-1.53-1.23c-.31.41-.91.86-.87,1.24s.64.83,1,1.24Zm38.66-4.94-.53,0c-.23.49-.67,1-.62,1.48s.63.78,1,1.16c.34-.45.87-.88.94-1.38S163.11,109,162.84,108.57ZM154.43,110l-1.37-1.23c-.36.42-1,.82-1,1.28s.58.82.9,1.23Zm-15.65-7.22c.57.56,1,1.28,1.28,1.21.46-.12,1.1-.69,1.11-1.09s-.63-.87-1-1.3ZM164,81.25,162.53,80c-.32.41-.93.86-.89,1.23s.66.83,1,1.25Zm-22.36,28.8-1.45-1.33c-.34.39-1,.8-1,1.17s.6.89.93,1.34Zm8.43-8.64h-.54c-.26.49-.74,1-.71,1.45s.62.78,1,1.17c.34-.38.93-.75,1-1.15S150.34,101.9,150.09,101.41Zm4.35,1.39-1.38-1.24c-.36.42-1,.81-1,1.26s.58.81.91,1.21Zm-20.3,5.79-.59,0c-.27.48-.76,1-.74,1.43s.59.83.92,1.24c.35-.38.93-.73,1-1.15S134.35,109.09,134.14,108.59Zm-3.28,0h-.55c-.26.48-.77,1-.72,1.44s.68.82,1.06,1.23c.32-.41.89-.8.92-1.22S131.11,109.05,130.86,108.57Zm-3.17,0h-.55c-.27.43-.79.9-.73,1.29s.6.93.94,1.39c.35-.39.94-.76,1-1.18S127.93,109.07,127.69,108.57Zm-3.8,2.81h.51c.26-.44.77-.92.72-1.32s-.61-.9-1-1.35c-.34.39-.93.77-1,1.18S123.64,110.88,123.89,111.38Zm1.67-25.18.54,0c.28-.42.81-.86.77-1.25s-.57-.92-.88-1.38c-.36.37-1,.7-1,1.11S125.34,85.7,125.56,86.2Zm26.34-9.86-.55,0c-.27.42-.8.88-.75,1.26s.6.91.93,1.37c.34-.39.91-.75,1-1.17S152.12,76.82,151.9,76.34Zm12.17,2.72.51,0c.27-.43.81-.88.76-1.27s-.59-.9-.92-1.34c-.34.37-.93.72-1,1.11S163.84,78.57,164.07,79.06Zm-19.22,45.33L143.41,123c-.34.39-1,.79-1,1.16a1.82,1.82,0,0,0,1,1.25C143.64,125.54,144.2,124.89,144.85,124.39Zm-4.62,3.49-1.5-1.27c-.34.44-.9.87-.94,1.34s.59.79.92,1.19ZM132,124.3,130.53,123c-.34.41-1,.85-.93,1.22a1.76,1.76,0,0,0,1.05,1.18C130.91,125.52,131.41,124.84,132,124.3Zm-6.43-43L124.1,80c-.32.41-.94.84-.9,1.21s.63.85,1,1.27Zm3.2,0L127.29,80c-.32.41-.94.85-.9,1.23a1.77,1.77,0,0,0,1,1.18C127.67,82.52,128.17,81.84,128.81,81.29ZM142,79.51c.47-.92.93-1.43.9-1.91s-.63-.75-1-1.13c-.33.44-.88.86-.93,1.32S141.48,78.66,142,79.51Zm-9.47-3.2-.56,0c-.23.5-.68,1-.62,1.48s.66.75,1,1.12c.32-.46.82-.89.88-1.38S132.8,76.73,132.54,76.31Zm5.85,5L136.91,80c-.32.41-.93.86-.89,1.23s.65.84,1,1.25Zm-6.32,50.21c-.67-.55-1.08-1.13-1.52-1.16s-1,.73-1,1.09a1.75,1.75,0,0,0,1,1.19C130.9,132.68,131.4,132,132.07,131.48Zm-6.38-9.38h.53c.24-.49.7-1,.66-1.46s-.62-.79-1-1.18c-.34.45-.89.86-1,1.34S125.42,121.66,125.69,122.1Zm-1.52-1.36-1.48-1.27c-.33.41-1,.83-.91,1.2s.62.86,1,1.28Zm36.77-3.6c-.7-.55-1.11-1.11-1.56-1.14s-1,.74-.93,1.08a1.71,1.71,0,0,0,1.05,1.16C159.78,118.32,160.27,117.67,160.94,117.14Zm-1.23,12.94h-.55c-.26.48-.75,1-.72,1.44s.64.77,1,1.15c.36-.38,1-.74,1-1.15S160,130.56,159.71,130.08Zm-14.29-18h-.52c-.26.49-.73,1-.7,1.47s.62.78,1,1.17c.34-.39.93-.76,1-1.17S145.67,112.62,145.42,112.13Zm-2,1.42-1.5-1.28c-.33.41-.94.85-.91,1.23s.63.85,1,1.27ZM163,94.23l-.53,0c-.29.43-.83.88-.79,1.27s.58.93.9,1.39c.36-.37,1-.71,1-1.12S163.17,94.73,163,94.23ZM153.15,87h-.52c-.22.51-.65,1-.6,1.53s.64.76,1,1.15c.31-.46.84-.91.88-1.39S153.43,87.45,153.15,87Zm1.27,8.59-1.37-1.25c-.37.42-1,.81-1,1.27s.57.83.89,1.25Zm3.9,2.25-.52,0c-.29.41-.85.85-.81,1.24s.59.88.92,1.32c.38-.35,1-.67,1.06-1.06S158.56,98.35,158.32,97.86Zm-.26-11.25c.48-.85,1-1.36.91-1.74s-.69-.85-1.06-1.27c-.33.46-.87.9-.93,1.4S157.5,85.83,158.06,86.61Zm-16.39,9-1.52-1.25c-.34.44-.91.87-.94,1.33s.65,1.15.93,1.11C140.6,96.74,141,96.17,141.67,95.61Zm3.15-7.11-1.47-1.34c-.33.44-.89.87-.93,1.33s.57.81.9,1.22ZM133.71,92c-.58-.51-1.08-1.18-1.31-1.1-.45.16-1,.75-1,1.15s.67.8,1,1.19ZM148,88.45l-1.5-1.28c-.32.45-.87.88-.9,1.35s.59.79.91,1.19Zm11.7-10.77L161.12,79c.37-.43.95-.82,1-1.29s-.6-1.12-.91-1.11S160.39,77.15,159.73,77.68Zm-5.21,1.41H155c.26-.44.78-.91.72-1.31s-.62-.87-1-1.3c-.35.39-1,.75-1,1.15S154.26,78.6,154.52,79.09ZM141.7,117.16c-.68-.56-1.08-1.13-1.52-1.17s-1,.73-.93,1.08a1.69,1.69,0,0,0,1,1.18C140.52,118.33,141,117.69,141.7,117.16Zm.24-23.38c.51-.83,1-1.3,1-1.69s-.62-.87-1-1.3c-.34.43-.89.83-1,1.3S141.44,93,141.94,93.78Zm-11,22-.53,0c-.28.42-.82.88-.77,1.25s.61.88.94,1.32c.37-.36,1-.7,1-1.1S131.14,116.26,130.9,115.77Zm-3.22,0-.53,0c-.27.43-.77.88-.74,1.29s.56.85.87,1.27c.37-.4.95-.76,1.05-1.21S127.92,116.21,127.68,115.77ZM145,79.1l.49,0c.24-.5.7-1,.66-1.49s-.64-.75-1-1.12c-.33.44-.87.86-.92,1.34S144.69,78.66,145,79.1Zm20.84,34.59-1.36-1.42c-.35.38-1,.77-1,1.14s.56.91.87,1.36Zm-3.21,0-1.4-1.37c-.34.39-1,.8-1,1.17s.59.9.92,1.34Zm-7.84,1.68c.5-.82,1-1.29,1-1.68s-.6-.91-.93-1.36c-.36.44-.92.84-1,1.32S154.25,114.48,154.75,115.32ZM153,113.54l-1.49-1.26c-.33.41-.94.86-.9,1.23s.65.85,1,1.26Zm-4.85,1.38h.5c.24-.49.7-1,.67-1.47s-.63-.78-1-1.17c-.34.45-.88.87-.94,1.35S147.87,114.48,148.14,114.92ZM139,112.13h-.51c-.26.44-.77.92-.71,1.32s.62.88,1,1.32c.34-.4.94-.77,1-1.18S139.27,112.62,139,112.13Zm1.14,14c.54-.85,1.08-1.31,1-1.69s-.61-.91-1-1.36c-.35.44-.9.83-1,1.31S139.66,125.22,140.15,126.09Zm-6.16-3.2-.53,0c-.23.5-.68,1-.63,1.49s.64.74,1,1.11c.32-.45.85-.87.91-1.34S134.26,123.32,134,122.89Zm12.94,0-.51,0c-.28.43-.81.88-.77,1.28s.59.89.91,1.34c.36-.37,1-.71,1-1.11S147.16,123.41,146.93,122.91Zm-19.51,3.18c.49-.87,1-1.36.92-1.74s-.64-.88-1-1.31c-.33.45-.88.87-.94,1.35S126.88,125.24,127.42,126.09Zm-3-3.2-.51,0c-.24.5-.69,1-.65,1.49s.64.74,1,1.11c.32-.44.86-.86.91-1.33S124.64,123.32,124.37,122.89Zm39.82-.78.53,0c.23-.5.68-1,.63-1.48s-.65-.76-1-1.13c-.32.45-.83.88-.89,1.36S163.92,121.68,164.19,122.11Zm-12.93,2.25L149.8,123c-.34.4-1,.82-1,1.19a1.83,1.83,0,0,0,1,1.22C150.07,125.54,150.61,124.89,151.26,124.36Zm13.41-33.71h-.52c-.26.43-.73.88-.7,1.3s.53.85.83,1.28c.38-.41,1-.77,1.07-1.23S164.92,91.1,164.67,90.65Zm-8.47,30.08-1.36-1.26c-.37.42-1,.81-1,1.27s.57.81.9,1.22Zm-4.47-1.41-.5,0c-.23.5-.67,1-.62,1.49s.65.74,1,1.1c.31-.45.82-.88.86-1.36S152,119.74,151.73,119.32Zm-3.06,0h-.52c-.27.43-.8.89-.75,1.27s.59.91.93,1.35c.35-.38.94-.73,1-1.14S148.9,119.83,148.67,119.34Zm-6.39,0-.51,0c-.28.42-.81.87-.77,1.26s.57.91.89,1.37c.36-.37,1-.71,1-1.11S142.51,119.85,142.28,119.35Zm12.11,4.94-1.31-1.24c-.36.42-1,.82-1,1.24s.65.81,1,1.21Zm-23.5-44.38-.51,0c-.28.42-.82.86-.79,1.26s.58.91.9,1.37c.36-.37,1-.7,1-1.1S131.12,80.41,130.89,79.91Zm33.7,3.58-.54,0c-.22.5-.65,1-.59,1.49s.68.7,1,1c.3-.42.82-.84.84-1.28S164.86,83.92,164.59,83.49Zm-5.15,42.58c.52-.84,1.05-1.33,1-1.71s-.66-.88-1-1.32c-.34.45-.9.86-1,1.35S158.92,125.24,159.44,126.07Zm-8.06-32.69.5,0c.23-.46.68-.94.62-1.36s-.59-.79-.92-1.19c-.35.43-.92.83-1,1.3S151.1,93,151.38,93.38Zm1.34,25.08h.53c.26-.43.73-.87.71-1.28s-.54-.85-.84-1.27c-.38.4-1,.75-1.07,1.21S152.48,118,152.72,118.46Zm11.92,8h-.56c-.23.49-.66,1-.63,1.46s.57.82.89,1.22c.36-.41,1-.8,1-1.26S164.9,126.93,164.64,126.45Zm-5.18-20c-.66-.55-1.06-1.13-1.5-1.17s-1,.72-1,1.06a1.68,1.68,0,0,0,1,1.18C158.29,107.6,158.79,107,159.46,106.44Zm-30.62,25c-.68-.54-1.09-1.12-1.52-1.13s-.95.76-.9,1.11a1.75,1.75,0,0,0,1,1.17C127.69,132.68,128.2,132,128.84,131.44ZM153,106.31c-.65-.51-1.11-1.11-1.43-1a1.49,1.49,0,0,0-.94,1.11c.06.45.67.81,1,1.21Zm-4.3-1.25-.51,0c-.28.42-.83.89-.78,1.27s.63.86,1,1.29c.33-.39.88-.75.94-1.18S148.91,105.51,148.68,105.06Zm-6.54,0-.52,0c-.23.45-.71,1-.62,1.35s.7.79,1.09,1.18c.29-.43.81-.85.83-1.29S142.42,105.45,142.14,105Zm-.45,26.45c-.68-.55-1.08-1.1-1.54-1.16-.27,0-.94.74-.9,1.09a1.73,1.73,0,0,0,1,1.19C140.52,132.69,141,132,141.69,131.48Zm2-1.38-.54,0c-.27.42-.79.87-.74,1.25s.59.9.92,1.35c.35-.38,1-.72,1-1.12S144,130.59,143.73,130.1Zm7.55,1.4c-.64-.58-1.12-1.26-1.36-1.18a1.73,1.73,0,0,0-1.07,1.14c0,.36.56,1.13.88,1.13S150.58,132,151.28,131.5Zm1.55,1.32.5,0c.23-.45.68-.94.63-1.36s-.6-.8-.93-1.19c-.35.43-.92.83-1,1.3S152.55,132.4,152.83,132.82ZM129.22,86.64c.47-.88.95-1.38.87-1.76s-.66-.85-1-1.27c-.32.46-.86.89-.91,1.38S128.66,85.82,129.22,86.64Zm34.88,16.15-1.55-1.23c-.31.41-.87.83-.87,1.24s.56.82.88,1.23ZM133.74,84.86l-1.45-1.26c-.33.41-.95.84-.92,1.22s.65.83,1,1.24Zm-6.54,19.33.49,0c.24-.5.69-1,.64-1.48s-.64-.76-1-1.14c-.33.45-.87.89-.92,1.37S126.91,103.77,127.2,104.19ZM153,84.92l-1.43-1.31c-.34.39-1,.8-.95,1.18a1.78,1.78,0,0,0,1,1.2C151.81,86.09,152.35,85.44,153,84.92Zm-9.59-.12-1.54-1.19c-.31.42-.9.87-.86,1.25A1.73,1.73,0,0,0,142.06,86C142.32,86.06,142.79,85.37,143.4,84.8Zm4.65,1.41.51,0c.27-.42.8-.87.75-1.25s-.58-.91-.91-1.37c-.35.42-.91.81-1,1.28S147.81,85.76,148.05,86.21Zm-3.23,0,.55,0c.27-.42.8-.88.75-1.26s-.6-.92-.92-1.37c-.36.38-.95.73-1,1.15S144.59,85.72,144.82,86.21Zm-19.15,14.34h.53c.24-.44.74-.93.67-1.31s-.67-.83-1-1.24c-.32.42-.85.81-.89,1.25S125.41,100.12,125.67,100.55Zm4.94-1.34c-.68-.54-1.1-1.11-1.54-1.13s-1,.75-.92,1.1a1.76,1.76,0,0,0,1,1.18C129.46,100.44,130,99.77,130.61,99.21Zm3.14,0c-.64-.52-1.05-1.09-1.48-1.11s-.94.75-.9,1.1.65.83,1,1.25Zm2-1.35h-.52c-.24.45-.7.91-.66,1.33s.57.81.89,1.21c.36-.41.93-.79,1-1.26S136,98.27,135.78,97.84Zm4.5,1.33c-.76-.54-1.19-1.08-1.63-1.08s-.86.74-.86,1.14.61,1.1.91,1.09C139.15,100.29,139.56,99.74,140.28,99.17Zm1.93-1.33h-.57c-.24.48-.69,1-.65,1.43s.64.75,1,1.12c.34-.38.93-.75.95-1.15S142.47,98.31,142.21,97.84Zm10.6-15.17.51,0c.22-.49.65-1,.59-1.48s-.64-.74-1-1.12c-.32.47-.84.91-.89,1.4S152.53,82.25,152.81,82.67Zm3.11,28.69.52,0c.27-.43.79-.9.75-1.3s-.6-.9-.93-1.35c-.34.37-.93.73-1,1.14S155.69,110.86,155.92,111.36Zm-6.09.42c.49-.86,1-1.34.93-1.74s-.62-.89-1-1.33c-.34.45-.89.87-1,1.35S149.31,110.93,149.83,111.78Zm7.81-30.51L156.23,80c-.36.43-.95.83-1,1.29s.6.79.93,1.19Zm-4.64,18L151.64,98c-.37.41-1,.79-1,1.24s.56,1,1,1.08S152.35,99.78,153,99.27Zm-26.73-8.6-.54,0c-.28.42-.81.87-.77,1.25s.59.9.92,1.34c.35-.36,1-.7,1-1.11S126.49,91.16,126.27,90.67Zm-3.71-11.58.5,0c.22-.5.65-1,.6-1.49s-.65-.74-1-1.1c-.32.45-.85.89-.89,1.36S122.27,78.67,122.56,79.09Zm15.87,52.36-1.4-1.21c-.35.43-.92.84-1,1.29a1.44,1.44,0,0,0,1,1.06C137.42,132.61,137.82,132,138.43,131.45Zm-3.06.56-.41-.74-1.12-1c-.36.41-1,.82-1,1.22a1.58,1.58,0,0,0,1,1.14C134.32,132.69,134.87,132.23,135.37,132ZM137,92l-1.54-1.16c-.31.41-.9.86-.85,1.22s.66.81,1,1.2Zm-12.82.13-1.36-1.29c-.37.41-1,.79-1,1.23s.54,1,.94,1.13S123.51,92.61,124.18,92.09Zm6.39,0c-.6-.55-1.06-1.23-1.32-1.16-.46.12-1.09.7-1.09,1.1s.58,1,1,1.17C129.44,93.25,130,92.58,130.57,92.05ZM146.62,92l-1.45-1.18c-.34.42-.92.83-1,1.28s.6.78.93,1.17Zm11,32.38L156.21,123c-.34.4-1,.82-1,1.19a1.83,1.83,0,0,0,1,1.22C156.5,125.54,157,124.87,157.67,124.35ZM156,132.83l.52,0c.23-.49.68-1,.64-1.47s-.66-.73-1-1.09c-.33.44-.87.87-.93,1.34S155.75,132.41,156,132.83ZM149.79,92c-.6-.54-1.08-1.21-1.33-1.14-.45.14-1.05.73-1.05,1.12s.64.83,1,1.24Zm-12.52,0c.67.55,1.08,1.14,1.51,1.16s1-.74.94-1.09a1.79,1.79,0,0,0-1-1.19C138.45,90.79,137.93,91.44,137.27,92Zm-11.64,39.52c-.65-.57-1-1.15-1.47-1.19s-1,.71-.94,1.06.62.87,1,1.3Zm21-25.06-1.39-1.25c-.37.41-1,.79-1,1.24s.57,1,.95,1.08S146,107,146.62,106.45Zm18.07-8.6h-.55c-.25.43-.71.88-.69,1.3s.54.83.83,1.25c.38-.35,1-.67,1.06-1.06S164.93,98.35,164.69,97.85Zm-24.42,8.56c-.73-.56-1.15-1.11-1.59-1.13s-.89.71-.89,1.11.57,1.13.88,1.12S139.53,107,140.27,106.41Zm-17.2-22.93-.52,0c-.28.43-.81.87-.78,1.27s.58.9.9,1.34c.36-.36,1-.69,1-1.09S123.29,84,123.07,83.48ZM148,100.54l.55,0c.28-.42.81-.86.76-1.24s-.58-.89-.9-1.34c-.36.37-1,.7-1,1.1S147.78,100.05,148,100.54Zm-2.51-2.69-.53,0c-.28.42-.81.87-.76,1.25s.58.91.91,1.35c.36-.37,1-.71,1-1.12S145.72,98.34,145.49,97.85Zm-21.3,1.4L122.79,98c-.36.41-1,.8-1,1.25s.58,1,1,1.07S123.53,99.77,124.19,99.25Zm-.35,19.2.52,0c.28-.42.82-.88.76-1.25s-.61-.88-1-1.32c-.33.39-.89.76-1,1.19S123.61,118,123.84,118.45Zm10.22-2.68h-.52c-.27.44-.8.93-.73,1.31s.67.83,1,1.25c.31-.42.84-.81.89-1.24S134.3,116.2,134.06,115.77Zm-4.88-11.12c-.54.81-1.09,1.26-1,1.64s.61.87,1,1.3c.36-.41.92-.79,1-1.25S129.66,105.48,129.18,104.65Zm15.7,12.43c-.7-.52-1.12-1.08-1.55-1.08s-.92.77-.87,1.12a1.65,1.65,0,0,0,1,1.12C143.78,118.31,144.24,117.64,144.88,117.08Zm1.44,1.39h.53c.26-.43.79-.91.72-1.29s-.66-.85-1-1.27c-.32.41-.86.8-.9,1.23S146.07,118,146.32,118.47Zm5-1.42c-.71-.51-1.15-1.07-1.57-1.06s-.91.79-.86,1.14a1.69,1.69,0,0,0,1.08,1.1C150.19,118.3,150.65,117.63,151.28,117.05Zm5.25-1.28H156c-.25.43-.74.88-.71,1.29s.57.85.88,1.26c.37-.35,1-.68,1.05-1.07S156.78,116.26,156.53,115.77Zm6.26-30.37-.42-.74-1.14-1.06c-.36.42-1,.84-1,1.27A1.6,1.6,0,0,0,161.28,86C161.72,86.09,162.28,85.63,162.79,85.4ZM123,105l-.53,0c-.24.45-.7.93-.65,1.34s.59.81.92,1.21c.35-.43.9-.82,1-1.29S123.21,105.46,123,105Zm17.26,15.68-1.42-1.24c-.36.43-.95.82-1,1.28s.62,1.14.91,1.12C139.15,121.82,139.55,121.25,140.21,120.71Zm20.71,1.39h.51c.26-.44.76-.92.69-1.3s-.62-.88-1-1.32c-.33.4-.91.78-.93,1.2S160.67,121.62,160.92,122.1ZM162.56,92l-1.36-1.18c-.35.42-1,.85-1,1.26s.68.79,1.06,1.18ZM140.21,84.9l-1.47-1.29c-.34.4-1,.81-.94,1.18a1.74,1.74,0,0,0,1,1.21C139,86.09,139.56,85.43,140.21,84.9Zm7.85,46.63c-.64-.57-1-1.15-1.46-1.22-.27-.05-1,.71-.95,1.06s.61.88.95,1.32ZM137,106.31l-1.45-1.11c-.32.44-.87.87-.9,1.33s.67,1,1,1S136.38,106.87,137,106.31Zm-1.71-20.1.51,0c.27-.43.79-.89.74-1.28s-.6-.9-.94-1.34c-.34.43-.88.82-1,1.29S135,85.77,135.26,86.21Zm19.18,21.52.52,0c.28-.42.82-.88.77-1.25s-.61-.89-.95-1.33c-.35.39-.91.75-1,1.18S154.21,107.27,154.44,107.73Zm8.15-1.24-1.32-1.3c-.38.41-1,.78-1,1.23s.56,1,.94,1.1S162,107,162.59,106.49Zm-6.35-7.25c-.67-.56-1.07-1.15-1.5-1.17s-1,.73-.93,1.09a1.71,1.71,0,0,0,1,1.16C155.08,100.41,155.58,99.77,156.24,99.24Zm-17.8,17.89-1.4-1.21c-.35.42-.92.82-1,1.27s.6,1,1,1S137.81,117.66,138.44,117.13Zm25.61,7.21-1.43-1.29c-.34.39-1,.81-.94,1.17s.61.86,1,1.29Zm0-7.08-1.3-1.34c-.39.39-1,.75-1.07,1.19a1.44,1.44,0,0,0,.89,1.13C163,118.3,163.41,117.73,164.07,117.26Zm-25.6,7-1.57-1.21c-.3.42-.84.84-.84,1.25s.58.8.9,1.19Zm22.78-26.84c-.53.83-1.06,1.28-1,1.66s.61.87.95,1.3c.34-.38.91-.74,1-1.16S161.73,98.32,161.25,97.43Zm-28.61,7.63-.52,0c-.28.42-.82.89-.76,1.27s.64.85,1,1.28c.32-.4.85-.77.9-1.2S132.87,105.51,132.64,105.06Zm23.57-20.19-1.48-1.26c-.33.4-.95.84-.91,1.2s.64.84,1,1.26Zm-1.12,5.8-.53,0c-.27.42-.77.87-.75,1.28s.54.86.85,1.28c.37-.4,1-.75,1.06-1.21S155.32,91.12,155.09,90.67Zm7.25,42.15h.54c.26-.43.78-.9.72-1.28s-.63-.87-1-1.3c-.34.38-.92.74-.95,1.15S162.1,132.34,162.34,132.82Z" transform="translate(225.79 139.59)"/><path d="M159.45,127.77c-.63.61-1,1.2-1.45,1.3-.27.06-1-.68-1-1s.56-1,.88-1.42Z" transform="translate(225.79 139.59)"/><path d="M160.86,88.48c-.65.53-1.07,1.12-1.52,1.15s-1-.75-.94-1.13.62-.9,1-1.34Z" transform="translate(225.79 139.59)"/><path d="M159.48,97.38c-.55-.77-1.14-1.25-1.07-1.61.09-.52.66-1,1-1.41.34.39.94.77,1,1.18S159.94,96.52,159.48,97.38Z" transform="translate(225.79 139.59)"/><path d="M159.55,101c.46,1,.92,1.47.87,2s-.68.73-1,1.1c-.33-.46-.88-.89-.93-1.38S159,101.81,159.55,101Z" transform="translate(225.79 139.59)"/><path d="M159.36,83c-.49-.81-1-1.3-1-1.68s.66-.88,1-1.31c.34.45.9.88,1,1.36S159.88,82.24,159.36,83Z" transform="translate(225.79 139.59)"/><path d="M159.45,113.51c-.63.56-1.13,1.26-1.38,1.18a1.76,1.76,0,0,1-1.09-1.18c0-.36.61-1.17.92-1.15S158.77,113,159.45,113.51Z" transform="translate(225.79 139.59)"/><path d="M157.88,118.91c.57.83,1.13,1.29,1.09,1.69s-.62.9-1,1.35c-.36-.37-1-.73-1-1.13S157.42,119.83,157.88,118.91Z" transform="translate(225.79 139.59)"/><path d="M130.6,127.8l-1.46,1.35c-.36-.43-.95-.84-1-1.31s.58-1.16.9-1.16S129.91,127.27,130.6,127.8Z" transform="translate(225.79 139.59)"/><path d="M133.74,127.87l-1.45,1.28c-.33-.45-.9-.88-.93-1.35s.6-.8.93-1.2Z" transform="translate(225.79 139.59)"/><path d="M137,128l-1.54,1.19c-.3-.47-.83-.93-.84-1.4s.61-.77,1-1.15Z" transform="translate(225.79 139.59)"/><path d="M136.72,89.87c-.26-.48-.73-1-.72-1.42s.55-.86.85-1.29c.38.41,1,.77,1.07,1.22s-.41,1-.65,1.47Z" transform="translate(225.79 139.59)"/><path d="M160.91,110.05c-.69.52-1.13,1.09-1.57,1.09s-.94-.77-.9-1.14.64-.85,1-1.28Z" transform="translate(225.79 139.59)"/><path d="M160.87,129.28c-.24-.49-.73-1-.66-1.46s.69-.82,1.06-1.22c.32.42.87.84.88,1.27s-.47,1-.74,1.44Z" transform="translate(225.79 139.59)"/><path d="M132,95.61c-.67.57-1.08,1.15-1.53,1.19-.3,0-1-.74-.94-1.11s.61-.89,1-1.33Z" transform="translate(225.79 139.59)"/><path d="M138.41,95.61,137,96.88c-.36-.43-1-.84-1-1.3s.58-.81.91-1.22Z" transform="translate(225.79 139.59)"/><path d="M129.42,76.32c.25.48.73,1,.69,1.43s-.63.8-1,1.2c-.36-.39-1-.76-1-1.18s.43-1,.68-1.45Z" transform="translate(225.79 139.59)"/><path d="M155.06,126.46c.25.49.75,1,.68,1.46s-.69.83-1.07,1.23c-.31-.42-.87-.83-.88-1.27s.47-.95.73-1.43Z" transform="translate(225.79 139.59)"/><path d="M143.64,108.57c.27.44.78.92.73,1.31s-.62.91-1,1.36c-.34-.4-.92-.77-1-1.2s.42-1,.66-1.47Z" transform="translate(225.79 139.59)"/><path d="M159.47,77.7,158,79c-.37-.43-1-.83-1-1.3s.62-1.11.94-1.09S158.79,77.16,159.47,77.7Z" transform="translate(225.79 139.59)"/><path d="M134.08,101.41c.24.49.7,1,.66,1.46s-.63.78-1,1.16c-.33-.39-.92-.77-.94-1.19s.45-1,.71-1.44Z" transform="translate(225.79 139.59)"/><path d="M132.06,102.76c-.63.57-1.11,1.27-1.37,1.19a1.73,1.73,0,0,1-1.1-1.15c-.05-.37.59-1.17.9-1.16S131.37,102.23,132.06,102.76Z" transform="translate(225.79 139.59)"/><path d="M124.42,101.4c.26.48.73,1,.7,1.44s-.6.79-.93,1.19c-.35-.38-1-.74-1-1.15s.41-1,.65-1.47Z" transform="translate(225.79 139.59)"/><path d="M145.38,126.44c.27.48.79,1,.75,1.42s-.64.86-1,1.29c-.33-.4-.9-.77-.93-1.19s.39-1,.62-1.49Z" transform="translate(225.79 139.59)"/><path d="M156.39,94.19c.28.43.81.89.77,1.28s-.57.94-.89,1.41c-.37-.38-1-.73-1-1.14s.4-1,.63-1.51Z" transform="translate(225.79 139.59)"/><path d="M151.24,95.59l-1.48,1.29c-.34-.41-1-.84-.93-1.22s.64-.87,1-1.3Z" transform="translate(225.79 139.59)"/><path d="M145.14,95.7l1.44-1.34c.35.39,1,.81,1,1.17s-.61.91-1,1.36Z" transform="translate(225.79 139.59)"/><path d="M143.67,94.21c.25.49.72,1,.68,1.47s-.63.8-1,1.2c-.34-.45-.89-.87-1-1.36s.46-.87.73-1.31Z" transform="translate(225.79 139.59)"/><path d="M124.18,128l-1.55,1.17c-.31-.42-.9-.86-.87-1.24s.63-.87,1-1.3Z" transform="translate(225.79 139.59)"/><path d="M135.17,95.64l-1.4,1.24c-.36-.44-.94-.86-1-1.32s.61-.8.95-1.2Z" transform="translate(225.79 139.59)"/><path d="M125.61,129.29c-.24-.5-.73-1-.66-1.48s.7-.8,1.08-1.2c.31.42.85.83.86,1.27s-.46,1-.72,1.42Z" transform="translate(225.79 139.59)"/><path d="M127.68,94.22c.23.5.69,1,.64,1.5s-.65.78-1,1.16c-.34-.46-.87-.89-.93-1.39s.49-.85.77-1.29Z" transform="translate(225.79 139.59)"/><path d="M124.23,97.45c-.55-.85-1.08-1.31-1-1.71s.59-.92.91-1.38c.36.38,1,.73,1,1.14S124.68,96.5,124.23,97.45Z" transform="translate(225.79 139.59)"/><path d="M159.47,92c-.66.55-1.07,1.13-1.51,1.17s-1-.73-1-1.07a1.77,1.77,0,0,1,1-1.21C158.28,90.78,158.8,91.44,159.47,92Z" transform="translate(225.79 139.59)"/><path d="M164,88.56c-.58.49-1.1,1.16-1.32,1.07-.45-.18-1-.77-1-1.18s.65-.86,1-1.28Z" transform="translate(225.79 139.59)"/><path d="M143.4,128l-1.55,1.17c-.31-.42-.9-.87-.86-1.25s.63-.86,1-1.29Z" transform="translate(225.79 139.59)"/><path d="M129.48,119.35c.23.5.67,1,.61,1.5s-.67.74-1,1.1c-.32-.46-.86-.9-.9-1.39s.53-.83.83-1.25Z" transform="translate(225.79 139.59)"/><path d="M149.82,127.78l-1.44,1.37c-.35-.43-.94-.84-1-1.29s.56-.83.88-1.25Z" transform="translate(225.79 139.59)"/><path d="M137,113.54l-1.36,1.24c-.36-.42-1-.81-1-1.26s.56-.83.88-1.25Z" transform="translate(225.79 139.59)"/><path d="M133.73,113.7l-1.46,1.09c-.32-.45-.88-.9-.89-1.37s.63-.76,1-1.14Z" transform="translate(225.79 139.59)"/><path d="M130.59,113.48c-.65.56-1,1.15-1.49,1.21-.29,0-1-.74-.95-1.1s.63-.88,1-1.32Z" transform="translate(225.79 139.59)"/><path d="M132.09,122.1c-.27-.47-.76-1-.74-1.42s.61-.8.94-1.2c.34.43.88.82,1,1.3s-.41.87-.64,1.31Z" transform="translate(225.79 139.59)"/><path d="M148.05,109.93l-1.47,1.31c-.33-.41-1-.84-.92-1.22s.62-.87,1-1.3Z" transform="translate(225.79 139.59)"/><path d="M153,127.8l-1.37,1.34c-.35-.42-1-.84-1-1.26s.64-.85,1-1.28Z" transform="translate(225.79 139.59)"/><path d="M134.14,120.73l1.46-1.26c.33.41.94.85.9,1.22s-.64.84-1,1.26Z" transform="translate(225.79 139.59)"/><path d="M138.41,109.92,137,111.23c-.33-.4-.94-.82-.91-1.2s.6-.87.93-1.31Z" transform="translate(225.79 139.59)"/><path d="M165.86,106.32l-1.51,1.27c-.32-.39-.89-.78-.89-1.17s.5-.86.79-1.3Z" transform="translate(225.79 139.59)"/><path d="M125.67,107.75c-.26-.43-.77-.9-.71-1.29s.61-.9,1-1.34c.34.44.89.85,1,1.34s-.44.86-.69,1.29Z" transform="translate(225.79 139.59)"/><path d="M146.61,120.75l-1.42,1.2c-.35-.42-.94-.82-1-1.28s.58-.8.91-1.2Z" transform="translate(225.79 139.59)"/><path d="M157.67,102.75,156.32,104c-.38-.41-1-.78-1.06-1.24s.57-.82.89-1.24Z" transform="translate(225.79 139.59)"/><path d="M146.91,101.41c.24.49.7,1,.66,1.47s-.63.78-1,1.17c-.34-.4-.92-.78-.95-1.2s.44-1,.7-1.45Z" transform="translate(225.79 139.59)"/><path d="M144.88,102.78,143.47,104c-.37-.41-1-.8-1-1.25s.57-.81.89-1.22Z" transform="translate(225.79 139.59)"/><path d="M137.15,101.39c.29.42.84.86.8,1.25s-.55.93-.86,1.4c-.36-.37-1-.7-1-1.11s.34-1,.54-1.49Z" transform="translate(225.79 139.59)"/><path d="M144.85,81.31c-.68.53-1.09,1.09-1.54,1.12-.29,0-.93-.77-.88-1.12s.65-.85,1-1.27Z" transform="translate(225.79 139.59)"/><path d="M141.64,81.25l-1.38,1.27c-.38-.41-1-.79-1.06-1.25s.57-.82.9-1.23Z" transform="translate(225.79 139.59)"/><path d="M125.61,88.54c-.7.52-1.13,1.08-1.56,1.08s-.9-.78-.86-1.16.62-.87,1-1.3Z" transform="translate(225.79 139.59)"/><path d="M127.55,87c.27.47.79,1,.75,1.4s-.62.87-1,1.31c-.34-.4-.92-.77-1-1.19s.39-1,.62-1.5Z" transform="translate(225.79 139.59)"/><path d="M130.67,86.6c.44.94.89,1.46.85,1.94s-.62.78-1,1.17c-.35-.48-.9-.93-1-1.45S130.09,87.43,130.67,86.6Z" transform="translate(225.79 139.59)"/><path d="M135.1,88.4l-1.25,1.31c-.39-.42-1.06-.82-1.07-1.24s.64-.87,1-1.3Z" transform="translate(225.79 139.59)"/><path d="M140.09,90.27c-.47-.92-1-1.45-.89-1.9s.7-.8,1.08-1.2c.31.47.82.93.87,1.43S140.65,89.44,140.09,90.27Z" transform="translate(225.79 139.59)"/><path d="M135.12,81.32l-1.32,1.19c-.37-.42-1-.84-1-1.24s.67-.82,1.05-1.23Z" transform="translate(225.79 139.59)"/><path d="M151.23,88.51l-1.51,1.2c-.32-.41-.93-.85-.89-1.23s.61-.88.95-1.32Z" transform="translate(225.79 139.59)"/><path d="M156.46,87c.26.49.75,1,.69,1.46s-.67.82-1.05,1.23c-.31-.42-.86-.82-.88-1.25s.45-1,.7-1.45Z" transform="translate(225.79 139.59)"/><path d="M127.39,77.74l-1.45,1.2c-.35-.44-.93-.85-1-1.31s.64-1.11.94-1.08S126.72,77.17,127.39,77.74Z" transform="translate(225.79 139.59)"/><path d="M134.17,77.69l1.29-1.21c.37.4,1,.8,1,1.2s-.65.84-1,1.26Z" transform="translate(225.79 139.59)"/><path d="M138.68,79.45c-.46-.83-1-1.32-.9-1.72s.66-.84,1-1.25c.33.44.88.87.93,1.34S139.21,78.67,138.68,79.45Z" transform="translate(225.79 139.59)"/><path d="M148.68,76.32c.24.49.69,1,.64,1.46s-.64.79-1,1.17c-.34-.4-.91-.79-.94-1.22s.44-1,.69-1.42Z" transform="translate(225.79 139.59)"/><path d="M148,81.39l-1.45,1.13c-.34-.44-.91-.86-.94-1.32s.61-.78,1-1.17Z" transform="translate(225.79 139.59)"/><path d="M151.23,81.3l-1.41,1.21c-.36-.42-.95-.83-1-1.28s.59-.8.92-1.2Z" transform="translate(225.79 139.59)"/><path d="M126,115.32c-.54-.82-1.08-1.28-1-1.67s.59-.93.92-1.38c.36.43.92.82,1,1.3S126.46,114.46,126,115.32Z" transform="translate(225.79 139.59)"/><path d="M124.18,113.51l-1.39,1.25c-.37-.41-1-.8-1-1.24s.56-.83.87-1.24Z" transform="translate(225.79 139.59)"/><path d="M162.84,108.57c.27.43.81.9.76,1.28s-.6.93-.94,1.38c-.34-.38-.93-.74-1-1.16s.39-1,.62-1.48Z" transform="translate(225.79 139.59)"/><path d="M154.43,110,153,111.23c-.32-.41-.94-.85-.9-1.23s.64-.86,1-1.28Z" transform="translate(225.79 139.59)"/><path d="M138.78,102.73l1.4-1.18c.36.43,1,.87,1,1.3s-.65,1-1.11,1.09C139.81,104,139.35,103.29,138.78,102.73Z" transform="translate(225.79 139.59)"/><path d="M164,81.25l-1.36,1.27c-.36-.42-1-.8-1-1.25s.57-.82.89-1.23Z" transform="translate(225.79 139.59)"/><path d="M141.66,110.05l-1.47,1.18c-.33-.45-.9-.87-.93-1.34s.61-.78,1-1.17Z" transform="translate(225.79 139.59)"/><path d="M150.09,101.41c.25.49.71,1,.68,1.47s-.62.77-1,1.15c-.35-.39-.94-.76-1-1.17s.45-1,.71-1.45Z" transform="translate(225.79 139.59)"/><path d="M154.44,102.8,153,104c-.33-.4-1-.84-.91-1.21s.65-.84,1-1.26Z" transform="translate(225.79 139.59)"/><path d="M134.14,108.59c.21.5.63,1,.57,1.49s-.63.77-1,1.15c-.33-.41-.9-.82-.92-1.24s.47-.95.74-1.43Z" transform="translate(225.79 139.59)"/><path d="M130.86,108.57c.25.48.73,1,.71,1.44s-.6.81-.92,1.22c-.38-.41-1-.79-1.06-1.23s.46-1,.72-1.44Z" transform="translate(225.79 139.59)"/><path d="M127.69,108.57c.24.5.69,1,.64,1.49s-.63.79-1,1.18c-.34-.46-.87-.89-.94-1.39s.46-.86.73-1.29Z" transform="translate(225.79 139.59)"/><path d="M123.89,111.38c-.25-.5-.71-1-.68-1.49s.62-.79,1-1.18c.34.45.89.86,1,1.35s-.46.88-.72,1.32Z" transform="translate(225.79 139.59)"/><path d="M125.56,86.2c-.22-.5-.66-1-.59-1.48s.66-.74,1-1.11c.31.46.83.9.88,1.38s-.49.83-.77,1.25Z" transform="translate(225.79 139.59)"/><path d="M151.9,76.34c.22.48.65,1,.6,1.44s-.63.78-1,1.17c-.33-.46-.87-.88-.93-1.37s.48-.84.75-1.26Z" transform="translate(225.79 139.59)"/><path d="M164.07,79.06c-.23-.49-.66-1-.61-1.48s.62-.74,1-1.11c.33.44.87.86.92,1.34s-.49.84-.76,1.27Z" transform="translate(225.79 139.59)"/><path d="M144.85,124.39c-.65.5-1.21,1.15-1.43,1.06a1.82,1.82,0,0,1-1-1.25c0-.37.62-.77,1-1.16Z" transform="translate(225.79 139.59)"/><path d="M140.23,127.88l-1.52,1.26c-.33-.4-1-.82-.92-1.19s.6-.9.94-1.34Z" transform="translate(225.79 139.59)"/><path d="M132,124.3c-.63.54-1.13,1.22-1.39,1.14a1.76,1.76,0,0,1-1.05-1.18c0-.37.59-.81.93-1.22Z" transform="translate(225.79 139.59)"/><path d="M125.61,81.3l-1.43,1.21c-.35-.42-.94-.82-1-1.27s.58-.8.9-1.21Z" transform="translate(225.79 139.59)"/><path d="M128.81,81.29c-.64.55-1.14,1.23-1.38,1.15a1.77,1.77,0,0,1-1-1.18c0-.38.58-.82.9-1.23Z" transform="translate(225.79 139.59)"/><path d="M142,79.51c-.53-.85-1-1.31-1-1.72s.6-.88.93-1.32c.35.38,1,.74,1,1.13S142.48,78.59,142,79.51Z" transform="translate(225.79 139.59)"/><path d="M132.54,76.31c.26.42.77.87.72,1.25s-.56.92-.88,1.38c-.36-.37-1-.71-1-1.12s.39-1,.62-1.48Z" transform="translate(225.79 139.59)"/><path d="M138.39,81.27,137,82.51c-.36-.41-1-.8-1-1.25s.57-.82.89-1.23Z" transform="translate(225.79 139.59)"/><path d="M132.07,131.48c-.67.54-1.17,1.2-1.44,1.12a1.75,1.75,0,0,1-1-1.19c0-.36.63-1.11,1-1.09S131.4,130.93,132.07,131.48Z" transform="translate(225.79 139.59)"/><path d="M125.69,122.1c-.27-.44-.79-.91-.73-1.3s.62-.89,1-1.34c.34.39.92.76,1,1.18s-.42,1-.66,1.46Z" transform="translate(225.79 139.59)"/><path d="M124.17,120.74,122.75,122c-.35-.42-.94-.83-1-1.28s.58-.79.91-1.2Z" transform="translate(225.79 139.59)"/><path d="M160.94,117.14c-.67.53-1.16,1.18-1.44,1.1a1.71,1.71,0,0,1-1.05-1.16c0-.34.61-1.1.93-1.08S160.24,116.59,160.94,117.14Z" transform="translate(225.79 139.59)"/><path d="M159.71,130.08c.26.48.75,1,.72,1.44s-.64.77-1,1.15c-.35-.38-1-.75-1-1.15s.46-1,.72-1.44Z" transform="translate(225.79 139.59)"/><path d="M145.42,112.13c.25.49.72,1,.7,1.47s-.62.78-1,1.17c-.34-.39-.94-.76-1-1.17s.44-1,.7-1.47Z" transform="translate(225.79 139.59)"/><path d="M143.41,113.55,142,114.77c-.36-.42-1-.82-1-1.27s.58-.82.91-1.23Z" transform="translate(225.79 139.59)"/><path d="M163,94.23c.22.5.65,1,.59,1.5s-.65.75-1,1.12c-.32-.46-.85-.9-.9-1.39s.5-.84.79-1.27Z" transform="translate(225.79 139.59)"/><path d="M153.15,87c.28.43.8.89.76,1.3s-.57.93-.88,1.39c-.36-.39-.95-.74-1-1.15s.38-1,.6-1.53Z" transform="translate(225.79 139.59)"/><path d="M154.42,95.61l-1.5,1.27c-.32-.42-.93-.87-.89-1.25s.65-.85,1-1.27Z" transform="translate(225.79 139.59)"/><path d="M158.32,97.86c.24.49.7,1,.65,1.47s-.68.71-1.06,1.06c-.33-.44-.88-.86-.92-1.32s.52-.83.81-1.24Z" transform="translate(225.79 139.59)"/><path d="M158.06,86.61c-.56-.78-1.12-1.23-1.08-1.61s.6-.94.93-1.4c.37.42,1,.79,1.06,1.27S158.54,85.76,158.06,86.61Z" transform="translate(225.79 139.59)"/><path d="M141.67,95.61c-.68.56-1.07,1.13-1.53,1.19-.28,0-.95-.73-.93-1.11s.6-.89.94-1.33Z" transform="translate(225.79 139.59)"/><path d="M144.82,88.5l-1.5,1.21c-.33-.41-.93-.84-.9-1.22s.6-.89.93-1.33Z" transform="translate(225.79 139.59)"/><path d="M133.71,92l-1.29,1.24c-.38-.39-1-.79-1-1.19s.58-1,1-1.15C132.63,90.8,133.13,91.47,133.71,92Z" transform="translate(225.79 139.59)"/><path d="M148,88.45l-1.49,1.26c-.32-.4-.93-.81-.91-1.19s.58-.9.9-1.35Z" transform="translate(225.79 139.59)"/><path d="M159.73,77.68c.66-.53,1.07-1.11,1.5-1.13s1,.77.91,1.11-.65.86-1,1.29Z" transform="translate(225.79 139.59)"/><path d="M154.52,79.09c-.26-.49-.73-1-.71-1.47s.61-.76,1-1.15c.34.43.9.83,1,1.3s-.46.87-.72,1.31Z" transform="translate(225.79 139.59)"/><path d="M141.7,117.16c-.68.53-1.18,1.17-1.45,1.09a1.69,1.69,0,0,1-1-1.18c0-.35.63-1.1.93-1.08S141,116.6,141.7,117.16Z" transform="translate(225.79 139.59)"/><path d="M141.94,93.78c-.5-.83-1-1.3-.95-1.69s.62-.87,1-1.3c.35.43.9.84,1,1.3S142.45,93,141.94,93.78Z" transform="translate(225.79 139.59)"/><path d="M130.9,115.77c.24.49.71,1,.67,1.45s-.66.74-1,1.1c-.33-.44-.88-.84-.94-1.32s.49-.83.77-1.25Z" transform="translate(225.79 139.59)"/><path d="M127.68,115.77c.24.44.73,1,.65,1.33s-.68.81-1.05,1.21c-.31-.42-.84-.83-.87-1.27s.47-.86.74-1.29Z" transform="translate(225.79 139.59)"/><path d="M145,79.1c-.27-.44-.8-.89-.76-1.29s.59-.9.92-1.34c.35.37,1,.72,1,1.12s-.42,1-.66,1.49Z" transform="translate(225.79 139.59)"/><path d="M165.8,113.69l-1.46,1.08c-.31-.45-.86-.9-.87-1.36s.62-.76,1-1.14Z" transform="translate(225.79 139.59)"/><path d="M162.59,113.64l-1.44,1.14c-.33-.44-.9-.88-.92-1.34s.62-.78,1-1.17Z" transform="translate(225.79 139.59)"/><path d="M154.75,115.32c-.5-.84-1-1.33-.95-1.72s.64-.88,1-1.32c.33.45.87.87.93,1.36S155.25,114.5,154.75,115.32Z" transform="translate(225.79 139.59)"/><path d="M153,113.54l-1.37,1.23c-.37-.41-1-.81-1-1.26s.57-.82.9-1.23Z" transform="translate(225.79 139.59)"/><path d="M148.14,114.92c-.27-.44-.8-.91-.74-1.3s.6-.9.94-1.35c.34.39.93.76,1,1.17s-.43,1-.67,1.47Z" transform="translate(225.79 139.59)"/><path d="M139,112.13c.26.49.74,1,.72,1.46s-.63.78-1,1.18c-.35-.44-.9-.84-1-1.32s.45-.88.71-1.32Z" transform="translate(225.79 139.59)"/><path d="M140.15,126.09c-.49-.87-1-1.35-.91-1.74s.64-.87,1-1.31c.34.45.88.87,1,1.36S140.69,125.24,140.15,126.09Z" transform="translate(225.79 139.59)"/><path d="M134,122.89c.27.43.79.89.75,1.28s-.59.89-.91,1.34c-.36-.37-1-.71-1-1.11s.4-1,.63-1.49Z" transform="translate(225.79 139.59)"/><path d="M146.93,122.91c.23.5.68,1,.63,1.49s-.64.74-1,1.11c-.32-.45-.86-.87-.91-1.34s.49-.85.77-1.28Z" transform="translate(225.79 139.59)"/><path d="M127.42,126.09c-.54-.85-1.07-1.32-1-1.7s.61-.9.94-1.35c.35.43.9.83,1,1.31S127.91,125.22,127.42,126.09Z" transform="translate(225.79 139.59)"/><path d="M124.37,122.89c.27.43.79.89.75,1.29s-.59.89-.91,1.33c-.36-.37-1-.72-1-1.11s.41-1,.65-1.49Z" transform="translate(225.79 139.59)"/><path d="M164.19,122.11c-.27-.43-.78-.88-.73-1.27s.57-.91.89-1.36c.35.37,1,.72,1,1.13s-.4,1-.63,1.48Z" transform="translate(225.79 139.59)"/><path d="M151.26,124.36c-.65.53-1.19,1.18-1.41,1.09a1.83,1.83,0,0,1-1-1.22c0-.37.61-.79,1-1.19Z" transform="translate(225.79 139.59)"/><path d="M164.67,90.65c.25.45.75,1,.68,1.34s-.69.82-1.07,1.23c-.3-.43-.8-.84-.83-1.28s.44-.87.7-1.3Z" transform="translate(225.79 139.59)"/><path d="M156.2,120.73,154.71,122c-.33-.41-1-.86-.9-1.22s.66-.85,1-1.27Z" transform="translate(225.79 139.59)"/><path d="M151.73,119.32c.27.42.79.87.75,1.26s-.55.91-.86,1.36c-.36-.36-1-.7-1-1.1s.39-1,.62-1.49Z" transform="translate(225.79 139.59)"/><path d="M148.67,119.34c.23.49.68,1,.64,1.47s-.63.76-1,1.14c-.34-.44-.87-.87-.93-1.35s.48-.84.75-1.27Z" transform="translate(225.79 139.59)"/><path d="M142.28,119.35c.23.5.67,1,.62,1.49s-.65.74-1,1.11c-.32-.46-.84-.89-.89-1.37s.49-.84.77-1.26Z" transform="translate(225.79 139.59)"/><path d="M154.39,124.29l-1.3,1.21c-.37-.4-1-.81-1-1.21s.65-.82,1-1.24Z" transform="translate(225.79 139.59)"/><path d="M130.89,79.91c.23.5.67,1,.62,1.5s-.66.73-1,1.1c-.32-.46-.85-.89-.9-1.37s.51-.84.79-1.26Z" transform="translate(225.79 139.59)"/><path d="M164.59,83.49c.27.43.78.87.76,1.28s-.54.86-.84,1.28c-.37-.34-1-.65-1-1s.37-1,.59-1.49Z" transform="translate(225.79 139.59)"/><path d="M159.44,126.07c-.52-.83-1.05-1.3-1-1.68s.63-.9,1-1.35c.36.44.94.84,1,1.32S160,125.23,159.44,126.07Z" transform="translate(225.79 139.59)"/><path d="M151.38,93.38c-.28-.43-.83-.89-.78-1.27s.63-.87,1-1.3c.33.4.87.76.92,1.19s-.39.9-.62,1.36Z" transform="translate(225.79 139.59)"/><path d="M152.72,118.46c-.24-.45-.75-.95-.67-1.33s.69-.81,1.07-1.21c.3.42.81.83.84,1.27s-.45.85-.71,1.28Z" transform="translate(225.79 139.59)"/><path d="M164.64,126.45c.26.48.77,1,.71,1.43s-.65.85-1,1.26c-.32-.4-.86-.79-.89-1.22s.4-1,.63-1.46Z" transform="translate(225.79 139.59)"/><path d="M159.46,106.44c-.67.52-1.17,1.16-1.45,1.07a1.68,1.68,0,0,1-1-1.18c0-.34.65-1.09,1-1.06S158.8,105.89,159.46,106.44Z" transform="translate(225.79 139.59)"/><path d="M128.84,131.44c-.64.56-1.15,1.24-1.38,1.15a1.75,1.75,0,0,1-1-1.17c0-.35.58-1.11.9-1.11S128.16,130.9,128.84,131.44Z" transform="translate(225.79 139.59)"/><path d="M153,106.31l-1.32,1.27c-.38-.4-1-.76-1-1.21a1.49,1.49,0,0,1,.94-1.11C151.87,105.2,152.33,105.8,153,106.31Z" transform="translate(225.79 139.59)"/><path d="M148.68,105.06c.23.45.68.93.63,1.35s-.61.79-.94,1.18c-.35-.43-.92-.83-1-1.29s.5-.85.78-1.27Z" transform="translate(225.79 139.59)"/><path d="M142.14,105c.28.42.79.85.78,1.27s-.54.86-.83,1.29c-.39-.39-1-.73-1.09-1.18s.39-.9.62-1.35Z" transform="translate(225.79 139.59)"/><path d="M141.69,131.48c-.66.54-1.17,1.21-1.42,1.12a1.73,1.73,0,0,1-1-1.19c0-.35.63-1.12.9-1.09C140.61,130.38,141,130.93,141.69,131.48Z" transform="translate(225.79 139.59)"/><path d="M143.73,130.1c.23.49.69,1,.64,1.46s-.65.74-1,1.12c-.33-.45-.86-.87-.92-1.35s.47-.83.74-1.25Z" transform="translate(225.79 139.59)"/><path d="M151.28,131.5c-.7.53-1.12,1.09-1.55,1.09s-.93-.77-.88-1.13a1.73,1.73,0,0,1,1.07-1.14C150.16,130.24,150.64,130.92,151.28,131.5Z" transform="translate(225.79 139.59)"/><path d="M152.83,132.82c-.28-.42-.83-.89-.78-1.27s.63-.87,1-1.3c.33.39.87.76.93,1.19s-.4.91-.63,1.36Z" transform="translate(225.79 139.59)"/><path d="M129.22,86.64c-.56-.82-1.12-1.27-1.07-1.65s.59-.92.91-1.38c.37.42.94.79,1,1.27S129.69,85.76,129.22,86.64Z" transform="translate(225.79 139.59)"/><path d="M164.1,102.79,162.56,104c-.32-.41-.88-.82-.88-1.23s.56-.83.87-1.24Z" transform="translate(225.79 139.59)"/><path d="M133.74,84.86l-1.37,1.2c-.35-.41-1-.8-1-1.24s.59-.81.92-1.22Z" transform="translate(225.79 139.59)"/><path d="M127.2,104.19c-.29-.42-.83-.88-.79-1.27s.59-.92.92-1.37c.36.38,1,.73,1,1.14s-.4,1-.64,1.48Z" transform="translate(225.79 139.59)"/><path d="M153,84.92c-.64.52-1.18,1.17-1.39,1.07a1.78,1.78,0,0,1-1-1.2c0-.38.61-.79.95-1.18Z" transform="translate(225.79 139.59)"/><path d="M143.4,84.8c-.61.57-1.08,1.26-1.34,1.19A1.73,1.73,0,0,1,141,84.86c0-.38.55-.83.86-1.25Z" transform="translate(225.79 139.59)"/><path d="M148.05,86.21c-.24-.45-.73-.94-.65-1.32s.65-.86,1-1.28c.33.46.85.88.91,1.37s-.48.83-.75,1.25Z" transform="translate(225.79 139.59)"/><path d="M144.82,86.21c-.23-.49-.67-1-.62-1.46s.64-.77,1-1.15c.32.45.85.88.92,1.37s-.48.84-.75,1.26Z" transform="translate(225.79 139.59)"/><path d="M125.67,100.55c-.26-.43-.75-.89-.72-1.3s.57-.83.89-1.25c.36.41.94.78,1,1.24s-.43.87-.67,1.31Z" transform="translate(225.79 139.59)"/><path d="M130.61,99.21c-.65.56-1.15,1.23-1.41,1.15a1.76,1.76,0,0,1-1-1.18c0-.35.61-1.12.92-1.1S129.93,98.67,130.61,99.21Z" transform="translate(225.79 139.59)"/><path d="M133.75,99.19l-1.37,1.24c-.36-.42-.95-.8-1-1.25s.6-1.12.9-1.1S133.11,98.67,133.75,99.19Z" transform="translate(225.79 139.59)"/><path d="M135.78,97.84c.26.43.78.91.72,1.29s-.65.85-1,1.26c-.32-.4-.85-.78-.89-1.21s.42-.88.66-1.33Z" transform="translate(225.79 139.59)"/><path d="M140.28,99.17c-.72.57-1.13,1.12-1.58,1.15-.3,0-.9-.7-.91-1.09s.55-1.14.86-1.14S139.52,98.63,140.28,99.17Z" transform="translate(225.79 139.59)"/><path d="M142.21,97.84c.26.47.74,1,.71,1.41s-.61.77-.95,1.15c-.34-.37-.94-.72-1-1.12s.41-1,.65-1.43Z" transform="translate(225.79 139.59)"/><path d="M152.81,82.67c-.28-.42-.82-.86-.78-1.24s.57-.93.89-1.4c.35.38.94.72,1,1.12s-.37,1-.59,1.48Z" transform="translate(225.79 139.59)"/><path d="M155.92,111.36c-.23-.5-.67-1-.63-1.49s.63-.77,1-1.14c.33.45.87.87.93,1.35s-.48.87-.75,1.3Z" transform="translate(225.79 139.59)"/><path d="M149.83,111.78c-.52-.85-1-1.32-1-1.72s.62-.9,1-1.35c.34.44.89.85,1,1.33S150.32,110.92,149.83,111.78Z" transform="translate(225.79 139.59)"/><path d="M157.64,81.27l-1.48,1.25c-.33-.4-1-.83-.93-1.19s.64-.86,1-1.29Z" transform="translate(225.79 139.59)"/><path d="M153,99.27c-.65.51-1.1,1.12-1.43,1s-1-.74-1-1.08.66-.83,1-1.24Z" transform="translate(225.79 139.59)"/><path d="M126.27,90.67c.22.49.66,1,.61,1.45s-.65.75-1,1.11c-.33-.44-.86-.86-.92-1.34s.49-.83.77-1.25Z" transform="translate(225.79 139.59)"/><path d="M122.56,79.09c-.29-.42-.82-.86-.79-1.26s.57-.91.89-1.36c.35.36,1,.7,1,1.1s-.38,1-.6,1.49Z" transform="translate(225.79 139.59)"/><path d="M138.43,131.45c-.61.54-1,1.16-1.38,1.14a1.44,1.44,0,0,1-1-1.06c0-.45.61-.86,1-1.29Z" transform="translate(225.79 139.59)"/><path d="M135.37,132c-.5.22-1.05.68-1.49.59a1.58,1.58,0,0,1-1-1.14c0-.4.65-.81,1-1.22l1.12,1Z" transform="translate(225.79 139.59)"/><path d="M137,92l-1.36,1.26c-.37-.39-1-.76-1-1.2s.54-.81.85-1.22Z" transform="translate(225.79 139.59)"/><path d="M124.18,92.09c-.67.52-1.14,1.13-1.46,1.07s-1-.77-.94-1.13.67-.82,1-1.23Z" transform="translate(225.79 139.59)"/><path d="M130.57,92.05c-.62.53-1.13,1.2-1.37,1.11-.46-.16-1-.76-1-1.17s.63-1,1.09-1.1C129.51,90.82,130,91.5,130.57,92.05Z" transform="translate(225.79 139.59)"/><path d="M146.62,92l-1.48,1.27c-.33-.39-1-.81-.93-1.17s.62-.86,1-1.28Z" transform="translate(225.79 139.59)"/><path d="M157.67,124.35c-.64.52-1.17,1.19-1.4,1.1a1.83,1.83,0,0,1-1-1.22c0-.37.61-.79,1-1.19Z" transform="translate(225.79 139.59)"/><path d="M156,132.83c-.29-.42-.83-.87-.79-1.25s.6-.9.93-1.34c.36.36,1,.7,1,1.09s-.41,1-.64,1.47Z" transform="translate(225.79 139.59)"/><path d="M149.79,92l-1.37,1.22c-.37-.41-1-.82-1-1.24s.6-1,1.05-1.12C148.71,90.81,149.19,91.48,149.79,92Z" transform="translate(225.79 139.59)"/><path d="M137.27,92c.66-.55,1.18-1.2,1.42-1.12a1.79,1.79,0,0,1,1,1.19c0,.35-.62,1.11-.94,1.09S137.94,92.54,137.27,92Z" transform="translate(225.79 139.59)"/><path d="M125.63,131.51l-1.45,1.17c-.34-.43-.91-.84-1-1.3s.64-1.09.94-1.06S125,130.94,125.63,131.51Z" transform="translate(225.79 139.59)"/><path d="M146.62,106.45c-.67.52-1.11,1.12-1.46,1.07s-1-.74-.95-1.08.65-.83,1-1.24Z" transform="translate(225.79 139.59)"/><path d="M164.69,97.85c.24.5.7,1,.65,1.48s-.68.71-1.06,1.06c-.29-.42-.8-.82-.83-1.25s.44-.87.69-1.3Z" transform="translate(225.79 139.59)"/><path d="M140.27,106.41c-.74.54-1.16,1.09-1.6,1.1s-.88-.72-.88-1.12.59-1.12.89-1.11S139.54,105.85,140.27,106.41Z" transform="translate(225.79 139.59)"/><path d="M123.07,83.48c.22.5.65,1,.6,1.49s-.64.73-1,1.09c-.32-.44-.85-.87-.9-1.34s.5-.84.78-1.27Z" transform="translate(225.79 139.59)"/><path d="M148,100.54c-.22-.49-.66-1-.61-1.45s.66-.73,1-1.1c.32.45.85.87.9,1.34s-.48.82-.76,1.24Z" transform="translate(225.79 139.59)"/><path d="M145.49,97.85c.23.49.68,1,.63,1.46s-.65.75-1,1.12c-.33-.44-.86-.87-.91-1.35s.48-.83.76-1.25Z" transform="translate(225.79 139.59)"/><path d="M124.19,99.25c-.66.52-1.1,1.12-1.44,1.07s-1-.73-1-1.07.65-.84,1-1.25Z" transform="translate(225.79 139.59)"/><path d="M123.84,118.45c-.23-.45-.69-.94-.63-1.35s.62-.8,1-1.19c.35.44.9.84,1,1.32s-.48.83-.76,1.25Z" transform="translate(225.79 139.59)"/><path d="M134.06,115.77c.24.43.72.9.68,1.31s-.58.82-.89,1.24c-.37-.42-1-.79-1-1.25s.46-.87.73-1.31Z" transform="translate(225.79 139.59)"/><path d="M129.18,104.65c.48.83,1,1.31.91,1.69s-.64.84-1,1.25c-.34-.43-.89-.84-1-1.3S128.64,105.46,129.18,104.65Z" transform="translate(225.79 139.59)"/><path d="M144.88,117.08c-.64.56-1.1,1.23-1.37,1.16a1.65,1.65,0,0,1-1-1.12c-.05-.35.55-1.12.87-1.12S144.18,116.56,144.88,117.08Z" transform="translate(225.79 139.59)"/><path d="M146.32,118.47c-.25-.45-.72-.91-.67-1.33s.58-.82.9-1.23c.36.42.93.8,1,1.27s-.46.86-.72,1.29Z" transform="translate(225.79 139.59)"/><path d="M151.28,117.05c-.63.58-1.09,1.25-1.35,1.18a1.69,1.69,0,0,1-1.08-1.1c0-.35.54-1.13.86-1.14S150.57,116.54,151.28,117.05Z" transform="translate(225.79 139.59)"/><path d="M156.53,115.77c.25.49.71,1,.66,1.47s-.68.72-1.05,1.07c-.31-.41-.84-.81-.88-1.26s.46-.86.71-1.29Z" transform="translate(225.79 139.59)"/><path d="M162.79,85.4c-.51.23-1.07.69-1.51.61a1.6,1.6,0,0,1-1.05-1.14c0-.43.64-.85,1-1.27l1.14,1.06Z" transform="translate(225.79 139.59)"/><path d="M123,105c.26.43.78.9.72,1.28s-.63.86-1,1.29c-.33-.4-.87-.78-.92-1.21s.41-.89.65-1.34Z" transform="translate(225.79 139.59)"/><path d="M140.21,120.71c-.66.54-1.06,1.11-1.51,1.16-.29,0-.95-.76-.91-1.12s.64-.85,1-1.28Z" transform="translate(225.79 139.59)"/><path d="M160.92,122.1c-.25-.48-.73-1-.7-1.43s.6-.8.93-1.2c.35.44.9.84,1,1.32s-.43.86-.69,1.3Z" transform="translate(225.79 139.59)"/><path d="M162.56,92l-1.27,1.26c-.38-.39-1.06-.78-1.06-1.18s.62-.84,1-1.26Z" transform="translate(225.79 139.59)"/><path d="M140.21,84.9c-.65.53-1.17,1.19-1.42,1.1a1.74,1.74,0,0,1-1-1.21c0-.37.6-.78.94-1.18Z" transform="translate(225.79 139.59)"/><path d="M148.06,131.53l-1.46,1.16c-.34-.44-.91-.86-.95-1.32s.68-1.11.95-1.06C147.05,130.38,147.42,131,148.06,131.53Z" transform="translate(225.79 139.59)"/><path d="M137,106.31c-.59.56-.94,1.17-1.34,1.2s-1-.65-1-1,.58-.89.9-1.33Z" transform="translate(225.79 139.59)"/><path d="M135.26,86.21c-.24-.44-.72-.92-.65-1.31s.62-.86,1-1.29c.34.44.87.86.94,1.34s-.47.85-.74,1.28Z" transform="translate(225.79 139.59)"/><path d="M154.44,107.73c-.23-.46-.7-1-.64-1.36s.63-.79,1-1.18c.34.44.88.85.95,1.33s-.49.83-.77,1.25Z" transform="translate(225.79 139.59)"/><path d="M162.59,106.49c-.62.48-1.07,1.08-1.42,1s-1-.76-.94-1.1.66-.82,1-1.23Z" transform="translate(225.79 139.59)"/><path d="M156.24,99.24c-.66.53-1.16,1.17-1.41,1.08a1.71,1.71,0,0,1-1-1.16c0-.36.61-1.1.93-1.09S155.57,98.68,156.24,99.24Z" transform="translate(225.79 139.59)"/><path d="M138.44,117.13c-.63.53-1,1.13-1.4,1.11s-1-.71-1-1,.62-.85,1-1.27Z" transform="translate(225.79 139.59)"/><path d="M164.05,124.34l-1.41,1.17c-.35-.43-.93-.84-1-1.29s.6-.78.94-1.17Z" transform="translate(225.79 139.59)"/><path d="M164.07,117.26c-.66.47-1.12,1-1.48,1a1.44,1.44,0,0,1-.89-1.13c.07-.44.68-.8,1.07-1.19Z" transform="translate(225.79 139.59)"/><path d="M138.47,124.27,137,125.5c-.32-.39-.89-.79-.9-1.19s.54-.83.84-1.25Z" transform="translate(225.79 139.59)"/><path d="M161.25,97.43c.48.89.95,1.38.9,1.8s-.62.78-1,1.16c-.34-.43-.89-.83-.95-1.3S160.72,98.26,161.25,97.43Z" transform="translate(225.79 139.59)"/><path d="M132.64,105.06c.23.45.67.92.62,1.33s-.58.8-.9,1.2c-.36-.43-.92-.81-1-1.28s.48-.85.76-1.27Z" transform="translate(225.79 139.59)"/><path d="M156.21,84.87l-1.39,1.2c-.36-.42-1-.81-1-1.26s.58-.8.91-1.2Z" transform="translate(225.79 139.59)"/><path d="M155.09,90.67c.23.45.72,1,.63,1.33s-.69.81-1.06,1.21c-.31-.42-.83-.84-.85-1.28s.48-.86.75-1.28Z" transform="translate(225.79 139.59)"/><path d="M162.34,132.82c-.24-.48-.7-1-.66-1.43s.61-.77.95-1.15c.34.43.9.82,1,1.3s-.46.85-.72,1.28Z" transform="translate(225.79 139.59)"/></g><image width="200" height="200" transform="translate(0 33.31)" xlink:href="squeegee.png"/><path d="M255.36-85.8V-85q0,3.56,0,7.11c0,.93-.22,1.16-1.07,1.46a4,4,0,0,1-2.65,0Q224.09-84.77,196.54-93c-.93-.27-1.12-.53-1.12-1.49,0-2.24,0-4.48,0-6.73a.71.71,0,0,0-.66-.85,11.52,11.52,0,0,1-1.8-.6,3.48,3.48,0,0,1-2-3.89A68.43,68.43,0,0,0,192-117c0-.55,0-1.1,0-1.65a6.16,6.16,0,0,0-1.89-4.64c-5-4.79-2.83-13.27,3.53-15.69a8.11,8.11,0,0,1,5.28-.37c3.88,1.1,7.78,2.17,11.65,3.3L251-124.17c1.69.49,3.37,1,5.07,1.43a9.73,9.73,0,0,1,6.42,13.64,12.1,12.1,0,0,1-2.19,2.85,4.79,4.79,0,0,0-1.37,3,34.58,34.58,0,0,0,.19,7.54c.22,2,.52,3.94.81,5.9a3.55,3.55,0,0,1-3.35,4Zm-5.68-36.43-.8-.25-25.19-7.39-15.77-4.58-9.32-2.68a6.3,6.3,0,0,0-3.14-.09c-5.28,1.19-7.72,7.64-4.41,11.73a2.14,2.14,0,0,0,1,.65c3.85,1.19,7.72,2.36,11.58,3.53l4.73,1.45a1.06,1.06,0,0,1,.82,1,.93.93,0,0,1-.66,1,2.28,2.28,0,0,1-1.1-.06c-4.34-1.3-8.66-2.62-13-3.94l-.62-.17c.13,1,.32,2,.37,3a57.22,57.22,0,0,1-1,12.18c-.25,1.54-.11,1.81,1.35,2.35l.43.13,49.49,14.44,2.81.81c.27-1.87.57-3.64.77-5.42a38.71,38.71,0,0,0,.32-8.67,4.22,4.22,0,0,0-1.4-3.09,7.09,7.09,0,0,1-.93-1c-2.64-3.11-2.81-6.55-1.25-10.15A9.53,9.53,0,0,1,249.68-122.23ZM255.36-88c.41,0,.75,0,1.08,0a1.32,1.32,0,0,0,1.23-1.64c-.08-.52-.17-1-.24-1.56a58.27,58.27,0,0,1-.81-11.19c.09-2.15.52-4.16,2.31-5.61a5.8,5.8,0,0,0,.47-.52,6.75,6.75,0,0,0,1.64-6.3,7.58,7.58,0,0,0-6.22-5.92,7.6,7.6,0,0,0-7.86,3.85,7.22,7.22,0,0,0,.93,8.42,10.56,10.56,0,0,0,.91,1,5.1,5.1,0,0,1,1.59,3.09,20.53,20.53,0,0,1,.26,2.46,63.43,63.43,0,0,1-1.08,12.3,1.28,1.28,0,0,0,1,1.59,7.41,7.41,0,0,0,1.34,0v-3.61c0-1.93.13-2,2.05-2,1.05,0,1.41.36,1.41,1.4C255.36-90.88,255.36-89.49,255.36-88Z" transform="translate(225.79 139.59)"/><path class="cls-1" d="M249.68-122.23a9.53,9.53,0,0,0-4.9,4.82c-1.56,3.6-1.39,7,1.25,10.15a7.09,7.09,0,0,0,.93,1,4.22,4.22,0,0,1,1.4,3.09,38.71,38.71,0,0,1-.32,8.67c-.2,1.78-.5,3.55-.77,5.42l-2.81-.81L195-104.3l-.43-.13c-1.46-.54-1.6-.81-1.35-2.35a57.22,57.22,0,0,0,1-12.18c-.05-1-.24-2-.37-3l.62.17c4.33,1.32,8.65,2.64,13,3.94a2.28,2.28,0,0,0,1.1.06.93.93,0,0,0,.66-1,1.06,1.06,0,0,0-.82-1l-4.73-1.45c-3.86-1.17-7.73-2.34-11.58-3.53a2.14,2.14,0,0,1-1-.65c-3.31-4.09-.87-10.54,4.41-11.73a6.3,6.3,0,0,1,3.14.09l9.32,2.68,15.77,4.58,25.19,7.39Z" transform="translate(225.79 139.59)"/><path class="cls-1" d="M255.36-88c0-1.49,0-2.88,0-4.28,0-1-.36-1.39-1.41-1.4-1.92,0-2.05.11-2.05,2V-88a7.41,7.41,0,0,1-1.34,0,1.28,1.28,0,0,1-1-1.59,63.43,63.43,0,0,0,1.08-12.3,20.53,20.53,0,0,0-.26-2.46,5.1,5.1,0,0,0-1.59-3.09,10.56,10.56,0,0,1-.91-1,7.22,7.22,0,0,1-.93-8.42,7.6,7.6,0,0,1,7.86-3.85,7.58,7.58,0,0,1,6.22,5.92,6.75,6.75,0,0,1-1.64,6.3,5.8,5.8,0,0,1-.47.52c-1.79,1.45-2.22,3.46-2.31,5.61a58.27,58.27,0,0,0,.81,11.19c.07.52.16,1,.24,1.56A1.32,1.32,0,0,1,256.44-88C256.11-88,255.77-88,255.36-88Z" transform="translate(225.79 139.59)"/><g id="aAHngM.tif"><path d="M41.71,28.45,35.77,23c.09-.11.17-.23.27-.33,3.22-3.54,6.42-7.1,9.67-10.61a22.87,22.87,0,0,1,32.54-1.46,1.33,1.33,0,0,1,0,1.64L69.05,22.41l-15,16.48c-.12.14-.26.27-.4.43l-5-4.56-.48.53L11.34,75.73a4.46,4.46,0,0,1-4.79,1.42A4.67,4.67,0,0,1,4.4,69.46L17.49,55.07l24-26.31Zm11.76,7L75.16,11.62l-.35-.28a19.2,19.2,0,0,0-10.28-4A19.78,19.78,0,0,0,47.67,14c-1.94,2.11-3.86,4.23-5.79,6.35l-2.25,2.47Zm-9.72-5.13-.39.42L11.26,66,6.42,71.32a1.93,1.93,0,0,0,.68,3.14,2,2,0,0,0,2.31-.68L46.32,33.22c.1-.1.17-.21.27-.33Z" transform="translate(225.79 139.59)"/><path class="cls-1" d="M53.47,35.44,39.63,22.84l2.25-2.47c1.93-2.12,3.85-4.24,5.79-6.35A19.78,19.78,0,0,1,64.53,7.36a19.2,19.2,0,0,1,10.28,4l.35.28Z" transform="translate(225.79 139.59)"/><path class="cls-1" d="M43.75,30.31l2.84,2.58c-.1.12-.17.23-.27.33L9.41,73.78a2,2,0,0,1-2.31.68,1.93,1.93,0,0,1-.68-3.14L11.26,66l32.1-35.26Z" transform="translate(225.79 139.59)"/></g></svg>