<svg id="Layer_1" data-name="Layer 1" xmlns="http://www.w3.org/2000/svg" viewBox="0 0 81 81"><defs><style>.cls-1{fill:#fff;}</style></defs><title>Artboard 1</title><g id="VO4RVh.tif"><path class="cls-1" d="M13.8,34.23V7.57l1.89-.1V.64H64.48V7.23l.68-.18a7.8,7.8,0,0,1,1,2.54c.08,7.62,0,15.24,0,22.86,0,.56-.1,1.12-.17,1.89h-6c-.19,1.61-.33,3-.52,4.39-.72,5.37-1.48,10.69-7.86,12.59-.49.14-.93,1.38-.92,2.1.08,6.66.25,13.32.43,20,.07,2.36.26,4.71.39,7.07H25.8c.42-8.93.88-17.86,1.2-26.79a7.18,7.18,0,0,0-1-4.13c-3.22-4.47-4.69-9.25-3.45-14.72,0-.11-.09-.25-.23-.59ZM48.45,16.54l-1,17.52H44.08c-.32-6.5-.63-12.84-.94-19.27H40.46l-1,19.27H36.09l-1-17.5H32.45l-1,17.5H29c-.51-4.49-1-8.83-1.52-13.16-.13-1.09-.19-2.38-2-1.41-.36,5.07-.39,10.21-1.17,15.24a17.32,17.32,0,0,0,3.17,13.74c.8,1.09,1.34,2,2.89,1.83.42,0,.92.73,1.83,1.51l-3.4.37a4.08,4.08,0,0,0,.42,1.5,7.38,7.38,0,0,0,1.47,1.09l-2,1.38c-.33,7.24-.68,14.81-1,22.37h21.3c0-8.51.06-16.88,0-25.24,0-2,.53-3.1,2.39-3.91,1.65-.72,3.94-1.64,4.43-3,1.37-3.8,1.95-7.88,2.87-12h-4v3.19l-.52.39c-.39-.42-1-.8-1.11-1.27-.27-1.68-.34-3.39-.48-5.09-.43-5-.85-10-1.28-15ZM44.85,13l.73,15.14H46q.36-6.67.73-13.34h6c.51,5.9,1,11.69,1.52,17.5h9.94V9.47H15.73V32.31h7l1.17-14.82h4.88l1.12,8.36.25,0,.63-10.94h6.08l.7,13.28H38L38.76,13Z"/></g></svg>