<svg id="Layer_1" data-name="Layer 1" xmlns="http://www.w3.org/2000/svg" viewBox="0 0 81 81"><defs><style>.cls-1{fill:#fff;}.cls-2{fill:red;}</style></defs><title>red</title><g id="ot5f3A.tif"><path d="M78.05,21.27l1.43.38a19.12,19.12,0,0,1,.88,3.72A186.93,186.93,0,0,1,79.6,52c-.21,2.08.43,4.23.4,6.35-.07,4.93-.32,9.85-.47,14.77-.14,4.69-2,6.58-6.62,6.65q-32.79.51-65.58,1c-4.79.07-7-2.13-7-6.89,0-12.69.09-25.38.12-38.08,0-4.42,0-8.84,0-13.26l.26-1a15.76,15.76,0,0,1,3.68-.88c18.83.15,37.66.39,56.48.57C66.6,21.31,72.32,21.27,78.05,21.27ZM2.55,62.08c-.1,4-.21,7.56-.28,11.17-.08,4.31,1.2,5.63,5.54,5.57q17.87-.21,35.74-.49,14.78-.22,29.57-.5c2.83,0,4.24-1.09,4.32-3.34.14-4.09.11-8.19.16-12.51ZM2.24,47.15c.92.06,1.24.09,1.56.09l68.5.57c6.56,0,6.56.07,5.64-6.57a2.34,2.34,0,0,0-.28-.55l-75-.19ZM77.59,49.6,2.77,49.23l-.09,4.38L77.59,54Zm.3,6.39L2.36,55.73l.09,4.38L78.05,60Z"/><path class="cls-1" d="M2.55,62.08,77.6,62c0,4.32,0,8.42-.16,12.51-.08,2.25-1.49,3.29-4.32,3.34q-14.79.28-29.57.5-17.88.27-35.74.49c-4.34.06-5.62-1.26-5.54-5.57C2.34,69.64,2.45,66,2.55,62.08Z"/><path class="cls-1" d="M2.24,47.15l.43-6.65,75,.19a2.34,2.34,0,0,1,.28.55c.92,6.64.92,6.62-5.64,6.57L3.8,47.24C3.48,47.24,3.16,47.21,2.24,47.15Z"/><path class="cls-1" d="M77.59,49.6V54L2.68,53.61l.09-4.38Z"/><path class="cls-1" d="M77.89,56l.16,4-75.6.13-.09-4.38Z"/></g><path class="cls-2" d="M1.9,22.44c.06,6.23-.76,7.28,1.54,9.23,1.8,1.53,5.42.8,7.62-.05s4.12-2.3,6.25-3.31a17.19,17.19,0,0,1,11.14-1.26c1.65.38,3.22,1,4.82,1.53A53.64,53.64,0,0,0,44.11,31,8.85,8.85,0,0,0,47,31c2-.4,3.52-2,5.29-3,3.6-2,8-1.65,12.14-1.21a20.84,20.84,0,0,1,6.73,1.5,4.16,4.16,0,0,0,1.74.6C74,29,74.8,28,75.42,27.11a27,27,0,0,0,3-5.05c-16.51,1-31.29-.22-47.22.17-9.08.22-18.94-.09-28.93,0"/><path class="cls-2" d="M.4,22.44c0,4.63-1,11,5.33,11.59,4,.38,7.4-1.81,10.77-3.6,6.8-3.61,12.19-1.51,19,.4,3.74,1.05,8.7,2.61,12.55,1.39,1.86-.59,3.22-2,4.94-2.88,2.81-1.44,6-1.45,9-1.22A44.41,44.41,0,0,1,71.22,30a4.45,4.45,0,0,0,2.55.22c2.91-.73,4.8-5.06,5.92-7.44a1.52,1.52,0,0,0-1.3-2.26c-25.28,1.46-50.83,0-76.15.21a1.5,1.5,0,0,0,0,3c25.32-.25,50.87,1.25,76.15-.21L77.1,21.3c-.64,1.37-2.07,4.94-3.44,5.63s-2.58-.29-3.74-.65A36.37,36.37,0,0,0,59.7,25a17,17,0,0,0-8.2,1.76c-2.09,1.11-3.27,2.65-6,2.88-2.28.2-5.18-.68-7.42-1.22-6.79-1.65-12.66-4.69-19.71-2.18C14.65,27.57,11.26,31.09,7.1,31c-5.23-.07-3.71-5.11-3.7-8.6a1.5,1.5,0,0,0-3,0Z"/></svg>