<svg id="Layer_1" data-name="Layer 1" xmlns="http://www.w3.org/2000/svg" viewBox="0 0 81 81"><defs><style>.cls-1{fill:#fff;}</style></defs><title>Artboard 1</title><g id="Ksil74"><path d="M69.53,40.64c0,10.5,0,21,0,31.5a8.28,8.28,0,0,1-.57,2.91,2.79,2.79,0,0,1-2.69,1.83c-.48,0-1,0-1.44,0H17.47c-3.21,0-4.55-1.29-4.55-4.52q0-31.95,0-63.88c0-3,1.35-4.35,4.38-4.35H65.07c3.22,0,4.46,1.25,4.46,4.55Zm-2.13-.16q0-15.9,0-31.81c0-1.29-.42-1.93-1.83-1.93q-24.33,0-48.65,0c-1.39,0-1.87.55-1.86,1.88q0,31.88,0,63.76c0,1.65.29,1.91,2,1.91q24.26,0,48.51,0c1.35,0,1.87-.53,1.86-1.89Q67.36,56.46,67.4,40.48Z"/><path class="cls-1" d="M67.4,40.48q0,16,0,32c0,1.36-.51,1.9-1.86,1.89q-24.25,0-48.51,0c-1.67,0-2-.26-2-1.91q0-31.87,0-63.76c0-1.33.47-1.89,1.86-1.88q24.32,0,48.65,0c1.41,0,1.83.64,1.83,1.93Q67.38,24.57,67.4,40.48Zm-50.69,0q0,14.75,0,29.5c0,2.06.17,2.22,2.21,2.22H63.53c2,0,2.21-.2,2.21-2.22q0-29.43,0-58.86c0-2.09-.23-2.31-2.29-2.31H19.14c-2.28,0-2.43.14-2.43,2.46Z"/><path d="M16.71,40.48V11.27c0-2.32.15-2.46,2.43-2.46H63.45c2.06,0,2.29.22,2.29,2.31q0,29.43,0,58.86c0,2-.21,2.22-2.21,2.22H18.92c-2,0-2.21-.16-2.21-2.22Q16.7,55.24,16.71,40.48Zm2.16-29c0,.58,0,1,0,1.43.14,1.3-.48,2.74.81,3.87.22.19.05,1.13-.22,1.52a6,6,0,0,0,0,5.26,2.05,2.05,0,0,1,.06,1.79,5.92,5.92,0,0,0,0,5.49,1.93,1.93,0,0,1,0,1.69,6.23,6.23,0,0,0-.11,5.54,2,2,0,0,1-.06,1.7,6.43,6.43,0,0,0,.13,5.39,2,2,0,0,1-.06,1.77,6.26,6.26,0,0,0,0,5.38A1.87,1.87,0,0,1,19.59,54a5.5,5.5,0,0,0,0,5.57c.22.34.34,1.14.15,1.3-1.3,1.09-.83,2.52-.86,3.84a2.67,2.67,0,0,0,.4,1.68c.79.86.81,1.54,0,2.31-.17.17-.38.52-.31.66s.42.31.67.37a4.1,4.1,0,0,0,.86,0l41.57-.09c.49,0,1-.06,1.79-.11-.43-.51-.75-.71-.8-1-.13-.59-.4-1.36-.15-1.8a6.14,6.14,0,0,0,0-5.51,2.11,2.11,0,0,1,.09-1.8,6.69,6.69,0,0,0,0-5.3,2,2,0,0,1,0-1.79,6.33,6.33,0,0,0,0-5.41,2.09,2.09,0,0,1,0-1.81,6.34,6.34,0,0,0,0-5.4,2,2,0,0,1,0-1.7,5.53,5.53,0,0,0,0-5.55,2,2,0,0,1,0-1.59,5.51,5.51,0,0,0-.08-5.55,2,2,0,0,1,.1-1.68,6.27,6.27,0,0,0-.06-5.43c-.24-.37-.37-1.18-.15-1.43,1.49-1.65.48-3.51.78-5.31Z"/><path class="cls-1" d="M18.87,11.46H63.55c-.3,1.8.71,3.66-.78,5.31-.22.25-.09,1.06.15,1.43A6.27,6.27,0,0,1,63,23.63a2,2,0,0,0-.1,1.68A5.51,5.51,0,0,1,63,30.86a2,2,0,0,0,0,1.59,5.53,5.53,0,0,1,0,5.55,2,2,0,0,0,0,1.7,6.34,6.34,0,0,1,0,5.4,2.09,2.09,0,0,0,0,1.81,6.33,6.33,0,0,1,0,5.41,2,2,0,0,0,0,1.79,6.69,6.69,0,0,1,0,5.3,2.11,2.11,0,0,0-.09,1.8,6.14,6.14,0,0,1,0,5.51c-.25.44,0,1.21.15,1.8.05.26.37.46.8,1-.81.05-1.3.11-1.79.11l-41.57.09a4.1,4.1,0,0,1-.86,0c-.25-.06-.58-.18-.67-.37s.14-.49.31-.66c.84-.77.82-1.45,0-2.31a2.67,2.67,0,0,1-.4-1.68c0-1.32-.44-2.75.86-3.84.19-.16.07-1-.15-1.3a5.5,5.5,0,0,1,0-5.57,1.87,1.87,0,0,0-.11-1.66,6.26,6.26,0,0,1,0-5.38,2,2,0,0,0,.06-1.77,6.43,6.43,0,0,1-.13-5.39,2,2,0,0,0,.06-1.7,6.23,6.23,0,0,1,.11-5.54,1.93,1.93,0,0,0,0-1.69,5.92,5.92,0,0,1,0-5.49,2.05,2.05,0,0,0-.06-1.79,6,6,0,0,1,0-5.26c.27-.39.44-1.33.22-1.52-1.29-1.13-.67-2.57-.81-3.87C18.83,12.47,18.87,12,18.87,11.46ZM57.2,63.83l-1.58-1.16c-.32.47-.87.94-.88,1.42s.73,1.11,1,1C56.21,65,56.57,64.44,57.2,63.83Zm1.41-39.28-1.49-1.32c-.35.44-.93.87-1,1.34s.63,1.15.94,1.13S58,25.08,58.61,24.55Zm-1.38,8.9c.46-.86.94-1.36.92-1.84s-.62-.79-1-1.19c-.37.47-.94.9-1,1.42C56.09,32.2,56.68,32.67,57.23,33.45Zm.06,3.6c-.58.83-1.14,1.28-1.1,1.67s.59.92.92,1.38c.38-.37,1-.7,1.06-1.1S57.75,38,57.29,37.05Zm-.18-18c.52-.78,1.08-1.24,1-1.63s-.62-.91-1-1.36c-.37.43-1,.83-1,1.3S56.62,18.28,57.11,19.09Zm.08,30.49c-.67-.54-1.09-1.12-1.54-1.15s-1,.79-.92,1.15a1.76,1.76,0,0,0,1.09,1.18C56.07,50.84,56.57,50.14,57.19,49.58ZM55.63,55c-.46.93-.94,1.44-.9,1.92s.66.75,1,1.13c.34-.45.9-.87,1-1.35S56.2,55.81,55.63,55Zm-27.28,8.9c-.69-.53-1.12-1.11-1.56-1.12s-.94.78-.9,1.16.64.88,1,1.31Zm3.14.07L30,62.67c-.34.4-1,.82-.93,1.2s.59.9.93,1.35Zm3.25.09-1.43-1.36c-.34.38-1,.77-1,1.14s.54.94.85,1.41Zm-.27-38.09.55,0c.24-.49.72-1,.65-1.46s-.69-.82-1.07-1.22c-.31.43-.84.85-.85,1.29S34.21,25.46,34.47,25.94ZM58.66,46.12l-1.47-1.33c-.36.42-1,.82-1,1.27s.58,1.15.91,1.15S58,46.64,58.66,46.12Zm0,19.23.54,0c.27-.47.76-1,.75-1.43s-.57-.85-.88-1.27c-.38.4-1,.77-1.06,1.21S58.37,64.86,58.61,65.35ZM29.79,31.68l-1.51-1.25c-.35.44-.93.86-1,1.33s.64,1.14.94,1.11S29.11,32.25,29.79,31.68Zm6.37,0-1.49-1.25c-.33.41-1,.85-.92,1.22s.65.87,1,1.3Zm-9-19.29h-.6c-.24.48-.72,1-.67,1.44s.64.8,1,1.19c.35-.4.94-.78,1-1.2S27.42,12.87,27.16,12.39ZM52.81,62.53l-.54,0c-.27.48-.75,1-.74,1.44s.57.85.89,1.27c.38-.41,1-.78,1.07-1.23S53.06,63,52.81,62.53ZM41.39,44.64h-.54c-.24.49-.7,1-.65,1.47s.62.8,1,1.2c.34-.45.89-.87,1-1.36S41.65,45.08,41.39,44.64ZM57.21,13.77c-.67-.54-1.09-1.12-1.53-1.14s-1,.75-1,1.09.66.87,1,1.3ZM31.82,37.48h-.54c-.26.48-.74,1-.71,1.44s.6.8.94,1.19c.35-.38.94-.75,1-1.16S32.07,38,31.82,37.48Zm-2,1.35c-.69-.53-1.12-1.11-1.57-1.12s-.95.79-.89,1.16A1.73,1.73,0,0,0,28.43,40C28.69,40.09,29.18,39.4,29.8,38.83Zm-7.63-1.36H21.6c-.24.49-.69,1-.65,1.47s.64.77,1,1.14c.33-.39.91-.77.93-1.19S22.43,38,22.17,37.47Zm21,25-.56,0c-.23.5-.67,1-.63,1.49s.61.79.94,1.19c.35-.43.94-.83,1-1.3S43.4,63,43.13,62.51Zm11-32.25-.53,0c-.23.5-.69,1-.63,1.51s.67.76,1,1.14c.32-.47.84-.92.89-1.41S54.42,30.69,54.14,30.26ZM49,31.66l-1.42-1.24c-.36.44-1,.85-1,1.31s.59.81.93,1.22Zm-6.11.1L44.34,33c.34-.45.91-.89.95-1.36s-.62-.78-1-1.17Zm-1.47-1.48h-.53c-.26.45-.78.92-.72,1.32s.62.91,1,1.36c.35-.4.94-.77,1-1.2S41.66,30.77,41.41,30.28ZM21.93,64l-1.44-1.37c-.35.43-.93.84-1,1.3s.55.82.86,1.24Zm11-32.33-1.43-1.29c-.34.41-1,.84-.95,1.2s.63.89,1,1.33ZM23.35,65.35l.56,0c.27-.47.74-1,.73-1.43s-.55-.84-.86-1.26c-.39.39-1,.75-1.08,1.2S23.11,64.86,23.35,65.35Zm2.07-35.06-.51,0c-.28.43-.82.9-.77,1.29s.59.93.92,1.39c.36-.38,1-.74,1-1.16S25.66,30.79,25.42,30.29ZM22,33.52c.45-1,.9-1.47.86-2s-.64-.76-1-1.14c-.33.46-.87.89-.92,1.37S21.43,32.67,22,33.52ZM57.22,28c-.68-.53-1.19-1.19-1.46-1.1a1.76,1.76,0,0,0-1,1.21c0,.34.66,1.09,1,1.07S56.55,28.6,57.22,28Zm4.51-3.41-1.35-1.39c-.36.42-1,.84-1,1.28s.58,1,1,1.18C60.63,25.79,61.15,25.12,61.73,24.63ZM41.15,64l-1.43-1.37c-.35.42-.94.83-1,1.29s.54.83.85,1.25ZM27.23,55.42l-.5,0c-.3.42-.87.86-.84,1.25s.59.93.91,1.39c.37-.36,1-.7,1-1.1S27.45,55.92,27.23,55.42Zm20.33,8.43L46,62.68c-.31.41-.91.86-.87,1.24s.63.87,1,1.3ZM34.72,49.6l-1.49-1.26c-.31.42-.92.87-.88,1.24s.65.85,1,1.27Zm-3.24.17-1.37-1.43c-.35.39-1,.78-1,1.15s.58.92.9,1.37Zm-3.14-.23-1.46-1.2c-.35.44-.94.85-1,1.32s.66,1.13,1,1.09C27.3,50.7,27.69,50.11,28.34,49.54Zm1.5,8.63h.51c.24-.44.71-.92.65-1.32s-.62-.86-1-1.29c-.34.4-.92.78-.94,1.19S29.57,57.69,29.84,58.17ZM45.8,46l-1.42-1.21c-.35.43-.94.84-1,1.3s.59.81.93,1.22Zm4.91,17.86-1.37-1.19c-.35.43-1,.85-1,1.27s.63.85,1,1.27ZM31.89,56.8,33.24,58c.36-.42,1-.81,1-1.26s-.58-.81-.91-1.22ZM36.15,46l-1.39-1.2c-.34.43-.91.85-.94,1.31s.59.8.92,1.2Zm27.45-3.6L62,41.19c-.29.43-.81.87-.8,1.29s.58.79.9,1.18ZM23.42,43.82h.52c.25-.43.75-.91.69-1.29s-.63-.9-1-1.34c-.33.44-.88.85-.95,1.34S23.16,43.39,23.42,43.82Zm20.93,13-1.48-1.28c-.33.4-.95.83-.92,1.2s.63.86,1,1.28Zm11.07-18-1.53-1.2c-.32.42-.93.88-.88,1.24s.68.83,1.06,1.24ZM44.65,37.47H44.1c-.26.48-.74,1-.7,1.45s.61.8.94,1.19c.35-.38.94-.75,1-1.17S44.9,38,44.65,37.47Zm-2,1.38-1.54-1.22c-.33.41-.94.85-.9,1.22s.66.84,1,1.25Zm-7.74-1.39-.52,0c-.21.5-.62,1-.55,1.49s.66.74,1,1.11c.31-.47.82-.92.86-1.41S35.18,37.88,34.89,37.46ZM42.6,17.38l-1.42-1.27c-.36.42-.94.81-1,1.27s.59,1.13.88,1.12C41.51,18.47,41.92,17.91,42.6,17.38Zm-3.21-.06L37.84,16.1c-.32.42-.94.88-.89,1.24s.68.83,1,1.25Zm-16,7.29L21.9,23.23c-.34.43-.92.84-1,1.3s.55,1.16.85,1.16S22.66,25.13,23.36,24.61Zm1.93-1.54-.54,0c-.23.5-.66,1-.62,1.5s.62.79,1,1.18c.34-.43.92-.84,1-1.3S25.57,23.55,25.29,23.07Zm3.13-.4c-.58.83-1.15,1.29-1.09,1.66.08.52.63,1,1,1.45.35-.39.93-.76,1-1.17S28.86,23.61,28.42,22.67Zm4.43,1.8-1.33-1.24c-.35.44-1,.88-1,1.31s.68.82,1.06,1.23Zm5,1.87c.55-.83,1.09-1.28,1.06-1.67s-.56-1-.87-1.43c-.39.39-1,.75-1.09,1.2S37.37,25.42,37.84,26.34Zm-5-8.95-1.28-1.28c-.38.41-1,.81-1.05,1.23s.64.82,1,1.24ZM49,24.58l-1.46-1.35c-.34.44-.91.86-1,1.32s.57.82.89,1.22Zm5.23-1.49h-.54c-.26.49-.73,1-.71,1.45s.57.83.89,1.25c.37-.41,1-.78,1-1.23S54.46,23.58,54.21,23.09ZM25.13,13.8c-.66-.56-1.05-1.14-1.49-1.18s-1,.73-.93,1.08.63.87,1,1.31Zm6.79,0L33.23,15c.37-.42,1-.84,1-1.26s-.67-.8-1-1.2Zm4.5,1.76c.54-.78,1.09-1.24,1-1.63s-.59-.9-.92-1.34c-.36.41-.94.79-1,1.25S36,14.69,36.42,15.52Zm10-3.13h-.6c-.25.47-.73,1-.69,1.42s.6.82.93,1.22c.35-.39.94-.75,1-1.17S46.66,12.88,46.43,12.39Zm-.65,5.07L44.33,16.1c-.34.39-1,.8-.95,1.17s.61.88.94,1.31Zm3.2-.09L47.5,16.1c-.33.4-1,.83-.92,1.2s.63.86,1,1.28Zm-25.24,34c.46-.86,1-1.35.89-1.75s-.65-.87-1-1.3c-.33.45-.87.89-.93,1.37S23.2,50.57,23.74,51.39Zm-1.81-1.81L20.4,48.35c-.32.41-.92.86-.88,1.24s.65.83,1,1.24Zm38.66-4.94-.53,0c-.23.49-.67,1-.63,1.48s.63.78,1,1.16c.33-.45.87-.89.93-1.38S60.86,45.07,60.59,44.64ZM52.17,46l-1.36-1.23c-.36.42-1,.82-1,1.28s.58.82.91,1.23ZM36.52,38.79c.57.57,1,1.29,1.29,1.22.46-.12,1.1-.7,1.11-1.1s-.63-.86-1-1.29ZM61.77,17.32,60.28,16.1c-.33.42-.94.87-.89,1.24s.65.83,1,1.24ZM39.41,46.12,38,44.79c-.34.39-1,.8-1,1.17s.6.89.94,1.34Zm8.42-8.64h-.54c-.25.48-.73,1-.7,1.45s.62.78,1,1.17c.34-.38.94-.75,1-1.15S48.08,38,47.83,37.48Zm4.36,1.39-1.38-1.24c-.36.42-1,.81-1,1.26s.58.8.91,1.21Zm-20.3,5.79-.59,0c-.27.48-.77,1-.75,1.43s.59.83.92,1.24c.35-.38.93-.73,1-1.15S32.1,45.16,31.89,44.66Zm-3.29,0h-.54c-.26.48-.78,1-.72,1.44s.68.82,1.05,1.23c.33-.41.9-.8.92-1.22S28.86,45.12,28.6,44.64Zm-3.16,0h-.55c-.27.43-.79.9-.74,1.29s.61.93.94,1.39c.36-.39.95-.76,1-1.18S25.68,45.14,25.44,44.64Zm-3.8,2.81h.51c.26-.44.77-.92.72-1.33s-.61-.89-.95-1.34c-.34.39-.94.77-1,1.18S21.39,47,21.64,47.45ZM23.3,22.27l.55,0c.28-.42.81-.86.77-1.25s-.57-.92-.88-1.38c-.37.37-1,.7-1,1.11S23.08,21.77,23.3,22.27ZM49.65,12.4H49.1c-.27.42-.81.88-.76,1.26s.61.91.94,1.36c.34-.38.91-.74,1-1.16S49.87,12.89,49.65,12.4Zm12.17,2.73.5,0c.28-.43.81-.88.77-1.28s-.59-.89-.92-1.33c-.34.37-.93.72-1,1.11S61.59,14.64,61.82,15.13ZM42.6,60.46l-1.44-1.35c-.35.38-1,.79-1,1.16a1.75,1.75,0,0,0,1,1.24C41.39,61.61,41.94,61,42.6,60.46ZM38,64l-1.51-1.27c-.33.44-.9.87-.93,1.34s.59.79.92,1.19Zm-8.19-3.59-1.51-1.25c-.34.41-1,.85-.93,1.22a1.72,1.72,0,0,0,1,1.18C28.66,61.59,29.16,60.91,29.79,60.36Zm-6.44-43-1.5-1.27c-.33.41-.94.84-.91,1.21s.64.85,1,1.27Zm3.21,0L25,16.1c-.33.41-.94.85-.9,1.23a1.74,1.74,0,0,0,1,1.18C25.41,18.59,25.92,17.91,26.56,17.36Zm13.2-1.78c.46-.92.93-1.43.9-1.91s-.63-.75-1-1.13c-.34.44-.89.85-.93,1.32S39.23,14.73,39.76,15.58Zm-9.47-3.2-.57,0c-.22.49-.67,1-.61,1.47s.66.76,1,1.13c.31-.46.82-.89.88-1.38S30.55,12.8,30.29,12.38Zm5.85,5L34.66,16.1c-.32.41-.93.85-.89,1.23s.65.84,1,1.25ZM29.82,67.55c-.68-.55-1.08-1.14-1.52-1.16s-1,.73-.95,1.09a1.71,1.71,0,0,0,1,1.18C28.64,68.75,29.15,68.09,29.82,67.55Zm-6.39-9.38H24c.24-.49.7-1,.66-1.46s-.62-.79-1-1.18c-.34.45-.88.86-.95,1.34S23.17,57.73,23.43,58.17Zm-1.51-1.36-1.48-1.27c-.33.4-1,.83-.92,1.2s.63.86,1,1.28ZM58.69,53.2c-.7-.54-1.12-1.1-1.56-1.13s-1,.74-.94,1.08a1.74,1.74,0,0,0,1.05,1.16C57.53,54.39,58,53.74,58.69,53.2Zm-1.24,13h-.54c-.27.48-.76,1-.72,1.43s.63.78,1,1.16c.35-.38,1-.74,1-1.15S57.72,66.63,57.45,66.15Zm-14.28-18h-.53c-.25.49-.72,1-.69,1.47s.61.78.95,1.17c.35-.39.94-.77,1-1.17S43.42,48.69,43.17,48.2Zm-2,1.42-1.5-1.28c-.33.41-.95.85-.91,1.22s.63.86,1,1.28ZM60.69,30.3l-.53,0c-.28.43-.83.88-.79,1.27s.58.93.9,1.39c.36-.37,1-.71,1-1.12S60.91,30.8,60.69,30.3ZM50.9,23.08l-.52,0c-.22.51-.66,1-.6,1.53s.64.76,1,1.14c.32-.46.84-.9.89-1.38S51.17,23.52,50.9,23.08Zm1.27,8.6L50.8,30.43c-.37.42-1,.81-1,1.27s.58.83.9,1.25Zm3.9,2.25-.52,0c-.3.41-.85.85-.81,1.23s.59.89.91,1.33c.38-.35,1-.67,1.07-1.06S56.31,34.42,56.07,33.93Zm-.26-11.25c.47-.85,1-1.36.91-1.74s-.69-.85-1.07-1.27c-.33.46-.87.9-.92,1.4S55.25,21.89,55.81,22.68Zm-16.39,9-1.53-1.25c-.33.44-.9.87-.93,1.33s.64,1.15.92,1.11C38.34,32.81,38.74,32.24,39.42,31.68Zm3.15-7.11L41.1,23.23c-.33.44-.9.87-.93,1.33s.57.81.89,1.22ZM31.46,28.05c-.58-.51-1.08-1.18-1.31-1.1-.45.16-1,.75-1,1.15s.67.79,1,1.19Zm14.32-3.53-1.5-1.28c-.33.45-.88.88-.91,1.35s.59.79.92,1.19Zm11.7-10.78L58.87,15c.36-.43,1-.82,1-1.3s-.6-1.11-.91-1.1S58.13,13.22,57.48,13.74Zm-5.22,1.41h.49c.27-.44.78-.91.73-1.31s-.62-.87-1-1.3c-.34.38-.94.75-1,1.15S52,14.66,52.26,15.15ZM39.44,53.23c-.68-.56-1.07-1.13-1.52-1.17s-1,.72-.92,1.07a1.72,1.72,0,0,0,1,1.19C38.26,54.4,38.77,53.76,39.44,53.23Zm.25-23.38c.51-.83,1-1.3,1-1.69s-.62-.87-1-1.3c-.34.43-.9.83-1,1.3S39.19,29,39.69,29.85Zm-11,22-.54,0c-.27.42-.81.88-.76,1.25s.6.88.94,1.32c.36-.36,1-.7,1-1.1S28.89,52.32,28.65,51.84Zm-3.23,0-.52,0c-.27.43-.77.88-.74,1.29s.55.85.86,1.27c.38-.4,1-.76,1.06-1.22S25.66,52.28,25.42,51.84ZM42.71,15.17l.48,0c.25-.5.71-1,.67-1.49s-.64-.75-1-1.12c-.32.44-.86.86-.91,1.34S42.43,14.73,42.71,15.17ZM63.54,49.76l-1.35-1.42c-.35.38-1,.77-1,1.14s.55.91.87,1.36Zm-3.2,0-1.4-1.37c-.35.39-1,.8-1,1.17s.59.89.92,1.34Zm-7.85,1.68c.51-.82,1-1.29,1-1.68s-.6-.91-.94-1.36c-.35.43-.91.84-1,1.32S52,50.54,52.49,51.39Zm-1.76-1.78-1.49-1.27c-.32.42-.94.86-.9,1.24s.66.84,1,1.26ZM45.89,51h.5c.24-.49.7-1,.66-1.47s-.62-.78-1-1.17c-.34.45-.89.86-1,1.35S45.62,50.55,45.89,51ZM36.75,48.2h-.5c-.26.44-.77.92-.72,1.32s.63.88,1,1.32c.35-.4,1-.77,1-1.19S37,48.69,36.75,48.2Zm1.14,14c.55-.85,1.09-1.31,1-1.69s-.61-.91-.94-1.36c-.36.43-.91.83-1,1.31S37.41,61.29,37.89,62.16ZM31.74,59l-.53,0c-.23.5-.68,1-.64,1.49s.65.74,1,1.11c.33-.45.86-.87.91-1.35S32,59.39,31.74,59Zm12.93,0-.5,0c-.28.43-.81.88-.77,1.28s.58.89.91,1.34c.35-.37,1-.72,1-1.11S44.91,59.48,44.67,59Zm-19.5,3.18c.48-.87,1-1.36.91-1.74s-.63-.88-1-1.31c-.34.45-.88.86-1,1.35S24.63,61.3,25.17,62.16ZM22.12,59l-.51,0c-.24.49-.69,1-.65,1.49s.64.74,1,1.11c.33-.44.87-.86.92-1.33S22.39,59.39,22.12,59Zm39.81-.78.53,0c.24-.5.68-1,.64-1.48s-.65-.76-1-1.13c-.32.45-.84.88-.89,1.36S61.67,57.75,61.93,58.18ZM49,60.43l-1.47-1.32c-.34.4-1,.82-.94,1.19a1.8,1.8,0,0,0,1,1.22C47.81,61.61,48.35,61,49,60.43ZM62.42,26.72h-.53c-.25.43-.73.88-.7,1.3s.54.85.84,1.27c.38-.4,1-.76,1.06-1.22S62.67,27.17,62.42,26.72ZM54,56.8l-1.37-1.26c-.37.42-1,.81-1,1.27s.58.81.91,1.21Zm-4.47-1.41-.5,0c-.23.5-.68,1-.63,1.49s.66.74,1,1.1c.31-.45.82-.88.87-1.36S49.75,55.81,49.48,55.39Zm-3.07,0H45.9c-.28.42-.8.88-.76,1.27s.6.91.93,1.35c.35-.38,1-.73,1-1.14S46.65,55.9,46.41,55.41Zm-6.39,0-.5,0c-.28.42-.81.87-.77,1.26s.57.91.88,1.37c.36-.37,1-.71,1-1.11S40.25,55.92,40,55.42Zm12.12,4.94-1.31-1.24c-.36.42-1,.82-1,1.24s.65.81,1,1.21ZM28.64,16l-.51,0c-.29.43-.83.87-.79,1.27s.57.91.89,1.37c.37-.37,1-.7,1-1.1S28.86,16.48,28.64,16Zm33.7,3.58-.54,0c-.22.51-.65,1-.59,1.5s.67.7,1,1c.3-.43.82-.84.84-1.28S62.61,20,62.34,19.56ZM57.19,62.14c.51-.84,1.05-1.33,1-1.72s-.65-.87-1-1.31c-.35.45-.9.86-1,1.35S56.67,61.31,57.19,62.14ZM49.12,29.45l.5,0c.23-.46.68-.94.63-1.36s-.6-.8-.93-1.19c-.34.43-.91.83-1,1.3S48.84,29,49.12,29.45Zm1.35,25.07.53,0c.25-.43.73-.87.7-1.28s-.53-.85-.83-1.27c-.38.4-1,.75-1.07,1.21S50.22,54.08,50.47,54.52Zm11.92,8h-.56c-.23.49-.67,1-.63,1.46s.57.82.88,1.22c.37-.41,1-.8,1-1.26S62.65,63,62.39,62.52Zm-5.18-20c-.66-.55-1.06-1.13-1.51-1.17s-1,.72-1,1.06a1.71,1.71,0,0,0,1,1.18C56,43.67,56.54,43,57.21,42.51Zm-30.62,25c-.68-.54-1.09-1.12-1.52-1.13s-.95.76-.9,1.11a1.73,1.73,0,0,0,1,1.17C25.44,68.74,25.94,68.07,26.59,67.51ZM50.73,42.38c-.65-.51-1.11-1.11-1.44-1.05s-1,.76-.93,1.11.67.81,1,1.21Zm-4.3-1.26-.51,0c-.28.42-.83.88-.78,1.27s.62.86,1,1.29c.34-.39.89-.75,1-1.18S46.66,41.58,46.43,41.12Zm-6.54,0-.52,0c-.23.45-.71,1-.62,1.35s.7.79,1.08,1.18c.3-.43.82-.85.83-1.29S40.17,41.52,39.89,41.1Zm-.45,26.45c-.68-.55-1.08-1.1-1.54-1.16-.28,0-.94.74-.9,1.09a1.74,1.74,0,0,0,1,1.19C38.26,68.76,38.78,68.09,39.44,67.55Zm2-1.38-.55,0c-.26.42-.79.87-.74,1.25s.6.9.92,1.34c.36-.37,1-.71,1-1.12S41.71,66.65,41.48,66.17ZM49,67.57c-.64-.58-1.13-1.26-1.37-1.18a1.72,1.72,0,0,0-1.06,1.14c-.05.35.56,1.13.88,1.13S48.33,68.09,49,67.57Zm1.55,1.32.5,0c.23-.46.67-.94.62-1.36s-.59-.8-.92-1.2c-.35.44-.92.84-1,1.31S50.29,68.46,50.58,68.89ZM27,22.71c.46-.88,1-1.38.87-1.77s-.66-.84-1-1.26c-.33.46-.86.89-.92,1.38S26.4,21.89,27,22.71ZM61.85,38.86,60.3,37.63c-.31.41-.87.82-.87,1.24s.56.82.88,1.23ZM31.48,20.93,30,19.67c-.33.41-.94.84-.91,1.22s.64.83,1,1.24ZM24.94,40.26l.5,0c.23-.5.69-1,.64-1.49s-.65-.75-1-1.13c-.33.45-.87.88-.92,1.37S24.66,39.83,24.94,40.26ZM50.74,21,49.3,19.67c-.34.4-1,.81-.94,1.19a1.76,1.76,0,0,0,1,1.2C49.56,22.16,50.09,21.51,50.74,21Zm-9.59-.12-1.54-1.19c-.31.42-.91.87-.86,1.25a1.7,1.7,0,0,0,1.06,1.13C40.06,22.13,40.54,21.44,41.15,20.87Zm4.65,1.41.51,0c.27-.42.79-.87.75-1.25s-.59-.92-.91-1.37c-.36.42-.91.8-1,1.28S45.56,21.83,45.8,22.28Zm-3.23,0,.55,0c.27-.42.79-.88.74-1.26s-.59-.92-.92-1.37c-.35.38-.94.73-1,1.14S42.34,21.79,42.57,22.28ZM23.41,36.62h.53c.25-.44.75-.93.67-1.31s-.66-.83-1-1.24c-.32.42-.85.81-.89,1.25S23.15,36.19,23.41,36.62Zm4.95-1.34c-.69-.54-1.1-1.12-1.54-1.13s-1,.75-.92,1.1A1.76,1.76,0,0,0,27,36.43C27.21,36.51,27.71,35.84,28.36,35.28Zm3.14,0c-.65-.52-1.05-1.09-1.48-1.11s-.95.75-.9,1.1.65.83,1,1.24Zm2-1.35H33c-.24.44-.69.91-.65,1.33s.57.81.89,1.21c.35-.42.93-.79,1-1.26S33.79,34.34,33.53,33.91ZM38,35.24c-.76-.54-1.2-1.08-1.63-1.09s-.86.75-.86,1.15.61,1.1.91,1.08S37.3,35.81,38,35.24ZM40,33.9h-.56c-.24.49-.69,1-.65,1.44s.63.75,1,1.12c.34-.39.93-.75,1-1.16S40.21,34.38,40,33.9ZM50.56,18.74l.51,0c.22-.49.64-1,.59-1.48s-.64-.75-1-1.12c-.32.47-.84.91-.9,1.4S50.27,18.32,50.56,18.74Zm3.11,28.69.52,0c.27-.44.79-.9.74-1.3s-.59-.91-.92-1.36c-.34.38-.93.74-1,1.15S53.44,46.93,53.67,47.43Zm-6.09.42c.49-.86,1-1.34.93-1.74s-.62-.89-1-1.33c-.34.45-.89.87-.95,1.35S47.06,47,47.58,47.85Zm7.81-30.51L54,16.11c-.35.42-.94.83-1,1.29s.59.79.93,1.19Zm-4.65,18-1.36-1.27c-.36.41-1,.79-1,1.23s.56,1,1,1.09S50.09,35.85,50.74,35.34ZM24,26.74l-.53,0c-.28.42-.82.87-.77,1.25s.59.9.91,1.34c.36-.36.95-.7,1-1.11S24.24,27.22,24,26.74ZM20.3,15.16l.51,0c.22-.5.65-1,.6-1.5s-.65-.73-1-1.09c-.31.45-.84.89-.88,1.36S20,14.74,20.3,15.16ZM36.18,67.52l-1.41-1.21c-.34.43-.92.84-1,1.29a1.44,1.44,0,0,0,1,1.06C35.17,68.68,35.57,68.05,36.18,67.52Zm-3.06.56-.42-.74-1.11-1c-.37.41-1,.82-1,1.22a1.61,1.61,0,0,0,1.06,1.14C32.06,68.76,32.61,68.3,33.12,68.08Zm1.63-40L33.2,26.87c-.3.41-.89.86-.84,1.22s.66.81,1,1.2Zm-12.83.13-1.35-1.29c-.38.41-1,.78-1.05,1.23a1.49,1.49,0,0,0,.94,1.13C20.79,29.29,21.26,28.68,21.92,28.16Zm6.39,0c-.59-.55-1.06-1.24-1.31-1.17-.46.13-1.09.71-1.09,1.11s.58,1,1,1.17C27.18,29.32,27.69,28.65,28.31,28.12ZM44.37,28l-1.45-1.18c-.35.43-.93.84-1,1.29s.6.78.94,1.17ZM55.42,60.42,54,59.11c-.34.4-1,.82-1,1.18a1.82,1.82,0,0,0,1,1.23C54.24,61.61,54.78,60.94,55.42,60.42ZM53.79,68.9l.52,0c.23-.49.68-1,.63-1.47s-.66-.73-1-1.09c-.33.44-.87.87-.92,1.34S53.5,68.48,53.79,68.9ZM47.53,28.09c-.6-.54-1.07-1.21-1.33-1.14-.44.14-1.05.73-1,1.12s.64.83,1,1.24ZM35,28.05c.67.56,1.07,1.14,1.51,1.17s1-.74.94-1.09a1.79,1.79,0,0,0-1-1.19C36.2,26.85,35.68,27.51,35,28.05ZM23.38,67.58c-.66-.57-1-1.15-1.48-1.19-.29,0-1,.71-.93,1.06s.61.87,1,1.3Zm21-25.06L43,41.27c-.37.41-1,.79-1,1.24s.56,1,.95,1.08S43.7,43,44.37,42.52Zm18.07-8.6h-.56c-.24.43-.71.88-.68,1.3s.53.83.83,1.25c.37-.35,1-.68,1-1.06S62.68,34.42,62.44,33.92ZM38,42.47c-.72-.55-1.14-1.1-1.58-1.12s-.89.71-.89,1.11.57,1.13.88,1.12S37.28,43,38,42.47ZM20.81,19.55l-.51,0c-.28.43-.82.87-.78,1.27s.58.9.9,1.34c.35-.36.95-.7,1-1.09S21,20.05,20.81,19.55ZM45.75,36.61l.55,0c.27-.42.8-.86.76-1.24s-.58-.89-.91-1.34c-.36.37-1,.7-1,1.1S45.52,36.12,45.75,36.61Zm-2.51-2.69-.54,0c-.27.42-.8.87-.76,1.25s.59.9.92,1.35c.36-.37,1-.71,1-1.12S43.47,34.41,43.24,33.92ZM21.93,35.31l-1.39-1.24c-.36.41-.95.8-1,1.25s.57,1,1,1.07S21.27,35.84,21.93,35.31Zm-.34,19.21.52,0c.28-.42.81-.88.76-1.26s-.62-.88-1-1.31c-.34.39-.9.75-.95,1.18S21.36,54.06,21.59,54.52ZM31.8,51.83h-.51c-.27.44-.8.93-.73,1.31s.67.83,1,1.24c.32-.41.85-.8.89-1.24S32.05,52.27,31.8,51.83ZM26.93,40.72c-.54.8-1.09,1.26-1,1.64s.61.87.95,1.3c.35-.41.92-.79,1-1.25S27.41,41.55,26.93,40.72Zm15.7,12.43c-.7-.52-1.13-1.08-1.56-1.08s-.92.76-.87,1.12a1.7,1.7,0,0,0,1,1.12C41.52,54.38,42,53.71,42.63,53.15Zm1.44,1.39h.52c.27-.43.79-.91.73-1.29s-.66-.85-1-1.27c-.32.41-.85.79-.9,1.23S43.82,54.09,44.07,54.54Zm5-1.42c-.7-.51-1.14-1.07-1.56-1.06s-.92.79-.86,1.14a1.67,1.67,0,0,0,1.08,1.1C47.93,54.37,48.39,53.7,49,53.12Zm5.26-1.28h-.56c-.26.43-.75.88-.71,1.29s.56.84.88,1.26c.37-.35,1-.68,1-1.08S54.52,52.33,54.28,51.84Zm6.25-30.37-.41-.74L59,19.67c-.36.42-1,.84-1,1.27a1.59,1.59,0,0,0,1,1.14C59.47,22.16,60,21.69,60.53,21.47ZM20.69,41.1l-.52,0c-.24.45-.7.92-.66,1.34s.6.81.93,1.21c.35-.43.9-.83,1-1.3S21,41.53,20.69,41.1ZM38,56.78l-1.42-1.24c-.36.42-.95.82-1,1.28s.62,1.14.91,1.11C36.9,57.89,37.3,57.32,38,56.78Zm20.71,1.39h.51c.25-.44.75-.92.69-1.31s-.63-.87-1-1.31c-.34.4-.91.78-.94,1.2S58.41,57.69,58.67,58.17ZM60.3,28,59,26.86c-.35.42-1,.85-1,1.26s.68.78,1.06,1.17ZM38,21l-1.48-1.29c-.33.39-1,.81-.94,1.18a1.72,1.72,0,0,0,1,1.2C36.78,22.16,37.31,21.5,38,21ZM45.81,67.6c-.64-.58-1-1.15-1.47-1.23-.27,0-1,.72-.94,1.07s.61.88,1,1.32ZM34.72,42.38l-1.45-1.11c-.33.44-.87.87-.9,1.33s.67,1,1,1S34.13,42.94,34.72,42.38ZM33,22.28l.52,0c.26-.43.79-.89.73-1.28s-.6-.9-.93-1.34c-.34.42-.89.82-1,1.29S32.77,21.84,33,22.28ZM52.19,43.8l.51,0c.28-.42.82-.88.77-1.26s-.6-.88-.94-1.32c-.35.39-.92.75-1,1.18S52,43.34,52.19,43.8Zm8.14-1.24L59,41.26c-.37.41-1,.78-1,1.23a1.45,1.45,0,0,0,1,1.09C59.27,43.64,59.71,43,60.33,42.56ZM54,35.31c-.68-.56-1.08-1.15-1.5-1.17s-1,.73-.93,1.08a1.72,1.72,0,0,0,1,1.17C52.82,36.48,53.33,35.84,54,35.31ZM36.18,53.2,34.78,52c-.34.42-.92.82-1,1.27a1.42,1.42,0,0,0,1,1C35.15,54.33,35.56,53.73,36.18,53.2ZM61.8,60.4l-1.43-1.28c-.34.39-1,.8-.95,1.17s.62.86,1,1.29Zm0-7.07L60.51,52c-.38.39-1,.75-1.07,1.19a1.47,1.47,0,0,0,.9,1.13C60.69,54.37,61.16,53.79,61.82,53.33Zm-25.6,7-1.57-1.21c-.3.42-.84.84-.84,1.25s.57.8.9,1.19ZM59,33.49c-.53.83-1.05,1.29-1,1.67s.61.87.94,1.3c.35-.39.92-.74,1-1.16S59.47,34.39,59,33.49Zm-28.6,7.64-.53,0c-.27.42-.81.89-.75,1.27s.64.85,1,1.28c.32-.4.85-.77.9-1.2S30.61,41.57,30.39,41.13ZM54,20.93l-1.47-1.25c-.33.4-.95.84-.91,1.2s.64.84,1,1.26Zm-1.11,5.81-.53,0c-.27.43-.78.88-.75,1.29s.54.86.84,1.28c.38-.4,1-.75,1.07-1.21S53.07,27.19,52.84,26.74Zm7.25,42.15h.53c.27-.43.79-.91.73-1.29s-.63-.87-1-1.3c-.33.39-.91.75-.95,1.16S59.85,68.41,60.09,68.89Z"/><path d="M57.2,63.83c-.63.61-1,1.21-1.45,1.31-.28.06-1-.68-1-1s.56-1,.88-1.42Z"/><path d="M58.61,24.55c-.66.53-1.07,1.12-1.52,1.15s-1-.75-.94-1.13.62-.9,1-1.34Z"/><path d="M57.23,33.45c-.55-.78-1.14-1.25-1.08-1.61.1-.52.67-.95,1-1.42.34.4.94.78,1,1.19S57.69,32.59,57.23,33.45Z"/><path d="M57.29,37.05c.46,1,.93,1.47.88,2s-.68.73-1.06,1.1c-.33-.46-.87-.9-.92-1.38S56.71,37.88,57.29,37.05Z"/><path d="M57.11,19.09c-.49-.81-1-1.3-1-1.69s.67-.87,1-1.3c.34.45.9.88,1,1.36S57.63,18.31,57.11,19.09Z"/><path d="M57.19,49.58c-.62.56-1.12,1.26-1.37,1.18a1.76,1.76,0,0,1-1.09-1.18c0-.36.61-1.17.92-1.15S56.52,49,57.19,49.58Z"/><path d="M55.63,55c.57.84,1.13,1.3,1.08,1.7s-.61.9-1,1.35c-.37-.38-1-.73-1-1.13S55.17,55.9,55.63,55Z"/><path d="M28.35,63.87l-1.46,1.35c-.36-.43-1-.84-1-1.31s.58-1.16.9-1.16S27.66,63.34,28.35,63.87Z"/><path d="M31.49,63.94,30,65.22c-.34-.45-.9-.89-.93-1.35s.59-.8.93-1.2Z"/><path d="M34.74,64,33.2,65.22c-.31-.47-.84-.93-.85-1.41s.62-.76,1-1.14Z"/><path d="M34.47,25.94c-.26-.48-.74-1-.72-1.42s.54-.86.85-1.29c.38.4,1,.77,1.07,1.22s-.41,1-.65,1.46Z"/><path d="M58.66,46.12c-.69.52-1.13,1.09-1.57,1.09s-1-.77-.91-1.15.65-.85,1-1.27Z"/><path d="M58.61,65.35c-.24-.49-.72-1-.65-1.47s.68-.81,1.06-1.21c.31.42.87.84.88,1.27s-.48,1-.75,1.43Z"/><path d="M29.79,31.68c-.68.57-1.08,1.15-1.53,1.19s-1-.74-.94-1.11.61-.89,1-1.33Z"/><path d="M36.16,31.68,34.77,33c-.37-.43-1-.84-1-1.3s.59-.81.92-1.22Z"/><path d="M27.16,12.39c.26.48.74,1,.7,1.43s-.63.8-1,1.2c-.35-.39-.95-.76-1-1.19s.43-1,.67-1.44Z"/><path d="M52.81,62.53c.25.49.74,1,.68,1.46s-.69.82-1.07,1.23c-.32-.42-.87-.83-.89-1.27s.47-1,.74-1.44Z"/><path d="M41.39,44.64c.26.44.78.92.72,1.31s-.61.91-1,1.36c-.34-.4-.93-.77-1-1.2s.41-1,.65-1.47Z"/><path d="M57.21,13.77,55.76,15c-.37-.43-1-.83-1-1.3s.63-1.11,1-1.09S56.54,13.23,57.21,13.77Z"/><path d="M31.82,37.48c.25.49.71,1,.67,1.46s-.63.78-1,1.16c-.34-.39-.92-.78-.94-1.19s.45-1,.71-1.44Z"/><path d="M29.8,38.83c-.62.57-1.11,1.26-1.37,1.19a1.73,1.73,0,0,1-1.09-1.15c-.06-.37.58-1.17.89-1.16S29.11,38.3,29.8,38.83Z"/><path d="M22.17,37.47c.26.48.73,1,.7,1.43s-.6.8-.93,1.19c-.35-.37-1-.73-1-1.14s.41-1,.65-1.47Z"/><path d="M43.13,62.51c.27.48.79,1,.74,1.41s-.64.87-1,1.3c-.33-.4-.9-.77-.94-1.19s.4-1,.63-1.49Z"/><path d="M54.14,30.26c.28.43.81.89.77,1.28s-.57.94-.89,1.41c-.37-.38-1-.73-1-1.14s.4-1,.63-1.51Z"/><path d="M49,31.66,47.51,33c-.34-.41-1-.84-.93-1.22s.63-.87,1-1.31Z"/><path d="M42.88,31.76l1.45-1.33c.34.39,1,.81,1,1.17s-.61.91-.95,1.36Z"/><path d="M41.41,30.28c.25.49.73,1,.69,1.47s-.63.8-1,1.2c-.34-.45-.89-.87-1-1.36s.46-.87.72-1.32Z"/><path d="M21.93,64l-1.56,1.17c-.31-.42-.9-.86-.86-1.24s.63-.87,1-1.3Z"/><path d="M32.91,31.71,31.51,33c-.35-.44-.94-.86-1-1.33s.61-.79.95-1.2Z"/><path d="M23.35,65.35c-.24-.49-.72-1-.65-1.47s.69-.81,1.08-1.2c.31.42.85.83.86,1.26s-.46,1-.73,1.43Z"/><path d="M25.42,30.29c.24.5.7,1,.65,1.5s-.65.78-1,1.16c-.33-.46-.87-.9-.92-1.39s.49-.86.77-1.29Z"/><path d="M22,33.52c-.55-.85-1.09-1.31-1.05-1.72s.59-.91.92-1.37c.35.38,1,.73,1,1.14S22.43,32.57,22,33.52Z"/><path d="M57.22,28c-.67.56-1.07,1.14-1.52,1.18s-1-.73-1-1.07a1.76,1.76,0,0,1,1-1.21C56,26.85,56.54,27.51,57.22,28Z"/><path d="M61.73,24.63c-.58.49-1.1,1.16-1.32,1.07-.46-.18-1-.77-1-1.18s.65-.86,1-1.28Z"/><path d="M41.15,64l-1.56,1.17c-.31-.42-.9-.87-.85-1.25s.63-.87,1-1.29Z"/><path d="M27.23,55.42c.22.5.67,1,.61,1.5s-.67.74-1,1.1c-.32-.46-.86-.9-.91-1.39s.54-.83.84-1.25Z"/><path d="M47.56,63.85l-1.43,1.37c-.36-.43-.94-.84-1-1.3s.56-.83.87-1.24Z"/><path d="M34.72,49.6l-1.36,1.25c-.36-.42-1-.81-1-1.27s.57-.82.88-1.24Z"/><path d="M31.48,49.77,30,50.86c-.32-.45-.88-.9-.9-1.37s.64-.76,1-1.15Z"/><path d="M28.34,49.54c-.65.57-1,1.16-1.49,1.21-.29,0-1-.73-1-1.09s.63-.88,1-1.32Z"/><path d="M29.84,58.17c-.27-.48-.76-1-.74-1.43s.6-.79.94-1.19c.34.43.88.82,1,1.29s-.41.88-.65,1.32Z"/><path d="M45.8,46l-1.47,1.31c-.34-.41-1-.84-.93-1.22s.63-.87,1-1.3Z"/><path d="M50.71,63.86l-1.37,1.35c-.36-.42-1-.84-1-1.27s.64-.84,1-1.27Z"/><path d="M31.89,56.8l1.45-1.26c.33.41.95.85.91,1.22s-.65.84-1,1.26Z"/><path d="M36.15,46,34.74,47.3c-.33-.4-.94-.82-.92-1.2s.6-.88.94-1.31Z"/><path d="M63.6,42.39l-1.5,1.27c-.32-.39-.89-.78-.9-1.18s.51-.86.8-1.29Z"/><path d="M23.42,43.82c-.26-.43-.77-.91-.72-1.29s.62-.9.95-1.34c.35.44.89.85,1,1.34s-.44.86-.69,1.29Z"/><path d="M44.35,56.82,42.93,58c-.35-.42-.94-.83-1-1.28s.59-.8.92-1.2Z"/><path d="M55.42,38.82,54.07,40.1c-.38-.41-1-.78-1.06-1.24s.56-.82.88-1.24Z"/><path d="M44.65,37.47c.25.5.71,1,.67,1.47s-.63.79-1,1.17c-.33-.39-.92-.77-.94-1.19s.44-1,.7-1.45Z"/><path d="M42.63,38.85,41.21,40.1c-.36-.41-1-.8-1-1.25s.57-.81.9-1.22Z"/><path d="M34.89,37.46c.29.42.84.85.81,1.24s-.55.94-.86,1.41c-.36-.37-1-.7-1-1.11s.34-1,.55-1.49Z"/><path d="M42.6,17.38c-.68.53-1.09,1.09-1.54,1.12-.29,0-.93-.77-.88-1.12s.64-.85,1-1.27Z"/><path d="M39.39,17.32,38,18.59c-.37-.42-1-.79-1-1.25s.57-.82.89-1.24Z"/><path d="M23.36,24.61c-.7.52-1.13,1.08-1.57,1.08s-.89-.78-.85-1.16.62-.87,1-1.3Z"/><path d="M25.29,23.07c.28.48.8,1,.76,1.41s-.62.87-1,1.3c-.34-.39-.92-.76-1-1.18s.39-1,.62-1.5Z"/><path d="M28.42,22.67c.44.94.89,1.46.85,1.94s-.62.78-1,1.17c-.34-.48-.89-.93-1-1.45C27.27,24,27.84,23.5,28.42,22.67Z"/><path d="M32.85,24.47l-1.26,1.3c-.38-.41-1.05-.81-1.06-1.23s.64-.87,1-1.31Z"/><path d="M37.84,26.34c-.47-.92-1-1.45-.9-1.9s.7-.81,1.09-1.2c.31.47.82.93.87,1.43S38.39,25.51,37.84,26.34Z"/><path d="M32.87,17.39l-1.33,1.19c-.36-.42-1-.84-1-1.24s.67-.82,1.05-1.23Z"/><path d="M49,24.58l-1.52,1.19c-.32-.4-.92-.84-.89-1.22s.61-.88,1-1.32Z"/><path d="M54.21,23.09c.25.49.75,1,.69,1.46s-.68.82-1,1.23c-.32-.42-.87-.82-.89-1.25s.45-1,.71-1.45Z"/><path d="M25.13,13.8,23.69,15c-.35-.44-.93-.85-1-1.31s.64-1.11.93-1.08S24.47,13.24,25.13,13.8Z"/><path d="M31.92,13.76l1.29-1.21c.37.4,1,.8,1,1.2s-.65.84-1,1.26Z"/><path d="M36.42,15.52c-.46-.83-1-1.32-.89-1.72s.66-.84,1-1.25c.33.44.88.87.92,1.34S37,14.74,36.42,15.52Z"/><path d="M46.43,12.39c.23.49.69,1,.63,1.46s-.64.78-1,1.17c-.33-.4-.9-.79-.93-1.22s.44-1,.69-1.42Z"/><path d="M45.78,17.46l-1.46,1.12c-.33-.43-.91-.85-.94-1.31s.61-.78.95-1.17Z"/><path d="M49,17.37l-1.42,1.21c-.35-.42-.94-.83-1-1.28s.59-.8.92-1.2Z"/><path d="M23.74,51.39c-.54-.82-1.08-1.28-1-1.68s.6-.92.93-1.37c.35.43.91.82,1,1.3S24.2,50.53,23.74,51.39Z"/><path d="M21.93,49.58l-1.4,1.25c-.36-.41-1-.8-1-1.24s.56-.83.88-1.24Z"/><path d="M60.59,44.64c.27.43.8.89.75,1.28s-.6.93-.93,1.38c-.35-.38-.93-.74-1-1.16s.4-1,.63-1.48Z"/><path d="M52.17,46,50.71,47.3c-.33-.41-.94-.86-.91-1.23s.65-.86,1-1.28Z"/><path d="M36.52,38.79l1.41-1.17c.36.43,1,.87,1,1.29s-.65,1-1.11,1.1C37.55,40.08,37.09,39.36,36.52,38.79Z"/><path d="M61.77,17.32l-1.36,1.26c-.37-.41-1-.79-1-1.24s.56-.82.89-1.24Z"/><path d="M39.41,46.12,37.94,47.3c-.34-.45-.9-.88-.94-1.34s.62-.78,1-1.17Z"/><path d="M47.83,37.48c.25.49.72,1,.68,1.47s-.62.77-1,1.15c-.34-.39-.94-.76-1-1.17s.45-1,.7-1.45Z"/><path d="M52.19,38.87,50.71,40.1c-.33-.41-1-.84-.91-1.21s.65-.84,1-1.26Z"/><path d="M31.89,44.66c.21.5.63,1,.57,1.49s-.64.77-1,1.15c-.33-.41-.9-.82-.92-1.24s.48-1,.75-1.43Z"/><path d="M28.6,44.64c.26.48.74,1,.71,1.44s-.59.81-.92,1.22c-.37-.41-1-.79-1.05-1.23s.46-1,.72-1.44Z"/><path d="M25.44,44.64c.24.5.69,1,.64,1.49s-.63.79-1,1.18c-.33-.46-.87-.89-.94-1.39s.47-.86.74-1.29Z"/><path d="M21.64,47.45c-.25-.5-.71-1-.68-1.49s.62-.79,1-1.18c.34.45.89.86.95,1.34s-.46.89-.72,1.33Z"/><path d="M23.3,22.27c-.22-.5-.65-1-.59-1.48s.66-.74,1-1.11c.31.46.83.9.88,1.38s-.49.83-.77,1.25Z"/><path d="M49.65,12.4c.22.49.65,1,.59,1.45s-.62.78-1,1.16c-.33-.45-.87-.87-.94-1.36s.49-.84.76-1.26Z"/><path d="M61.82,15.13c-.23-.49-.66-1-.62-1.48s.63-.74,1-1.11c.33.44.87.86.92,1.33s-.49.85-.77,1.28Z"/><path d="M42.6,60.46c-.66.5-1.21,1.15-1.43,1a1.75,1.75,0,0,1-1-1.24c0-.37.61-.78,1-1.16Z"/><path d="M38,64l-1.52,1.26c-.33-.4-1-.82-.92-1.19s.6-.9.93-1.34Z"/><path d="M29.79,60.36c-.63.55-1.13,1.23-1.39,1.15a1.72,1.72,0,0,1-1-1.18c0-.37.59-.81.93-1.22Z"/><path d="M23.35,17.37l-1.42,1.21c-.35-.42-.95-.82-1-1.27s.58-.8.91-1.21Z"/><path d="M26.56,17.36c-.64.55-1.15,1.23-1.38,1.15a1.74,1.74,0,0,1-1-1.18c0-.38.57-.82.9-1.23Z"/><path d="M39.76,15.58c-.53-.85-1.06-1.31-1-1.72s.59-.88.93-1.32c.35.38,1,.73,1,1.13S40.22,14.66,39.76,15.58Z"/><path d="M30.29,12.38c.26.42.77.87.72,1.25s-.57.92-.88,1.38c-.36-.37-1-.71-1-1.13s.39-1,.61-1.47Z"/><path d="M36.14,17.34l-1.36,1.24c-.36-.41-1-.8-1-1.25s.57-.82.89-1.23Z"/><path d="M29.82,67.55c-.67.54-1.18,1.2-1.44,1.11a1.71,1.71,0,0,1-1-1.18c0-.36.63-1.11.95-1.09S29.14,67,29.82,67.55Z"/><path d="M23.43,58.17c-.26-.44-.78-.91-.72-1.3s.61-.89.95-1.34c.35.39.93.76,1,1.18s-.42,1-.66,1.46Z"/><path d="M21.92,56.81,20.49,58c-.34-.42-.93-.83-1-1.28s.59-.8.92-1.2Z"/><path d="M58.69,53.2c-.67.54-1.16,1.19-1.45,1.11a1.74,1.74,0,0,1-1.05-1.16c0-.34.62-1.1.94-1.08S58,52.66,58.69,53.2Z"/><path d="M57.45,66.15c.27.48.76,1,.73,1.44s-.65.77-1,1.15c-.36-.38-1-.75-1-1.16s.45-1,.72-1.43Z"/><path d="M43.17,48.2c.25.49.72,1,.69,1.47s-.61.78-1,1.17c-.34-.39-.93-.76-.95-1.17s.44-1,.69-1.47Z"/><path d="M41.16,49.62l-1.42,1.22c-.36-.42-1-.83-1-1.28s.58-.81.91-1.22Z"/><path d="M60.69,30.3c.22.5.66,1,.6,1.5s-.66.75-1,1.12c-.32-.46-.85-.9-.9-1.39s.51-.84.79-1.27Z"/><path d="M50.9,23.08c.27.44.8.9.76,1.31s-.57.92-.89,1.38c-.35-.38-1-.73-1-1.14s.38-1,.6-1.53Z"/><path d="M52.17,31.68,50.67,33c-.32-.42-.94-.87-.9-1.25s.66-.85,1-1.27Z"/><path d="M56.07,33.93c.24.49.7,1,.65,1.47s-.69.71-1.07,1.06c-.32-.44-.87-.86-.91-1.33s.51-.82.81-1.23Z"/><path d="M55.81,22.68c-.56-.79-1.13-1.23-1.08-1.61s.59-.94.92-1.4c.38.42,1,.79,1.07,1.27S56.28,21.83,55.81,22.68Z"/><path d="M39.42,31.68c-.68.56-1.08,1.13-1.54,1.19-.28,0-1-.74-.92-1.11s.6-.89.93-1.33Z"/><path d="M42.57,24.57l-1.51,1.21c-.32-.41-.92-.84-.89-1.22s.6-.89.93-1.33Z"/><path d="M31.46,28.05l-1.3,1.24c-.37-.4-1-.79-1-1.19s.58-1,1-1.15C30.38,26.87,30.88,27.54,31.46,28.05Z"/><path d="M45.78,24.52l-1.49,1.26c-.33-.4-.94-.81-.92-1.19s.58-.9.91-1.35Z"/><path d="M57.48,13.74c.65-.52,1.06-1.1,1.5-1.12s1,.76.91,1.1-.66.87-1,1.3Z"/><path d="M52.26,15.15c-.26-.49-.73-1-.71-1.46s.62-.77,1-1.15c.35.43.91.83,1,1.3s-.46.87-.73,1.31Z"/><path d="M39.44,53.23c-.67.53-1.18,1.17-1.45,1.09a1.72,1.72,0,0,1-1-1.19c0-.35.62-1.09.92-1.07S38.76,52.67,39.44,53.23Z"/><path d="M39.69,29.85c-.5-.83-1-1.3-.95-1.69s.62-.87,1-1.3c.34.43.9.83,1,1.3S40.2,29,39.69,29.85Z"/><path d="M28.65,51.84c.24.48.71,1,.66,1.45s-.66.74-1,1.1c-.34-.44-.88-.85-.94-1.32s.49-.83.76-1.25Z"/><path d="M25.42,51.84c.24.44.74.94.66,1.32S25.4,54,25,54.38c-.31-.42-.84-.83-.86-1.27s.47-.86.74-1.29Z"/><path d="M42.71,15.17c-.28-.44-.8-.9-.76-1.29s.59-.9.91-1.34c.36.37,1,.72,1,1.12s-.42,1-.67,1.49Z"/><path d="M63.54,49.76l-1.45,1.08c-.32-.45-.86-.9-.87-1.36s.62-.76,1-1.14Z"/><path d="M60.34,49.71,58.9,50.85c-.33-.45-.9-.88-.92-1.34s.61-.78,1-1.17Z"/><path d="M52.49,51.39c-.49-.85-1-1.33-.94-1.72s.64-.89,1-1.32c.34.45.88.87.94,1.36S53,50.57,52.49,51.39Z"/><path d="M50.73,49.61l-1.37,1.23c-.36-.42-1-.81-1-1.26s.58-.82.9-1.24Z"/><path d="M45.89,51c-.27-.44-.8-.91-.75-1.3s.61-.9,1-1.35c.34.39.93.76,1,1.17s-.42,1-.66,1.47Z"/><path d="M36.75,48.2c.26.49.75,1,.72,1.45s-.62.79-1,1.19c-.34-.44-.9-.84-1-1.32s.46-.88.72-1.32Z"/><path d="M37.89,62.16c-.48-.87-1-1.36-.9-1.74s.63-.88,1-1.31c.33.45.88.87.94,1.36S38.44,61.31,37.89,62.16Z"/><path d="M31.74,59c.27.43.79.88.74,1.27s-.58.9-.91,1.35c-.35-.37-1-.71-1-1.11s.41-1,.64-1.49Z"/><path d="M44.67,59c.24.5.68,1,.64,1.49s-.65.74-1,1.11c-.33-.45-.87-.87-.91-1.34s.49-.85.77-1.28Z"/><path d="M25.17,62.16c-.54-.86-1.07-1.32-1-1.7s.61-.9,1-1.35c.35.43.9.83,1,1.31S25.65,61.29,25.17,62.16Z"/><path d="M22.12,59c.27.43.79.89.75,1.29s-.59.89-.92,1.33c-.35-.37-1-.72-1-1.11s.41-1,.65-1.49Z"/><path d="M61.93,58.18c-.26-.43-.77-.88-.72-1.27s.57-.91.89-1.36c.35.37.95.72,1,1.13s-.4,1-.64,1.48Z"/><path d="M49,60.43c-.66.53-1.2,1.18-1.41,1.09a1.8,1.8,0,0,1-1-1.22c0-.37.6-.79.94-1.19Z"/><path d="M62.42,26.72c.25.45.75,1,.67,1.34s-.68.82-1.06,1.22c-.3-.42-.81-.83-.84-1.27s.45-.87.7-1.3Z"/><path d="M54,56.8,52.46,58c-.33-.4-1-.85-.91-1.21s.66-.85,1-1.27Z"/><path d="M49.48,55.39c.27.42.79.87.75,1.26s-.56.91-.87,1.36c-.35-.36-1-.7-1-1.1s.4-1,.63-1.49Z"/><path d="M46.41,55.41c.24.49.69,1,.65,1.47s-.64.76-1,1.14c-.33-.44-.87-.87-.93-1.35s.48-.85.76-1.27Z"/><path d="M40,55.42c.23.5.68,1,.63,1.49s-.66.74-1,1.11c-.31-.46-.84-.89-.88-1.37s.49-.84.77-1.26Z"/><path d="M52.14,60.36l-1.31,1.21c-.36-.4-1-.81-1-1.21s.65-.82,1-1.24Z"/><path d="M28.64,16c.22.5.67,1,.62,1.5s-.66.73-1,1.1c-.32-.46-.85-.89-.89-1.37s.5-.84.79-1.27Z"/><path d="M62.34,19.56c.27.43.77.86.75,1.28s-.54.85-.84,1.28c-.37-.34-1-.66-1-1s.37-1,.59-1.5Z"/><path d="M57.19,62.14c-.52-.83-1.06-1.3-1-1.68s.62-.9,1-1.35c.36.44.93.83,1,1.31S57.7,61.3,57.19,62.14Z"/><path d="M49.12,29.45c-.28-.43-.83-.89-.77-1.27s.63-.87,1-1.3c.33.39.88.76.93,1.19s-.4.9-.63,1.36Z"/><path d="M50.47,54.52c-.25-.44-.75-.94-.67-1.32s.69-.81,1.07-1.21c.3.42.8.83.83,1.27s-.45.85-.7,1.28Z"/><path d="M62.39,62.52c.26.48.77,1,.71,1.43s-.65.85-1,1.26c-.31-.4-.85-.79-.88-1.22s.4-1,.63-1.46Z"/><path d="M57.21,42.51c-.67.52-1.18,1.16-1.45,1.07a1.71,1.71,0,0,1-1-1.18c0-.34.66-1.09,1-1.06S56.55,42,57.21,42.51Z"/><path d="M26.59,67.51c-.65.56-1.15,1.23-1.38,1.15a1.73,1.73,0,0,1-1-1.17c-.05-.35.58-1.11.9-1.11S25.91,67,26.59,67.51Z"/><path d="M50.73,42.38,49.4,43.65c-.37-.4-1-.77-1-1.21s.54-1,.93-1.11S50.08,41.87,50.73,42.38Z"/><path d="M46.43,41.12c.23.46.68.94.63,1.36s-.61.79-1,1.18c-.35-.43-.91-.83-1-1.29s.5-.85.78-1.27Z"/><path d="M39.89,41.1c.28.42.79.85.77,1.27s-.53.86-.83,1.29c-.38-.39-1-.73-1.08-1.18s.39-.9.62-1.35Z"/><path d="M39.44,67.55c-.66.54-1.18,1.21-1.43,1.12a1.74,1.74,0,0,1-1-1.19c0-.35.62-1.12.9-1.09C38.36,66.45,38.76,67,39.44,67.55Z"/><path d="M41.48,66.17c.23.48.68,1,.64,1.45s-.65.75-1,1.12c-.32-.44-.85-.86-.92-1.34s.48-.83.74-1.25Z"/><path d="M49,67.57c-.7.52-1.13,1.09-1.55,1.09s-.93-.78-.88-1.13a1.72,1.72,0,0,1,1.06-1.14C47.9,66.31,48.39,67,49,67.57Z"/><path d="M50.58,68.89c-.29-.43-.84-.89-.78-1.27s.63-.87,1-1.31c.33.4.87.77.92,1.2s-.39.9-.62,1.36Z"/><path d="M27,22.71c-.57-.82-1.12-1.27-1.08-1.65s.59-.92.92-1.38c.37.42.93.79,1,1.26S27.43,21.83,27,22.71Z"/><path d="M61.85,38.86,60.31,40.1c-.32-.41-.88-.82-.88-1.23s.56-.83.87-1.24Z"/><path d="M31.48,20.93l-1.36,1.2c-.36-.41-1-.8-1-1.24s.58-.81.91-1.22Z"/><path d="M24.94,40.26c-.28-.43-.83-.88-.78-1.27s.59-.92.92-1.37c.35.38,1,.73,1,1.13s-.41,1-.64,1.49Z"/><path d="M50.74,21c-.65.52-1.18,1.17-1.39,1.07a1.76,1.76,0,0,1-1-1.2c0-.38.6-.79.94-1.19Z"/><path d="M41.15,20.87c-.61.57-1.09,1.26-1.34,1.19a1.7,1.7,0,0,1-1.06-1.13c0-.38.55-.83.86-1.25Z"/><path d="M45.8,22.28c-.24-.45-.73-.94-.66-1.32s.65-.86,1-1.28c.32.45.84.88.91,1.37s-.48.83-.75,1.25Z"/><path d="M42.57,22.28c-.23-.49-.68-1-.62-1.47s.64-.76,1-1.14c.33.45.86.88.92,1.37s-.47.84-.74,1.26Z"/><path d="M23.41,36.62c-.26-.43-.75-.89-.71-1.3s.57-.83.89-1.25c.36.41.93.78,1,1.24s-.42.87-.67,1.31Z"/><path d="M28.36,35.28c-.65.56-1.15,1.23-1.41,1.15a1.76,1.76,0,0,1-1.05-1.18c0-.35.6-1.12.92-1.1S27.67,34.74,28.36,35.28Z"/><path d="M31.5,35.26l-1.37,1.23c-.36-.41-.95-.79-1-1.24s.59-1.12.9-1.1S30.85,34.74,31.5,35.26Z"/><path d="M33.53,33.91c.26.43.78.91.72,1.29s-.66.84-1,1.26c-.32-.4-.85-.78-.89-1.21s.41-.89.65-1.33Z"/><path d="M38,35.24c-.73.57-1.14,1.12-1.58,1.14s-.9-.69-.91-1.08.55-1.15.86-1.15S37.27,34.7,38,35.24Z"/><path d="M40,33.9c.26.48.74,1,.72,1.41s-.61.77-1,1.16c-.35-.37-.94-.72-1-1.12s.41-1,.65-1.44Z"/><path d="M50.56,18.74c-.29-.42-.83-.86-.79-1.24s.58-.93.9-1.4c.35.37.94.72,1,1.12s-.37,1-.59,1.48Z"/><path d="M53.67,47.43c-.23-.5-.67-1-.63-1.49s.63-.77,1-1.15c.33.45.87.88.92,1.36s-.47.86-.74,1.3Z"/><path d="M47.58,47.85c-.52-.85-1-1.32-1-1.72s.61-.9.95-1.35c.35.44.9.85,1,1.33S48.07,47,47.58,47.85Z"/><path d="M55.39,17.34l-1.48,1.25c-.34-.4-1-.84-.93-1.19s.64-.87,1-1.29Z"/><path d="M50.74,35.34c-.65.51-1.1,1.11-1.42,1s-1-.74-1-1.09.66-.82,1-1.23Z"/><path d="M24,26.74c.23.48.67,1,.61,1.45s-.64.75-1,1.11c-.32-.44-.85-.87-.91-1.34s.49-.83.77-1.25Z"/><path d="M20.3,15.16c-.28-.42-.82-.86-.78-1.26s.57-.91.88-1.36c.36.36,1,.7,1,1.09s-.38,1-.6,1.5Z"/><path d="M36.18,67.52c-.61.53-1,1.16-1.39,1.14a1.44,1.44,0,0,1-1-1.06c0-.45.61-.86,1-1.29Z"/><path d="M33.12,68.08c-.51.22-1.06.68-1.49.59a1.61,1.61,0,0,1-1.06-1.14c0-.4.65-.81,1-1.22l1.11,1Z"/><path d="M34.75,28l-1.36,1.26c-.37-.39-1-.76-1-1.2s.54-.81.84-1.22Z"/><path d="M21.92,28.16c-.66.52-1.13,1.13-1.46,1.07a1.49,1.49,0,0,1-.94-1.13c.06-.45.67-.82,1.05-1.23Z"/><path d="M28.31,28.12c-.62.53-1.13,1.2-1.37,1.11-.45-.16-1-.76-1-1.17s.63-1,1.09-1.11C27.25,26.88,27.72,27.57,28.31,28.12Z"/><path d="M44.37,28l-1.48,1.28c-.34-.39-1-.81-.94-1.17s.62-.86,1-1.29Z"/><path d="M55.42,60.42c-.64.52-1.18,1.19-1.4,1.1a1.82,1.82,0,0,1-1-1.23c0-.36.61-.78,1-1.18Z"/><path d="M53.79,68.9C53.5,68.48,53,68,53,67.65s.59-.9.92-1.34c.36.36,1,.7,1,1.09s-.4,1-.63,1.47Z"/><path d="M47.53,28.09l-1.37,1.22c-.36-.41-1-.82-1-1.24s.6-1,1-1.12C46.46,26.88,46.93,27.55,47.53,28.09Z"/><path d="M35,28.05c.66-.54,1.18-1.2,1.42-1.11a1.79,1.79,0,0,1,1,1.19c0,.35-.63,1.11-.94,1.09S35.69,28.61,35,28.05Z"/><path d="M23.38,67.58l-1.45,1.17c-.35-.43-.92-.84-1-1.3s.64-1.09.93-1.06C22.34,66.43,22.72,67,23.38,67.58Z"/><path d="M44.37,42.52c-.67.52-1.11,1.11-1.46,1.07s-1-.74-.95-1.08.65-.83,1-1.24Z"/><path d="M62.44,33.92c.24.5.69,1,.64,1.48s-.68.71-1,1.06c-.3-.42-.8-.82-.83-1.25s.44-.87.68-1.3Z"/><path d="M38,42.47c-.73.55-1.15,1.1-1.59,1.11s-.88-.72-.88-1.12.59-1.13.89-1.11S37.29,41.92,38,42.47Z"/><path d="M20.81,19.55c.23.5.66,1,.61,1.49s-.65.73-1,1.09c-.32-.44-.85-.87-.9-1.34s.5-.84.78-1.27Z"/><path d="M45.75,36.61c-.23-.49-.67-1-.61-1.45s.65-.73,1-1.1c.33.45.85.87.91,1.34s-.49.82-.76,1.24Z"/><path d="M43.24,33.92c.23.49.68,1,.63,1.46s-.65.75-1,1.12c-.33-.45-.86-.87-.92-1.35s.49-.83.76-1.25Z"/><path d="M21.93,35.31c-.66.53-1.1,1.13-1.43,1.08s-1-.73-1-1.07.65-.84,1-1.25Z"/><path d="M21.59,54.52c-.23-.46-.69-.94-.63-1.36s.61-.79.95-1.18c.34.43.89.84,1,1.31s-.48.84-.76,1.26Z"/><path d="M31.8,51.83c.25.44.72.9.68,1.31s-.57.83-.89,1.24c-.36-.41-.95-.78-1-1.24s.46-.87.73-1.31Z"/><path d="M26.93,40.72c.48.83,1,1.31.91,1.69s-.65.84-1,1.25c-.34-.43-.89-.84-.95-1.3S26.39,41.52,26.93,40.72Z"/><path d="M42.63,53.15c-.64.56-1.11,1.23-1.38,1.16a1.7,1.7,0,0,1-1-1.12c-.05-.36.56-1.13.87-1.12S41.93,52.63,42.63,53.15Z"/><path d="M44.07,54.54c-.25-.45-.72-.91-.68-1.33s.58-.82.9-1.23c.37.42.94.8,1,1.27s-.46.86-.73,1.29Z"/><path d="M49,53.12c-.63.58-1.09,1.25-1.34,1.18a1.67,1.67,0,0,1-1.08-1.1c-.06-.35.53-1.13.86-1.14S48.32,52.61,49,53.12Z"/><path d="M54.28,51.84c.24.49.71,1,.66,1.46s-.68.73-1,1.08c-.32-.42-.84-.82-.88-1.26s.45-.86.71-1.29Z"/><path d="M60.53,21.47c-.51.22-1.06.69-1.51.61a1.59,1.59,0,0,1-1-1.14c0-.43.64-.85,1-1.27l1.14,1.06Z"/><path d="M20.69,41.1c.26.43.78.9.72,1.27s-.62.87-1,1.3c-.33-.4-.88-.78-.93-1.21s.42-.89.66-1.34Z"/><path d="M38,56.78c-.66.54-1.06,1.11-1.51,1.15-.29,0-1-.75-.91-1.11s.64-.86,1-1.28Z"/><path d="M58.67,58.17c-.26-.48-.73-1-.71-1.43s.6-.8.94-1.2c.34.44.89.84,1,1.31s-.44.87-.69,1.31Z"/><path d="M60.3,28,59,29.29c-.38-.39-1.05-.77-1.06-1.17s.63-.84,1-1.26Z"/><path d="M38,21c-.65.53-1.18,1.19-1.42,1.09a1.72,1.72,0,0,1-1-1.2c0-.37.61-.79.94-1.18Z"/><path d="M45.81,67.6l-1.46,1.16c-.34-.44-.91-.86-1-1.32s.67-1.11.94-1.07C44.8,66.45,45.17,67,45.81,67.6Z"/><path d="M34.72,42.38c-.59.56-.95,1.17-1.34,1.2s-1-.65-1-1,.57-.89.9-1.33Z"/><path d="M33,22.28c-.23-.44-.71-.92-.65-1.31s.63-.87,1-1.29c.33.44.87.86.93,1.34s-.47.85-.73,1.28Z"/><path d="M52.19,43.8c-.24-.46-.7-.95-.64-1.36s.63-.79,1-1.18c.34.44.88.85.94,1.32s-.49.84-.77,1.26Z"/><path d="M60.33,42.56c-.62.48-1.06,1.08-1.41,1a1.45,1.45,0,0,1-1-1.09c.07-.45.67-.82,1-1.23Z"/><path d="M54,35.31c-.66.53-1.17,1.17-1.41,1.08a1.72,1.72,0,0,1-1-1.17c0-.35.61-1.09.93-1.08S53.31,34.75,54,35.31Z"/><path d="M36.18,53.2c-.62.53-1,1.13-1.4,1.1a1.42,1.42,0,0,1-1-1c0-.45.62-.85,1-1.27Z"/><path d="M61.8,60.4l-1.42,1.18c-.34-.43-.92-.84-1-1.29s.61-.78.95-1.17Z"/><path d="M61.82,53.33c-.66.46-1.13,1-1.48,1a1.47,1.47,0,0,1-.9-1.13c.08-.44.69-.8,1.07-1.19Z"/><path d="M36.22,60.34l-1.51,1.23c-.33-.39-.89-.79-.9-1.19s.54-.83.84-1.25Z"/><path d="M59,33.49c.48.9.95,1.38.91,1.81s-.62.77-1,1.16c-.33-.43-.88-.83-.94-1.3S58.46,34.32,59,33.49Z"/><path d="M30.39,41.13c.22.44.67.92.61,1.33s-.58.8-.9,1.2c-.35-.43-.92-.82-1-1.28s.48-.85.75-1.27Z"/><path d="M54,20.93l-1.39,1.21c-.35-.42-1-.81-1-1.26s.58-.8.91-1.2Z"/><path d="M52.84,26.74c.23.45.71,1,.63,1.33s-.69.81-1.07,1.21c-.3-.42-.82-.84-.84-1.28s.48-.86.75-1.29Z"/><path d="M60.09,68.89c-.24-.48-.7-1-.67-1.43s.62-.77.95-1.16c.35.43.9.83,1,1.3s-.46.86-.73,1.29Z"/></g></svg>