<svg id="Layer_1" data-name="Layer 1" xmlns="http://www.w3.org/2000/svg" viewBox="0 0 81 81"><defs><style>.cls-1{fill:#fff;}</style></defs><title>spatula</title><g id="aAHngM.tif"><path d="M41.71,28.45,35.77,23c.09-.11.17-.23.27-.33,3.22-3.54,6.42-7.1,9.67-10.61a22.87,22.87,0,0,1,32.54-1.46,1.33,1.33,0,0,1,0,1.64L69.05,22.41l-15,16.48c-.12.14-.26.27-.4.43l-5-4.56-.48.53L11.34,75.73a4.46,4.46,0,0,1-4.79,1.42A4.67,4.67,0,0,1,4.4,69.46L17.49,55.07l24-26.31Zm11.76,7L75.16,11.62l-.35-.28a19.2,19.2,0,0,0-10.28-4A19.78,19.78,0,0,0,47.67,14c-1.94,2.11-3.86,4.23-5.79,6.35l-2.25,2.47Zm-9.72-5.13-.39.42L11.26,66,6.42,71.32a1.93,1.93,0,0,0,.68,3.14,2,2,0,0,0,2.31-.68L46.32,33.22c.1-.1.17-.21.27-.33Z"/><path class="cls-1" d="M53.47,35.44,39.63,22.84l2.25-2.47c1.93-2.12,3.85-4.24,5.79-6.35A19.78,19.78,0,0,1,64.53,7.36a19.2,19.2,0,0,1,10.28,4l.35.28Z"/><path class="cls-1" d="M43.75,30.31l2.84,2.58c-.1.12-.17.23-.27.33L9.41,73.78a2,2,0,0,1-2.31.68,1.93,1.93,0,0,1-.68-3.14L11.26,66l32.1-35.26Z"/></g></svg>