<svg id="Layer_1" data-name="Layer 1" xmlns="http://www.w3.org/2000/svg" viewBox="0 0 81 81"><defs><style>.cls-1{fill:#fff;}</style></defs><title>Artboard 1</title><path d="M69.18,63.42V71.3c0,.93-.23,1.16-1.08,1.47a4.08,4.08,0,0,1-2.65,0q-27.54-8.28-55.09-16.5c-.92-.28-1.12-.54-1.12-1.5,0-2.24,0-4.48,0-6.72a.72.72,0,0,0-.66-.86,11.52,11.52,0,0,1-1.8-.6,3.48,3.48,0,0,1-2-3.89,68.43,68.43,0,0,0,1.08-10.4c0-.55,0-1.1,0-1.65A6.18,6.18,0,0,0,3.92,26c-5-4.79-2.82-13.27,3.53-15.69a8.17,8.17,0,0,1,5.28-.37c3.88,1.1,7.78,2.17,11.65,3.3L64.79,25.05q2.52.75,5.06,1.43a9.73,9.73,0,0,1,6.42,13.64A12.15,12.15,0,0,1,74.08,43a4.74,4.74,0,0,0-1.37,3,35.1,35.1,0,0,0,.19,7.53c.22,2,.52,3.94.82,5.9a3.56,3.56,0,0,1-3.36,4C70,63.44,69.65,63.42,69.18,63.42ZM63.5,27l-.8-.25q-12.58-3.69-25.19-7.38-7.89-2.31-15.77-4.58l-9.32-2.69A6.3,6.3,0,0,0,9.28,12C4,13.2,1.56,19.64,4.88,23.74a2.12,2.12,0,0,0,1,.64c3.85,1.19,7.72,2.36,11.58,3.53l4.73,1.45a1.06,1.06,0,0,1,.82,1,.92.92,0,0,1-.66,1,2.17,2.17,0,0,1-1.1-.06q-6.5-2-13-3.94l-.62-.17c.13,1.06.32,2,.37,3A57.17,57.17,0,0,1,7,42.44C6.76,44,6.9,44.25,8.36,44.79c.14.06.28.09.43.14L58.28,59.36l2.81.81c.27-1.86.57-3.64.78-5.42a39.28,39.28,0,0,0,.31-8.67A4.14,4.14,0,0,0,60.78,43a7.75,7.75,0,0,1-.93-1c-2.64-3.11-2.8-6.55-1.25-10.15A9.53,9.53,0,0,1,63.5,27Zm5.68,34.24c.41,0,.75,0,1.08,0a1.31,1.31,0,0,0,1.23-1.63c-.08-.53-.17-1.05-.24-1.57a59,59,0,0,1-.81-11.18c.09-2.15.52-4.17,2.31-5.62a4.69,4.69,0,0,0,.47-.52,6.75,6.75,0,0,0,1.64-6.3,7.59,7.59,0,0,0-14.08-2.07,7.22,7.22,0,0,0,.93,8.42,9.42,9.42,0,0,0,.91,1,5.1,5.1,0,0,1,1.59,3.1,20.15,20.15,0,0,1,.26,2.45,63.53,63.53,0,0,1-1.08,12.31,1.28,1.28,0,0,0,1,1.58,6.6,6.6,0,0,0,1.34,0V57.58c0-1.93.13-2,2.05-2,1,0,1.41.37,1.42,1.41Z"/><path class="cls-1" d="M63.5,27a9.53,9.53,0,0,0-4.9,4.82c-1.55,3.6-1.39,7,1.25,10.15a7.75,7.75,0,0,0,.93,1,4.14,4.14,0,0,1,1.4,3.08,39.28,39.28,0,0,1-.31,8.67c-.21,1.78-.51,3.56-.78,5.42l-2.81-.81L8.79,44.93c-.15,0-.29-.08-.43-.14C6.9,44.25,6.76,44,7,42.44A57.17,57.17,0,0,0,8,30.26c0-1-.24-2-.37-3l.62.17q6.49,2,13,3.94a2.17,2.17,0,0,0,1.1.06.92.92,0,0,0,.66-1,1.06,1.06,0,0,0-.82-1l-4.73-1.45c-3.86-1.17-7.73-2.34-11.58-3.53a2.12,2.12,0,0,1-1-.64C1.56,19.64,4,13.2,9.28,12a6.3,6.3,0,0,1,3.14.08l9.32,2.69q7.89,2.28,15.77,4.58Q50.11,23,62.7,26.74Z"/><path class="cls-1" d="M69.18,61.23V57c0-1-.37-1.4-1.42-1.41-1.92,0-2.05.11-2.05,2v3.61a6.6,6.6,0,0,1-1.34,0,1.28,1.28,0,0,1-1-1.58,63.53,63.53,0,0,0,1.08-12.31,20.15,20.15,0,0,0-.26-2.45,5.1,5.1,0,0,0-1.59-3.1,9.42,9.42,0,0,1-.91-1,7.22,7.22,0,0,1-.93-8.42A7.59,7.59,0,0,1,74.86,34.4a6.75,6.75,0,0,1-1.64,6.3,4.69,4.69,0,0,1-.47.52c-1.79,1.45-2.22,3.47-2.31,5.62A59,59,0,0,0,71.25,58c.07.52.16,1,.24,1.57a1.31,1.31,0,0,1-1.23,1.63C69.93,61.25,69.59,61.23,69.18,61.23Z"/></svg>