<svg id="Layer_1" data-name="Layer 1" xmlns="http://www.w3.org/2000/svg" viewBox="0 0 81 81"><defs><style>.cls-1{fill:#fff;}.cls-2{fill:#ccc;}</style></defs><title>Artboard 1</title><g id="Ksil74"><path class="cls-1" d="M68.9,39.9c0,10.5,0,21,0,31.51a8.11,8.11,0,0,1-.58,2.91,2.78,2.78,0,0,1-2.69,1.82c-.48,0-1,0-1.44,0H16.83c-3.2,0-4.54-1.28-4.54-4.52q0-31.94,0-63.88c0-3,1.35-4.35,4.38-4.35H64.43c3.23,0,4.46,1.25,4.46,4.54Q68.91,23.94,68.9,39.9Zm-2.13-.15q0-15.91,0-31.81C66.78,6.64,66.36,6,65,6Q40.62,6,16.29,6c-1.38,0-1.86.55-1.86,1.88q0,31.89,0,63.77c0,1.64.28,1.91,2,1.91q24.25,0,48.51,0c1.35,0,1.86-.54,1.86-1.89Q66.74,55.72,66.77,39.75Z"/><path class="cls-1" d="M16.08,39.75q0-14.61,0-29.21c0-2.33.14-2.46,2.42-2.46H62.82c2.06,0,2.29.22,2.29,2.31V69.24c0,2-.21,2.22-2.21,2.22H18.29c-2,0-2.21-.16-2.21-2.22Q16.07,54.5,16.08,39.75Zm2.15-29c0,.57,0,1,0,1.42.14,1.31-.48,2.75.81,3.87.22.19.05,1.13-.22,1.53a6,6,0,0,0,0,5.26,2,2,0,0,1,.07,1.78,5.88,5.88,0,0,0,0,5.5,1.91,1.91,0,0,1,0,1.68,6.2,6.2,0,0,0-.11,5.54,2,2,0,0,1-.06,1.7,6.45,6.45,0,0,0,.13,5.4,2,2,0,0,1-.06,1.77,6.2,6.2,0,0,0,0,5.37A1.93,1.93,0,0,1,19,53.22a5.5,5.5,0,0,0,0,5.57c.22.34.34,1.14.15,1.3-1.3,1.08-.83,2.52-.86,3.83a2.52,2.52,0,0,0,.4,1.68c.78.87.81,1.54,0,2.32-.18.16-.38.51-.31.65s.42.31.66.37a4.12,4.12,0,0,0,.86,0l41.58-.09c.49,0,1-.06,1.79-.12-.44-.5-.75-.7-.81-1-.13-.6-.39-1.36-.14-1.81a6.12,6.12,0,0,0,0-5.5,2.11,2.11,0,0,1,.1-1.8,6.69,6.69,0,0,0,0-5.3,2.07,2.07,0,0,1,0-1.8,6.34,6.34,0,0,0,0-5.4,2.09,2.09,0,0,1,0-1.81,6.36,6.36,0,0,0,0-5.41,2,2,0,0,1,0-1.69,5.56,5.56,0,0,0,0-5.55,2,2,0,0,1,0-1.59,5.49,5.49,0,0,0-.07-5.55,1.94,1.94,0,0,1,.1-1.69,6.21,6.21,0,0,0-.07-5.42c-.24-.38-.36-1.19-.14-1.44,1.48-1.65.48-3.5.77-5.3Z"/><path class="cls-2" d="M56.57,63.1c-.64.61-1,1.21-1.46,1.31-.27,0-1-.69-1-1s.56-1,.87-1.43Z"/><path class="cls-1" d="M58,23.82c-.66.53-1.07,1.11-1.53,1.14s-1-.75-.93-1.12.62-.9,1-1.35Z"/><path class="cls-1" d="M56.59,32.71c-.54-.77-1.14-1.25-1.07-1.61.09-.51.67-.94,1-1.41.35.39,1,.77,1,1.19S57.06,31.85,56.59,32.71Z"/><path class="cls-1" d="M56.66,36.31c.46.95.93,1.48.88,1.95s-.69.74-1.06,1.1c-.33-.45-.88-.89-.92-1.37S56.08,37.14,56.66,36.31Z"/><path class="cls-1" d="M56.48,18.36c-.5-.82-1-1.31-1-1.69s.67-.87,1-1.3c.34.45.9.87,1,1.36S57,17.58,56.48,18.36Z"/><path class="cls-2" d="M56.56,48.84c-.62.56-1.12,1.27-1.38,1.19a1.82,1.82,0,0,1-1.09-1.18c0-.37.61-1.18.92-1.16C55.47,47.72,55.89,48.31,56.56,48.84Z"/><path class="cls-2" d="M55,54.24c.57.84,1.12,1.3,1.08,1.69s-.61.91-.95,1.36c-.37-.38-1-.73-1-1.14S54.53,55.16,55,54.24Z"/><path class="cls-2" d="M27.72,63.14l-1.47,1.34c-.35-.43-.95-.84-1-1.3s.59-1.17.91-1.16S27,62.61,27.72,63.14Z"/><path class="cls-2" d="M30.86,63.21,29.4,64.48c-.33-.45-.9-.88-.93-1.35s.6-.79.94-1.2Z"/><path class="cls-2" d="M34.1,63.29l-1.54,1.19c-.3-.47-.83-.93-.84-1.4s.62-.77,1-1.15Z"/><path class="cls-1" d="M33.84,25.2c-.27-.47-.74-.95-.73-1.42s.55-.86.85-1.28c.38.4,1,.76,1.07,1.21s-.41,1-.65,1.47Z"/><path class="cls-1" d="M58,45.38c-.7.52-1.14,1.1-1.57,1.1s-1-.78-.91-1.15.65-.85,1-1.27Z"/><path class="cls-2" d="M58,64.62c-.24-.5-.72-1-.65-1.47s.68-.82,1.06-1.22c.31.43.86.84.87,1.27s-.47,1-.74,1.44Z"/><path class="cls-1" d="M29.16,31c-.68.56-1.08,1.14-1.54,1.19-.3,0-1-.75-.94-1.12s.62-.89,1-1.33Z"/><path class="cls-1" d="M35.52,30.94l-1.39,1.27c-.36-.43-1-.83-1-1.3s.59-.81.92-1.22Z"/><path class="cls-1" d="M26.53,11.65c.25.48.73,1,.69,1.43s-.62.8-1,1.2c-.35-.39-.95-.76-1-1.18s.43-1,.68-1.44Z"/><path class="cls-2" d="M52.18,61.79c.24.49.74,1,.67,1.46s-.68.83-1.06,1.24c-.32-.43-.87-.84-.89-1.27s.47-1,.73-1.44Z"/><path class="cls-1" d="M40.76,43.9c.26.44.78.92.72,1.32s-.61.91-.95,1.35c-.35-.39-.93-.77-1-1.19s.42-1,.66-1.48Z"/><path class="cls-1" d="M56.58,13l-1.45,1.25c-.37-.43-1-.82-1-1.3-.05-.33.63-1.11.94-1.09S55.91,12.5,56.58,13Z"/><path class="cls-1" d="M31.19,36.75c.24.49.7,1,.66,1.46s-.63.77-1,1.16c-.34-.4-.92-.78-.95-1.2s.45-1,.71-1.43Z"/><path class="cls-1" d="M29.17,38.09c-.63.57-1.11,1.27-1.37,1.19a1.77,1.77,0,0,1-1.1-1.15c-.05-.36.59-1.17.9-1.16S28.48,37.56,29.17,38.09Z"/><path class="cls-1" d="M21.54,36.73c.25.48.72,1,.7,1.44s-.6.79-.93,1.19c-.35-.38-.95-.73-1-1.14s.41-1,.65-1.47Z"/><path class="cls-2" d="M42.5,61.78c.27.47.79,1,.74,1.41s-.64.86-1,1.29c-.34-.39-.9-.77-.94-1.19s.4-1,.63-1.49Z"/><path class="cls-1" d="M53.51,29.53c.27.43.81.88.77,1.28s-.58.93-.9,1.4c-.37-.38-1-.72-1-1.14s.4-1,.64-1.51Z"/><path class="cls-1" d="M48.36,30.92l-1.49,1.3c-.33-.41-1-.85-.93-1.23s.64-.87,1-1.3Z"/><path class="cls-1" d="M42.25,31l1.44-1.34c.35.39,1,.81,1,1.17s-.61.91-.95,1.37Z"/><path class="cls-1" d="M40.78,29.54c.25.5.72,1,.68,1.48s-.63.8-1,1.2c-.35-.46-.89-.88-1-1.37s.46-.87.72-1.31Z"/><path class="cls-2" d="M21.3,63.3l-1.56,1.17c-.31-.41-.9-.86-.86-1.24s.62-.87,1-1.3Z"/><path class="cls-1" d="M32.28,31l-1.4,1.24c-.35-.44-.94-.86-1-1.33s.6-.8,1-1.2Z"/><path class="cls-2" d="M22.72,64.62c-.24-.5-.72-1-.65-1.47s.69-.81,1.07-1.21c.31.42.85.84.87,1.27s-.47.95-.73,1.43Z"/><path class="cls-1" d="M24.79,29.56c.24.5.69,1,.64,1.49s-.64.78-1,1.17c-.33-.46-.87-.9-.93-1.39s.5-.86.78-1.29Z"/><path class="cls-1" d="M21.34,32.78c-.54-.85-1.08-1.31-1-1.71s.59-.92.92-1.38c.35.38,1,.74,1,1.14S21.8,31.84,21.34,32.78Z"/><path class="cls-1" d="M56.59,27.31c-.67.55-1.07,1.13-1.52,1.17s-1-.72-1-1.07a1.76,1.76,0,0,1,1-1.2C55.39,26.12,55.91,26.77,56.59,27.31Z"/><path class="cls-1" d="M61.1,23.89c-.58.49-1.1,1.16-1.32,1.07-.46-.18-1.05-.77-1-1.18s.64-.85,1-1.28Z"/><path class="cls-2" d="M40.51,63.31,39,64.48c-.31-.42-.9-.87-.86-1.26s.64-.86,1-1.29Z"/><path class="cls-2" d="M26.59,54.68c.23.51.67,1,.61,1.5s-.67.74-1,1.11c-.33-.47-.87-.91-.91-1.4s.54-.83.84-1.25Z"/><path class="cls-2" d="M46.93,63.11,45.5,64.48c-.36-.43-1-.83-1-1.29s.56-.83.87-1.25Z"/><path class="cls-2" d="M34.09,48.87l-1.37,1.25c-.36-.42-.95-.82-1-1.27s.56-.83.88-1.24Z"/><path class="cls-2" d="M30.84,49l-1.45,1.1c-.33-.46-.88-.91-.9-1.37s.64-.77,1-1.15Z"/><path class="cls-2" d="M27.71,48.81c-.65.57-1,1.16-1.49,1.21-.3,0-1-.74-1-1.1s.64-.88,1-1.32Z"/><path class="cls-2" d="M29.2,57.44c-.26-.48-.76-1-.74-1.43s.61-.8.94-1.2c.34.43.88.83,1,1.3s-.4.87-.64,1.32Z"/><path class="cls-1" d="M45.16,45.27l-1.47,1.3c-.33-.41-.95-.84-.92-1.21s.63-.88,1-1.31Z"/><path class="cls-2" d="M50.07,63.13,48.7,64.48c-.35-.42-1-.85-1-1.27s.63-.85,1-1.27Z"/><path class="cls-2" d="M31.25,56.06l1.46-1.26c.33.41.95.85.91,1.22s-.65.85-1,1.26Z"/><path class="cls-1" d="M35.52,45.26,34.1,46.57c-.32-.41-.93-.83-.91-1.21s.6-.87.94-1.31Z"/><path class="cls-1" d="M63,41.66l-1.5,1.26c-.32-.39-.89-.77-.9-1.17s.51-.86.8-1.29Z"/><path class="cls-1" d="M22.79,43.08c-.26-.43-.78-.9-.72-1.29s.61-.89.95-1.34c.35.45.89.85,1,1.34s-.44.86-.69,1.3Z"/><path class="cls-2" d="M43.72,56.09l-1.42,1.2c-.35-.43-.94-.83-1-1.28s.58-.8.92-1.21Z"/><path class="cls-1" d="M54.78,38.08l-1.35,1.29c-.37-.41-1-.79-1-1.24s.56-.83.88-1.24Z"/><path class="cls-1" d="M44,36.74c.24.49.71,1,.67,1.47s-.63.78-1,1.17c-.34-.4-.92-.78-1-1.2s.45-1,.7-1.44Z"/><path class="cls-1" d="M42,38.11l-1.41,1.26c-.36-.42-1-.8-1-1.26s.57-.81.89-1.22Z"/><path class="cls-1" d="M34.26,36.73c.29.41.84.85.81,1.24s-.56.94-.87,1.4c-.36-.36-1-.69-1-1.1s.34-1,.54-1.5Z"/><path class="cls-1" d="M42,16.64c-.68.53-1.1,1.09-1.54,1.12s-.93-.76-.89-1.12.65-.85,1-1.27Z"/><path class="cls-1" d="M38.75,16.59l-1.38,1.26c-.38-.41-1-.79-1-1.24s.57-.82.89-1.24Z"/><path class="cls-1" d="M22.72,23.88C22,24.39,21.59,25,21.16,25s-.89-.77-.86-1.15.62-.87,1-1.31Z"/><path class="cls-1" d="M24.66,22.34c.27.47.79,1,.76,1.4s-.62.88-1,1.31c-.34-.39-.91-.76-.95-1.18s.39-1,.61-1.5Z"/><path class="cls-1" d="M27.78,21.93c.45.94.89,1.46.85,1.94s-.62.78-1,1.17c-.35-.48-.89-.93-1-1.45C26.64,23.23,27.21,22.76,27.78,21.93Z"/><path class="cls-1" d="M32.21,23.74,31,25c-.38-.41-1.06-.82-1.06-1.24s.63-.87,1-1.3Z"/><path class="cls-1" d="M37.2,25.61c-.46-.93-1-1.46-.89-1.91s.7-.8,1.08-1.2c.32.48.83.93.87,1.43S37.76,24.77,37.2,25.61Z"/><path class="cls-1" d="M32.24,16.65l-1.33,1.19c-.36-.41-1-.84-1-1.24s.68-.82,1.05-1.23Z"/><path class="cls-1" d="M48.35,23.84,46.83,25c-.32-.41-.92-.84-.89-1.22s.61-.89,1-1.33Z"/><path class="cls-1" d="M53.58,22.36c.25.49.75,1,.69,1.46s-.68.82-1.05,1.22c-.32-.41-.87-.82-.89-1.25s.45-1,.71-1.44Z"/><path class="cls-1" d="M24.5,13.07l-1.45,1.2c-.35-.43-.92-.84-1-1.31s.63-1.11.93-1.08S23.84,12.5,24.5,13.07Z"/><path class="cls-1" d="M31.29,13l1.28-1.22c.38.4,1,.81,1,1.21s-.65.83-1,1.25Z"/><path class="cls-1" d="M35.79,14.78c-.46-.83-1-1.32-.89-1.72s.65-.84,1-1.25c.34.45.89.87.93,1.34S36.32,14,35.79,14.78Z"/><path class="cls-1" d="M45.8,11.65c.23.49.68,1,.63,1.47s-.64.78-1,1.17c-.33-.41-.9-.8-.94-1.22s.44-1,.7-1.43Z"/><path class="cls-1" d="M45.15,16.72l-1.46,1.13c-.34-.44-.91-.86-.94-1.32s.61-.78,1-1.17Z"/><path class="cls-1" d="M48.34,16.64l-1.41,1.21c-.35-.43-1-.83-1-1.29s.59-.79.93-1.2Z"/><path class="cls-2" d="M23.1,50.65c-.54-.82-1.08-1.28-1-1.67s.6-.92.93-1.38c.35.43.91.83,1,1.31S23.57,49.79,23.1,50.65Z"/><path class="cls-2" d="M21.3,48.85,19.9,50.1c-.36-.41-1-.8-1-1.25s.56-.82.88-1.24Z"/><path class="cls-1" d="M60,43.9c.28.43.81.9.76,1.29s-.6.92-.93,1.38c-.35-.39-.94-.75-1-1.16s.39-1,.62-1.49Z"/><path class="cls-1" d="M51.54,45.29l-1.46,1.27c-.33-.41-.95-.85-.91-1.23s.65-.85,1-1.28Z"/><path class="cls-1" d="M35.89,38.06l1.41-1.17c.35.43,1,.87,1,1.29s-.65,1-1.11,1.1C36.92,39.35,36.46,38.63,35.89,38.06Z"/><path class="cls-1" d="M61.14,16.59l-1.36,1.26c-.37-.41-1-.8-1-1.25s.57-.82.89-1.23Z"/><path class="cls-1" d="M38.77,45.39l-1.46,1.17c-.34-.44-.91-.87-.94-1.34s.61-.77,1-1.16Z"/><path class="cls-1" d="M47.2,36.75c.25.49.71,1,.68,1.46s-.62.77-1,1.16c-.35-.39-.94-.77-1-1.18s.45-1,.71-1.45Z"/><path class="cls-1" d="M51.56,38.13l-1.49,1.23c-.32-.4-.94-.84-.9-1.2s.64-.85,1-1.27Z"/><path class="cls-1" d="M31.25,43.93c.21.49.64,1,.58,1.48s-.64.77-1,1.16c-.33-.42-.9-.82-.92-1.25s.48-1,.75-1.42Z"/><path class="cls-1" d="M28,43.9c.26.48.73,1,.71,1.44s-.59.82-.92,1.22c-.37-.41-1-.78-1.05-1.23s.45-1,.72-1.44Z"/><path class="cls-1" d="M24.81,43.91c.23.5.69,1,.64,1.49s-.64.78-1,1.17c-.33-.46-.87-.89-.94-1.39s.47-.85.73-1.29Z"/><path class="cls-1" d="M21,46.71c-.25-.5-.72-1-.69-1.49s.62-.78,1-1.17c.33.44.88.86.95,1.34s-.46.88-.73,1.33Z"/><path class="cls-1" d="M22.67,21.54c-.22-.5-.65-1-.59-1.49s.66-.74,1-1.1c.32.45.84.89.89,1.38s-.5.83-.78,1.24Z"/><path class="cls-1" d="M49,11.67c.22.48.65,1,.6,1.45s-.62.77-1,1.16c-.34-.45-.87-.88-.94-1.36s.48-.84.76-1.26Z"/><path class="cls-1" d="M61.18,14.4c-.22-.5-.65-1-.61-1.48s.62-.75,1-1.11c.33.44.87.86.92,1.33s-.49.85-.77,1.27Z"/><path class="cls-2" d="M42,59.72c-.65.51-1.2,1.16-1.42,1.06a1.76,1.76,0,0,1-1-1.25c0-.36.61-.77,1-1.16Z"/><path class="cls-2" d="M37.35,63.22l-1.53,1.26c-.33-.4-.94-.82-.92-1.2s.6-.9.94-1.34Z"/><path class="cls-2" d="M29.15,59.63c-.63.54-1.13,1.23-1.38,1.14a1.73,1.73,0,0,1-1.06-1.18c0-.37.6-.81.93-1.22Z"/><path class="cls-1" d="M22.72,16.64,21.3,17.85c-.36-.42-.95-.82-1-1.27s.58-.81.91-1.22Z"/><path class="cls-1" d="M25.92,16.62c-.63.55-1.14,1.23-1.38,1.15a1.77,1.77,0,0,1-1-1.18c0-.37.58-.81.91-1.22Z"/><path class="cls-1" d="M39.13,14.84c-.53-.84-1.06-1.31-1-1.71s.6-.89.93-1.32c.35.37,1,.73,1,1.12S39.59,13.93,39.13,14.84Z"/><path class="cls-1" d="M29.65,11.64c.26.42.77.87.73,1.25s-.57.93-.88,1.38c-.36-.37-1-.71-1-1.12s.38-1,.61-1.48Z"/><path class="cls-1" d="M35.51,16.61l-1.37,1.24c-.36-.42-1-.81-1-1.25s.56-.82.88-1.24Z"/><path class="cls-2" d="M29.18,66.82c-.66.54-1.17,1.2-1.44,1.11a1.73,1.73,0,0,1-1-1.19c0-.35.63-1.11.94-1.09S28.51,66.26,29.18,66.82Z"/><path class="cls-2" d="M22.8,57.43c-.26-.43-.78-.9-.73-1.29s.62-.9,1-1.34c.34.39.93.76,1,1.18s-.41,1-.65,1.45Z"/><path class="cls-2" d="M21.28,56.07l-1.42,1.22c-.35-.43-.93-.83-1-1.28s.58-.8.91-1.2Z"/><path class="cls-2" d="M58.06,52.47c-.68.54-1.16,1.18-1.45,1.1a1.7,1.7,0,0,1-1-1.15c0-.34.62-1.1.93-1.09S57.36,51.93,58.06,52.47Z"/><path class="cls-2" d="M56.82,65.41c.26.48.76,1,.72,1.45s-.64.76-1,1.15c-.35-.39-1-.75-1-1.16s.46-1,.72-1.44Z"/><path class="cls-2" d="M42.53,47.46c.26.49.73,1,.7,1.47s-.62.78-1,1.17c-.34-.39-.93-.76-1-1.17s.45-1,.7-1.47Z"/><path class="cls-2" d="M40.52,48.89,39.1,50.1c-.35-.42-1-.82-1-1.27s.58-.81.91-1.22Z"/><path class="cls-1" d="M60.06,29.56c.22.51.66,1,.6,1.5s-.66.76-1,1.13c-.32-.47-.85-.91-.9-1.4s.5-.84.79-1.26Z"/><path class="cls-1" d="M50.26,22.35c.28.44.8.89.77,1.3s-.57.93-.89,1.39c-.35-.38-1-.74-1-1.15s.38-1,.61-1.52Z"/><path class="cls-1" d="M51.54,30.94,50,32.21c-.33-.42-.94-.87-.9-1.25s.66-.85,1-1.27Z"/><path class="cls-1" d="M55.44,33.19c.24.5.7,1,.64,1.48s-.68.7-1.06,1c-.33-.44-.87-.85-.92-1.32s.52-.82.81-1.24Z"/><path class="cls-1" d="M55.18,22c-.56-.79-1.13-1.24-1.09-1.62s.6-.93.93-1.4c.38.42,1,.8,1.06,1.27S55.65,21.09,55.18,22Z"/><path class="cls-1" d="M38.78,30.94c-.67.57-1.07,1.13-1.53,1.19-.28,0-1-.73-.93-1.11s.6-.89.94-1.33Z"/><path class="cls-1" d="M41.93,23.83,40.43,25c-.32-.41-.92-.83-.9-1.21s.6-.89.94-1.33Z"/><path class="cls-1" d="M30.82,27.32l-1.29,1.24c-.38-.4-1-.79-1.05-1.2s.59-1,1-1.15C29.74,26.13,30.25,26.81,30.82,27.32Z"/><path class="cls-1" d="M45.14,23.78l-1.48,1.27c-.33-.4-.94-.82-.92-1.19s.58-.91.9-1.36Z"/><path class="cls-1" d="M56.84,13c.66-.53,1.07-1.1,1.5-1.12s1,.76.92,1.1-.66.87-1,1.29Z"/><path class="cls-1" d="M51.63,14.42c-.26-.49-.73-1-.71-1.47s.62-.76,1-1.14c.34.43.9.82,1,1.29s-.47.88-.73,1.32Z"/><path class="cls-2" d="M38.81,52.49c-.68.54-1.18,1.18-1.45,1.09a1.71,1.71,0,0,1-1-1.18c0-.35.63-1.1.93-1.07S38.13,51.93,38.81,52.49Z"/><path class="cls-1" d="M39.05,29.11c-.49-.83-1-1.3-.95-1.69s.62-.86,1-1.29c.34.43.89.83,1,1.3S39.56,28.29,39.05,29.11Z"/><path class="cls-2" d="M28,51.1c.25.49.72,1,.67,1.46s-.66.73-1,1.1c-.34-.44-.88-.85-.95-1.33s.49-.82.77-1.24Z"/><path class="cls-2" d="M24.79,51.1c.24.45.73.95.65,1.33s-.68.81-1.05,1.21c-.31-.42-.84-.83-.87-1.27s.48-.85.75-1.28Z"/><path class="cls-1" d="M42.07,14.43c-.27-.43-.8-.89-.76-1.29s.59-.89.92-1.34c.36.38,1,.73,1,1.12s-.43,1-.67,1.49Z"/><path class="cls-2" d="M62.91,49l-1.46,1.09c-.31-.46-.85-.9-.87-1.37s.63-.75,1-1.13Z"/><path class="cls-2" d="M59.7,49l-1.44,1.14c-.33-.45-.89-.89-.92-1.35s.62-.78,1-1.17Z"/><path class="cls-2" d="M51.86,50.65c-.49-.84-1-1.33-1-1.72s.65-.88,1-1.32c.33.45.88.88.93,1.36S52.37,49.84,51.86,50.65Z"/><path class="cls-2" d="M50.1,48.87l-1.37,1.24c-.36-.42-1-.81-1-1.27s.58-.82.9-1.23Z"/><path class="cls-2" d="M45.25,50.25c-.27-.44-.79-.9-.74-1.3s.61-.9.94-1.35c.35.39.94.76,1,1.17s-.42,1-.67,1.47Z"/><path class="cls-2" d="M36.12,47.47c.26.48.75,1,.72,1.45s-.62.79-1,1.18c-.34-.44-.9-.84-1-1.32s.46-.87.72-1.32Z"/><path class="cls-2" d="M37.26,61.43c-.48-.87-1-1.36-.91-1.74s.64-.88,1-1.31c.34.44.88.87.95,1.35S37.81,60.58,37.26,61.43Z"/><path class="cls-2" d="M31.1,58.23c.27.42.8.88.75,1.27s-.59.9-.91,1.34c-.36-.37-1-.71-1-1.11s.4-1,.64-1.48Z"/><path class="cls-2" d="M44,58.24c.23.5.68,1,.64,1.49s-.65.74-1,1.11c-.33-.44-.87-.86-.92-1.33s.49-.86.77-1.29Z"/><path class="cls-2" d="M24.53,61.42c-.53-.85-1.06-1.31-1-1.7s.61-.9.95-1.34c.35.43.9.82,1,1.3S25,60.55,24.53,61.42Z"/><path class="cls-2" d="M21.49,58.22c.27.44.79.9.74,1.29s-.58.89-.91,1.33c-.36-.36-1-.71-1-1.11s.42-1,.65-1.49Z"/><path class="cls-2" d="M61.3,57.44c-.26-.42-.77-.88-.73-1.26s.57-.92.89-1.37c.36.38,1,.72,1,1.13s-.4,1-.63,1.48Z"/><path class="cls-2" d="M48.38,59.7c-.66.52-1.2,1.17-1.42,1.08a1.8,1.8,0,0,1-1-1.22c0-.37.6-.79.94-1.18Z"/><path class="cls-1" d="M61.78,26c.25.45.76,1,.68,1.33s-.69.83-1.06,1.23c-.3-.42-.81-.83-.84-1.28s.45-.86.7-1.3Z"/><path class="cls-2" d="M53.31,56.07l-1.49,1.22c-.32-.41-1-.86-.9-1.22s.66-.84,1-1.26Z"/><path class="cls-2" d="M48.84,54.65c.28.43.79.87.76,1.26s-.56.91-.87,1.37c-.36-.37-1-.71-1-1.1s.39-1,.62-1.49Z"/><path class="cls-2" d="M45.78,54.68c.24.49.69,1,.64,1.46s-.63.77-1,1.15c-.33-.45-.87-.87-.93-1.35s.48-.85.75-1.28Z"/><path class="cls-2" d="M39.39,54.68c.23.5.67,1,.62,1.49s-.65.74-1,1.11c-.32-.45-.84-.89-.89-1.37s.5-.84.78-1.26Z"/><path class="cls-2" d="M51.51,59.63l-1.31,1.2c-.37-.4-1-.81-1-1.2s.65-.83,1-1.24Z"/><path class="cls-1" d="M28,15.25c.23.5.67,1,.62,1.49s-.66.74-1,1.1c-.32-.45-.85-.89-.89-1.37s.5-.84.79-1.26Z"/><path class="cls-1" d="M61.7,18.82c.28.43.78.87.76,1.28s-.54.86-.84,1.29c-.37-.35-1-.66-1-1s.38-1,.59-1.5Z"/><path class="cls-2" d="M56.56,61.4c-.52-.82-1.06-1.29-1-1.68s.62-.9,1-1.34c.36.43.93.83,1,1.31S57.07,60.56,56.56,61.4Z"/><path class="cls-1" d="M48.49,28.72c-.28-.43-.83-.9-.78-1.28s.63-.87,1-1.3c.33.4.87.77.93,1.2s-.4.9-.63,1.35Z"/><path class="cls-2" d="M49.83,53.79c-.24-.45-.74-.95-.66-1.32s.69-.82,1.06-1.22c.3.43.81.83.84,1.27s-.45.86-.7,1.29Z"/><path class="cls-2" d="M61.76,61.78c.26.48.76,1,.71,1.44s-.66.84-1,1.26c-.32-.41-.86-.8-.89-1.22s.41-1,.64-1.46Z"/><path class="cls-1" d="M56.57,41.77c-.67.53-1.17,1.16-1.45,1.08a1.74,1.74,0,0,1-1-1.18c0-.35.65-1.09,1-1.07S55.92,41.23,56.57,41.77Z"/><path class="cls-2" d="M26,66.77c-.65.56-1.15,1.24-1.39,1.16a1.78,1.78,0,0,1-1-1.17c0-.36.59-1.12.91-1.11S25.28,66.23,26,66.77Z"/><path class="cls-1" d="M50.09,41.64l-1.32,1.28c-.37-.4-1-.77-1-1.22s.54-1,.93-1.1S49.44,41.14,50.09,41.64Z"/><path class="cls-1" d="M45.8,40.39c.23.45.68.94.62,1.35s-.61.79-.94,1.19c-.35-.43-.91-.83-1-1.3s.5-.84.78-1.27Z"/><path class="cls-1" d="M39.25,40.36c.28.42.8.86.78,1.27s-.53.86-.83,1.29c-.38-.39-1-.72-1.09-1.18s.4-.89.63-1.35Z"/><path class="cls-2" d="M38.8,66.81c-.66.55-1.17,1.21-1.42,1.12a1.74,1.74,0,0,1-1-1.19c0-.34.63-1.12.91-1.08C37.73,65.71,38.13,66.26,38.8,66.81Z"/><path class="cls-2" d="M40.84,65.43c.24.49.69,1,.64,1.46s-.64.75-1,1.12c-.33-.45-.86-.86-.92-1.34s.47-.84.74-1.26Z"/><path class="cls-2" d="M48.39,66.83c-.69.53-1.12,1.1-1.55,1.1s-.93-.78-.88-1.14A1.8,1.8,0,0,1,47,65.65C47.27,65.57,47.75,66.26,48.39,66.83Z"/><path class="cls-2" d="M49.94,68.16c-.28-.43-.83-.9-.78-1.28s.63-.87,1-1.3c.32.4.87.77.92,1.2s-.4.9-.62,1.36Z"/><path class="cls-1" d="M26.34,22c-.57-.82-1.12-1.26-1.08-1.64s.59-.93.92-1.39c.36.42.93.8,1,1.27S26.8,21.09,26.34,22Z"/><path class="cls-1" d="M61.22,38.12l-1.55,1.24c-.31-.41-.88-.82-.88-1.23s.56-.82.88-1.24Z"/><path class="cls-1" d="M30.85,20.19,29.49,21.4c-.36-.41-1-.81-1-1.25s.58-.8.91-1.21Z"/><path class="cls-1" d="M24.31,39.53c-.29-.43-.83-.89-.79-1.28s.59-.91.92-1.37c.36.38,1,.73,1,1.14s-.4,1-.64,1.48Z"/><path class="cls-1" d="M50.11,20.26c-.65.51-1.18,1.16-1.39,1.07a1.81,1.81,0,0,1-1-1.21c0-.37.61-.79,1-1.18Z"/><path class="cls-1" d="M40.51,20.13c-.61.57-1.08,1.26-1.33,1.19a1.68,1.68,0,0,1-1.06-1.13c0-.37.55-.83.86-1.25Z"/><path class="cls-1" d="M45.16,21.54c-.24-.44-.72-.93-.65-1.32s.65-.85,1-1.27c.32.45.84.88.9,1.36s-.47.83-.74,1.25Z"/><path class="cls-1" d="M41.94,21.54c-.23-.49-.68-1-.63-1.46s.65-.77,1-1.15c.33.46.85.88.92,1.37s-.47.84-.74,1.26Z"/><path class="cls-1" d="M22.78,35.89c-.26-.44-.75-.89-.72-1.3s.58-.84.89-1.25c.37.4.94.77,1,1.23s-.42.87-.67,1.31Z"/><path class="cls-1" d="M27.72,34.55c-.65.55-1.15,1.22-1.4,1.14a1.72,1.72,0,0,1-1.05-1.17c-.05-.35.6-1.12.91-1.11S27,34,27.72,34.55Z"/><path class="cls-1" d="M30.87,34.52,29.5,35.76c-.37-.41-1-.8-1-1.25s.59-1.11.9-1.1S30.22,34,30.87,34.52Z"/><path class="cls-1" d="M32.89,33.17c.26.44.79.92.72,1.3s-.65.84-1,1.25c-.31-.4-.85-.78-.89-1.2s.42-.89.66-1.34Z"/><path class="cls-1" d="M37.4,34.51c-.73.56-1.14,1.11-1.58,1.14s-.91-.69-.91-1.08.55-1.15.85-1.15S36.64,34,37.4,34.51Z"/><path class="cls-1" d="M39.32,33.17c.26.47.74.95.71,1.41s-.61.77-.94,1.15c-.35-.37-1-.71-1-1.11s.41-1,.64-1.44Z"/><path class="cls-1" d="M49.92,18c-.28-.42-.82-.87-.78-1.25s.57-.93.89-1.39c.35.37.94.71,1,1.12s-.37,1-.58,1.48Z"/><path class="cls-1" d="M53,46.69c-.23-.5-.66-1-.62-1.49s.62-.76,1-1.14c.33.45.87.87.92,1.36s-.48.86-.75,1.29Z"/><path class="cls-1" d="M46.94,47.12c-.51-.86-1-1.33-1-1.73s.61-.9.95-1.34c.34.44.89.85,1,1.33S47.43,46.26,46.94,47.12Z"/><path class="cls-1" d="M54.75,16.6l-1.48,1.25c-.33-.4-1-.83-.93-1.19s.64-.86,1-1.29Z"/><path class="cls-1" d="M50.11,34.61c-.65.5-1.1,1.11-1.43,1s-1-.75-1-1.09.66-.83,1-1.23Z"/><path class="cls-1" d="M23.38,26c.23.49.66,1,.61,1.46s-.65.74-1,1.11c-.33-.45-.86-.87-.92-1.35s.5-.83.77-1.24Z"/><path class="cls-1" d="M19.67,14.43c-.28-.43-.82-.87-.79-1.26s.57-.91.89-1.37c.36.37,1,.7,1,1.1s-.39,1-.61,1.49Z"/><path class="cls-2" d="M35.54,66.78c-.61.54-1,1.16-1.38,1.14a1.41,1.41,0,0,1-1-1c0-.46.61-.87,1-1.3Z"/><path class="cls-2" d="M32.48,67.35c-.5.21-1,.67-1.49.58a1.63,1.63,0,0,1-1-1.13c0-.41.65-.82,1-1.23l1.12,1Z"/><path class="cls-1" d="M34.11,27.29l-1.36,1.27c-.36-.4-1-.76-1-1.2s.53-.82.84-1.23Z"/><path class="cls-1" d="M21.29,27.43c-.67.51-1.13,1.13-1.46,1.06a1.49,1.49,0,0,1-.94-1.13c.05-.44.67-.82,1-1.22Z"/><path class="cls-1" d="M27.68,27.38c-.62.53-1.13,1.2-1.37,1.12-.46-.17-1-.77-1-1.18s.64-1,1.09-1.1C26.62,26.15,27.09,26.83,27.68,27.38Z"/><path class="cls-1" d="M43.74,27.3l-1.48,1.28c-.34-.39-1-.81-.94-1.17s.62-.86,1-1.29Z"/><path class="cls-2" d="M54.79,59.68c-.64.53-1.18,1.19-1.4,1.1a1.77,1.77,0,0,1-1-1.22c0-.37.6-.79.95-1.18Z"/><path class="cls-2" d="M53.15,68.16c-.28-.41-.83-.86-.78-1.24s.59-.9.92-1.35c.36.37,1,.7,1,1.1s-.4,1-.64,1.47Z"/><path class="cls-1" d="M46.9,27.36l-1.37,1.21c-.36-.41-1-.82-1-1.23s.6-1,1-1.12C45.82,26.14,46.3,26.82,46.9,27.36Z"/><path class="cls-1" d="M34.39,27.32c.66-.54,1.17-1.2,1.41-1.11a1.76,1.76,0,0,1,1,1.19c0,.35-.63,1.11-.94,1.09S35.06,27.88,34.39,27.32Z"/><path class="cls-2" d="M22.75,66.84,21.29,68c-.34-.43-.91-.83-1-1.29s.64-1.1.94-1.07S22.09,66.27,22.75,66.84Z"/><path class="cls-1" d="M43.73,41.78c-.66.52-1.1,1.12-1.46,1.07s-1-.74-1-1.08.66-.83,1-1.24Z"/><path class="cls-1" d="M61.81,33.19c.23.49.69,1,.64,1.47s-.68.71-1.05,1.06c-.3-.41-.8-.82-.83-1.25s.43-.86.68-1.3Z"/><path class="cls-1" d="M37.38,41.74c-.73.54-1.16,1.09-1.6,1.11s-.88-.73-.88-1.12.59-1.13.89-1.12C36.24,40.63,36.65,41.19,37.38,41.74Z"/><path class="cls-1" d="M20.18,18.81c.22.5.65,1,.6,1.49s-.64.74-1,1.1c-.32-.45-.85-.88-.89-1.35s.49-.84.77-1.26Z"/><path class="cls-1" d="M45.11,35.87c-.22-.48-.66-1-.6-1.44s.65-.74,1-1.1c.32.44.85.86.91,1.34s-.49.82-.76,1.23Z"/><path class="cls-1" d="M42.61,33.18c.23.49.68,1,.62,1.47s-.65.75-1,1.12c-.32-.45-.85-.87-.91-1.35s.49-.84.76-1.26Z"/><path class="cls-1" d="M21.3,34.58c-.66.52-1.1,1.12-1.44,1.07s-1-.73-1-1.06.64-.84,1-1.26Z"/><path class="cls-2" d="M21,53.78c-.24-.45-.69-.94-.64-1.35s.62-.79,1-1.19c.34.44.89.84,1,1.32s-.49.83-.76,1.25Z"/><path class="cls-2" d="M31.17,51.1c.25.44.72.9.68,1.31s-.57.83-.89,1.24c-.37-.41-.95-.79-1-1.25s.46-.86.72-1.3Z"/><path class="cls-1" d="M26.3,40c.47.83,1,1.31.91,1.69s-.65.84-1,1.25c-.34-.43-.9-.83-1-1.3S25.75,40.79,26.3,40Z"/><path class="cls-2" d="M42,52.41c-.64.57-1.11,1.23-1.38,1.16a1.68,1.68,0,0,1-1-1.12c0-.35.56-1.12.87-1.12S41.3,51.89,42,52.41Z"/><path class="cls-2" d="M43.43,53.8c-.24-.44-.71-.91-.67-1.32s.58-.83.9-1.23c.36.42.94.8,1,1.27s-.46.85-.72,1.29Z"/><path class="cls-2" d="M48.39,52.39c-.63.57-1.09,1.25-1.35,1.18A1.71,1.71,0,0,1,46,52.47c-.05-.36.54-1.13.86-1.14S47.68,51.87,48.39,52.39Z"/><path class="cls-2" d="M53.65,51.1c.24.49.71,1,.66,1.47s-.68.72-1.06,1.08c-.31-.42-.84-.82-.87-1.26s.45-.87.71-1.3Z"/><path class="cls-1" d="M59.9,20.73c-.51.23-1.06.7-1.51.61a1.6,1.6,0,0,1-1-1.14c0-.42.64-.85,1-1.27L59.48,20Z"/><path class="cls-1" d="M20.06,40.36c.26.43.78.9.72,1.28s-.63.86-1,1.29c-.33-.4-.88-.77-.93-1.2s.42-.9.66-1.35Z"/><path class="cls-2" d="M37.33,56.05c-.66.53-1.06,1.1-1.52,1.15-.28,0-.94-.76-.9-1.12s.64-.85,1-1.27Z"/><path class="cls-2" d="M58,57.43c-.26-.48-.74-1-.71-1.43s.6-.8.93-1.19c.35.43.9.83,1,1.31s-.44.87-.69,1.31Z"/><path class="cls-1" d="M59.67,27.31,58.4,28.56c-.38-.39-1-.78-1.06-1.17s.62-.84,1-1.27Z"/><path class="cls-1" d="M37.32,20.24c-.65.52-1.17,1.18-1.42,1.09a1.72,1.72,0,0,1-1-1.21c0-.36.6-.78.94-1.17Z"/><path class="cls-2" d="M45.18,66.87,43.71,68c-.34-.44-.9-.86-.94-1.32s.67-1.11.94-1.06C44.16,65.72,44.53,66.29,45.18,66.87Z"/><path class="cls-1" d="M34.09,41.64c-.59.57-1,1.18-1.34,1.2s-1-.64-1-1,.57-.9.89-1.34Z"/><path class="cls-1" d="M32.37,21.55c-.24-.44-.72-.93-.65-1.31s.62-.87,1-1.3c.33.45.86.87.93,1.35s-.47.84-.74,1.27Z"/><path class="cls-1" d="M51.56,43.06c-.24-.46-.7-1-.64-1.36s.63-.79,1-1.18c.33.44.88.85.94,1.33s-.49.83-.77,1.25Z"/><path class="cls-1" d="M59.7,41.82c-.62.48-1.07,1.08-1.42,1s-1-.75-.94-1.09.67-.83,1-1.23Z"/><path class="cls-1" d="M53.36,34.57c-.67.53-1.17,1.17-1.42,1.08a1.73,1.73,0,0,1-1-1.16c0-.35.62-1.1.94-1.08S52.68,34,53.36,34.57Z"/><path class="cls-2" d="M35.55,52.47c-.62.52-1,1.12-1.4,1.1s-1-.71-1-1,.61-.85,1-1.27Z"/><path class="cls-2" d="M61.17,59.67l-1.42,1.17c-.34-.43-.93-.84-1-1.29s.6-.78.94-1.17Z"/><path class="cls-2" d="M61.18,52.6c-.65.46-1.12,1-1.48,1a1.43,1.43,0,0,1-.89-1.13c.07-.44.69-.79,1.07-1.18Z"/><path class="cls-2" d="M35.59,59.61l-1.52,1.23c-.32-.4-.89-.79-.89-1.19s.53-.84.84-1.26Z"/><path class="cls-1" d="M58.36,32.76c.48.9,1,1.38.9,1.8s-.62.78-1,1.16c-.34-.42-.88-.83-.95-1.29S57.83,33.59,58.36,32.76Z"/><path class="cls-1" d="M29.76,40.39c.22.45.66.92.61,1.34s-.58.79-.9,1.19c-.35-.42-.92-.81-1-1.28s.48-.84.75-1.27Z"/><path class="cls-1" d="M53.32,20.2l-1.39,1.2c-.36-.41-1-.81-1-1.25s.58-.8.91-1.21Z"/><path class="cls-1" d="M52.2,26c.24.45.72,1,.63,1.34s-.68.81-1.06,1.21c-.3-.43-.82-.84-.85-1.29s.48-.85.75-1.28Z"/><path class="cls-2" d="M59.46,68.15c-.25-.48-.7-1-.67-1.43s.61-.77,1-1.15c.35.43.9.83,1,1.3s-.47.85-.73,1.28Z"/></g></svg>